STARTFONT 2.1
COMMENT
COMMENT Converted from OpenType font "Q:\font stuff\winfont\CachetStd-Bold.otf" by "otf2bdf 3.0".
COMMENT
FONT -FreeType-Cachet Std Bold-Medium-R-Normal--179-1800-72-72-P-819-ISO10646-1
SIZE 180 72 72
FONTBOUNDINGBOX 249 220 -30 -43
STARTPROPERTIES 19
FOUNDRY "FreeType"
FAMILY_NAME "Cachet Std Bold"
WEIGHT_NAME "Medium"
SLANT "R"
SETWIDTH_NAME "Normal"
ADD_STYLE_NAME ""
PIXEL_SIZE 179
POINT_SIZE 1800
RESOLUTION_X 72
RESOLUTION_Y 72
SPACING "P"
AVERAGE_WIDTH 819
CHARSET_REGISTRY "ISO10646"
CHARSET_ENCODING "1"
FONT_ASCENT 123
FONT_DESCENT 56
COPYRIGHT "Digitized data copyright Monotype Imaging Inc. All rights reserved."
_OTF_FONTFILE "Q:\font stuff\winfont\CachetStd-Bold.otf"
_OTF_PSNAME "CachetStd-Bold"
ENDPROPERTIES
CHARS 252
STARTCHAR 0020
ENCODING 32
SWIDTH 244 0
DWIDTH 44 0
BBX 0 0 0 0
BITMAP
ENDCHAR
STARTCHAR 0021
ENCODING 33
SWIDTH 316 0
DWIDTH 57 0
BBX 25 120 16 0
BITMAP
07FFF000
1FFFF800
3FFFFE00
7FFFFE00
7FFFFF00
FFFFFF00
FFFFFF80
FFFFFF80
FFFFFF80
FFFFFF80
FFFFFF80
FFFFFF80
FFFFFF80
FFFFFF80
FFFFFF80
FFFFFF80
FFFFFF80
FFFFFF80
FFFFFF80
FFFFFF80
FFFFFF80
FFFFFF80
FFFFFF80
FFFFFF80
FFFFFF80
FFFFFF80
FFFFFF80
FFFFFF80
FFFFFF80
FFFFFF80
FFFFFF80
FFFFFF80
FFFFFF80
FFFFFF80
FFFFFF80
FFFFFF80
FFFFFF80
FFFFFF80
FFFFFF80
FFFFFF80
FFFFFF80
FFFFFF80
FFFFFF80
FFFFFF80
FFFFFF80
FFFFFF80
FFFFFF80
FFFFFF80
FFFFFF80
FFFFFF80
FFFFFF80
FFFFFF80
FFFFFF80
FFFFFF80
FFFFFF80
FFFFFF80
FFFFFF80
FFFFFF80
FFFFFF80
FFFFFF80
FFFFFF80
FFFFFF80
FFFFFF80
FFFFFF80
FFFFFF80
FFFFFF80
FFFFFF80
FFFFFF80
FFFFFF80
FFFFFF80
FFFFFF00
FFFFFF00
7FFFFE00
7FFFFE00
1FFFF800
03FFC000
00000000
00000000
00000000
00000000
00000000
00000000
00000000
00000000
00000000
003E0000
007F0000
00FF8000
01FFC000
03FFE000
07FFF000
07FFF800
0FFFF800
1FFFFC00
1FFFFE00
3FFFFE00
3FFFFF00
7FFFFF00
7FFFFF00
7FFFFF80
FFFFFF80
FFFFFF80
FFFFFF80
FFFFFF80
FFFFFF80
FFFFFF00
7FFFFF00
7FFFFF00
3FFFFE00
3FFFFE00
1FFFFC00
1FFFFC00
0FFFF800
07FFF000
07FFF000
03FFE000
01FFC000
00FF8000
007F0000
001C0000
ENDCHAR
STARTCHAR 0022
ENCODING 34
SWIDTH 411 0
DWIDTH 74 0
BBX 58 34 7 102
BITMAP
03FFF00003FFF000
1FFFFC000FFFFE00
3FFFFE001FFFFF00
7FFFFF003FFFFF80
7FFFFF807FFFFF80
7FFFFF807FFFFFC0
FFFFFF807FFFFFC0
FFFFFF807FFFFFC0
FFFFFF807FFFFFC0
7FFFFF807FFFFFC0
7FFFFF807FFFFFC0
7FFFFF807FFFFFC0
7FFFFF807FFFFFC0
7FFFFF807FFFFFC0
7FFFFF803FFFFFC0
7FFFFF803FFFFFC0
7FFFFF803FFFFF80
7FFFFF803FFFFF80
7FFFFF803FFFFF80
7FFFFF803FFFFF80
3FFFFF003FFFFF80
3FFFFF003FFFFF80
3FFFFF003FFFFF80
3FFFFF001FFFFF80
3FFFFF001FFFFF80
3FFFFF001FFFFF00
3FFFFF001FFFFF00
3FFFFF001FFFFF00
1FFFFE001FFFFF00
1FFFFE000FFFFF00
1FFFFC000FFFFE00
0FFFFC0007FFFC00
07FFF80003FFF800
00FFC00000FFE000
ENDCHAR
STARTCHAR 0023
ENCODING 35
SWIDTH 644 0
DWIDTH 116 0
BBX 99 109 7 5
BITMAP
00000000FFFFFC0000FFFFFC00
00000001FFFFFC0001FFFFFC00
00000001FFFFF80001FFFFF800
00000001FFFFF80001FFFFF800
00000001FFFFF80001FFFFF800
00000003FFFFF80003FFFFF800
00000003FFFFF80003FFFFF000
00000003FFFFF00003FFFFF000
00000003FFFFF00003FFFFF000
00000003FFFFF00007FFFFF000
00000007FFFFF00007FFFFE000
00000007FFFFE00007FFFFE000
00000007FFFFE00007FFFFE000
00000007FFFFE00007FFFFE000
0000000FFFFFE0000FFFFFC000
0000000FFFFFE0000FFFFFC000
0000000FFFFFC0000FFFFFC000
0000000FFFFFC0000FFFFFC000
0000001FFFFFC0001FFFFF8000
0000001FFFFFC0001FFFFF8000
0000001FFFFF80001FFFFF8000
0000001FFFFF80001FFFFF8000
0000003FFFFF80003FFFFF8000
0000003FFFFF80003FFFFF0000
0000003FFFFF00003FFFFF0000
0000003FFFFF00003FFFFF0000
0000007FFFFF00007FFFFF0000
0000007FFFFF00007FFFFE0000
0007FFFFFFFFFFFFFFFFFFFFE0
0007FFFFFFFFFFFFFFFFFFFFE0
0007FFFFFFFFFFFFFFFFFFFFC0
000FFFFFFFFFFFFFFFFFFFFFC0
000FFFFFFFFFFFFFFFFFFFFFC0
000FFFFFFFFFFFFFFFFFFFFFC0
000FFFFFFFFFFFFFFFFFFFFF80
001FFFFFFFFFFFFFFFFFFFFF80
001FFFFFFFFFFFFFFFFFFFFF80
001FFFFFFFFFFFFFFFFFFFFF80
001FFFFFFFFFFFFFFFFFFFFF00
003FFFFFFFFFFFFFFFFFFFFF00
003FFFFFFFFFFFFFFFFFFFFF00
003FFFFFFFFFFFFFFFFFFFFF00
003FFFFFFFFFFFFFFFFFFFFE00
003FFFFFFFFFFFFFFFFFFFFE00
007FFFFFFFFFFFFFFFFFFFFE00
007FFFFFFFFFFFFFFFFFFFFE00
007FFFFFFFFFFFFFFFFFFFFC00
007FFFFFFFFFFFFFFFFFFFFC00
00000FFFFFE0000FFFFFC00000
00000FFFFFC0000FFFFFC00000
00000FFFFFC0001FFFFFC00000
00001FFFFFC0001FFFFF800000
00001FFFFFC0001FFFFF800000
00001FFFFF80001FFFFF800000
00001FFFFF80003FFFFF800000
00003FFFFF80003FFFFF000000
00003FFFFF80003FFFFF000000
00003FFFFF00003FFFFF000000
00003FFFFF00007FFFFF000000
00007FFFFF00007FFFFE000000
00007FFFFF00007FFFFE000000
07FFFFFFFFFFFFFFFFFFFFC000
07FFFFFFFFFFFFFFFFFFFFC000
0FFFFFFFFFFFFFFFFFFFFFC000
0FFFFFFFFFFFFFFFFFFFFFC000
0FFFFFFFFFFFFFFFFFFFFF8000
0FFFFFFFFFFFFFFFFFFFFF8000
1FFFFFFFFFFFFFFFFFFFFF8000
1FFFFFFFFFFFFFFFFFFFFF8000
1FFFFFFFFFFFFFFFFFFFFF8000
1FFFFFFFFFFFFFFFFFFFFF0000
1FFFFFFFFFFFFFFFFFFFFF0000
3FFFFFFFFFFFFFFFFFFFFF0000
3FFFFFFFFFFFFFFFFFFFFF0000
3FFFFFFFFFFFFFFFFFFFFE0000
3FFFFFFFFFFFFFFFFFFFFE0000
7FFFFFFFFFFFFFFFFFFFFE0000
7FFFFFFFFFFFFFFFFFFFFE0000
7FFFFFFFFFFFFFFFFFFFFC0000
7FFFFFFFFFFFFFFFFFFFFC0000
FFFFFFFFFFFFFFFFFFFFFC0000
000FFFFFE0000FFFFFC0000000
000FFFFFC0000FFFFFC0000000
000FFFFFC0000FFFFFC0000000
001FFFFFC0001FFFFFC0000000
001FFFFFC0001FFFFF80000000
001FFFFFC0001FFFFF80000000
001FFFFF80001FFFFF80000000
003FFFFF80003FFFFF80000000
003FFFFF80003FFFFF00000000
003FFFFF80003FFFFF00000000
003FFFFF00003FFFFF00000000
007FFFFF00007FFFFF00000000
007FFFFF00007FFFFE00000000
007FFFFF00007FFFFE00000000
007FFFFE00007FFFFE00000000
00FFFFFE0000FFFFFE00000000
00FFFFFE0000FFFFFC00000000
00FFFFFE0000FFFFFC00000000
00FFFFFC0000FFFFFC00000000
01FFFFFC0001FFFFFC00000000
01FFFFFC0001FFFFFC00000000
01FFFFFC0001FFFFF800000000
01FFFFF80001FFFFF800000000
03FFFFF80003FFFFF800000000
03FFFFF80003FFFFF800000000
03FFFFF80003FFFFF000000000
03FFFFF00003FFFFF000000000
07FFFFF00003FFFFF000000000
ENDCHAR
STARTCHAR 0024
ENCODING 36
SWIDTH 633 0
DWIDTH 114 0
BBX 78 154 12 -17
BITMAP
000000001FC000000000
000000003FE000000000
000000003FF000000000
000000003FF000000000
000000003FF000000000
000000003FF000000000
000000003FF000000000
000000003FF000000000
000000003FF000000000
000000003FF000000000
000000003FF000000000
000000003FF000000000
000000003FF000000000
000000003FF000000000
000000003FF000000000
000000003FF000000000
000000FFFFFFFFFFFE00
00001FFFFFFFFFFFFFC0
0000FFFFFFFFFFFFFFF0
0003FFFFFFFFFFFFFFF8
000FFFFFFFFFFFFFFFF8
001FFFFFFFFFFFFFFFFC
003FFFFFFFFFFFFFFFFC
00FFFFFFFFFFFFFFFFFC
01FFFFFFFFFFFFFFFFFC
01FFFFFFFFFFFFFFFFFC
03FFFFFFFFFFFFFFFFFC
07FFFFFFFFFFFFFFFFFC
0FFFFFFFFFFFFFFFFFFC
0FFFFFFFFFFFFFFFFFFC
1FFFFFFFFFFFFFFFFFFC
1FFFFFFFFFFFFFFFFFFC
1FFFFFFFFFFFFFFFFFFC
3FFFFFFFFFFFFFFFFFFC
3FFFFFFFFFFFFFFFFFF8
3FFFFFFFFFFFFFFFFFF8
7FFFFFFFFFFFFFFFFFF8
7FFFFFFFFFFFFFFFFFF0
7FFFFFFFFFFFFFFFFFC0
7FFFFFFE3FF000000000
7FFFFFE03FF000000000
FFFFFFC03FF000000000
FFFFFFC03FF000000000
FFFFFF803FF000000000
FFFFFF803FF000000000
FFFFFF803FF000000000
FFFFFF803FF000000000
FFFFFF803FF000000000
FFFFFF803FF000000000
FFFFFF803FF000000000
FFFFFF803FF000000000
FFFFFF803FF000000000
FFFFFF803FF000000000
FFFFFF803FF000000000
FFFFFFC03FF000000000
FFFFFFC03FF000000000
FFFFFFF03FF000000000
7FFFFFFC3FF000000000
7FFFFFFFBFF000000000
7FFFFFFFFFF000000000
7FFFFFFFFFF000000000
7FFFFFFFFFF000000000
3FFFFFFFFFF000000000
3FFFFFFFFFF800000000
3FFFFFFFFFFE00000000
1FFFFFFFFFFFC0000000
1FFFFFFFFFFFF0000000
0FFFFFFFFFFFFE000000
07FFFFFFFFFFFF800000
07FFFFFFFFFFFFE00000
03FFFFFFFFFFFFFC0000
01FFFFFFFFFFFFFE0000
00FFFFFFFFFFFFFF8000
007FFFFFFFFFFFFFE000
003FFFFFFFFFFFFFF000
000FFFFFFFFFFFFFFC00
0003FFFFFFFFFFFFFE00
0001FFFFFFFFFFFFFF00
00007FFFFFFFFFFFFF80
00001FFFFFFFFFFFFFC0
000007FFFFFFFFFFFFE0
000000FFFFFFFFFFFFE0
0000003FFFFFFFFFFFF0
00000007FFFFFFFFFFF0
00000001FFFFFFFFFFF8
000000003FFFFFFFFFF8
000000003FFFFFFFFFF8
000000003FFFFFFFFFF8
000000003FFFFFFFFFFC
000000003FFFFFFFFFFC
000000003FF7FFFFFFFC
000000003FF1FFFFFFFC
000000003FF03FFFFFFC
000000003FF01FFFFFFC
000000003FF00FFFFFFC
000000003FF007FFFFFC
000000003FF007FFFFFC
000000003FF007FFFFFC
000000003FF007FFFFFC
000000003FF007FFFFFC
000000003FF007FFFFFC
000000003FF007FFFFFC
000000003FF007FFFFFC
000000003FF007FFFFFC
000000003FF007FFFFFC
000000003FF007FFFFFC
000000003FF007FFFFFC
000000003FF00FFFFFFC
000000003FF00FFFFFFC
000000003FF01FFFFFFC
000000003FF03FFFFFFC
000000003FF3FFFFFFFC
0FFFFFFFFFFFFFFFFFF8
3FFFFFFFFFFFFFFFFFF8
7FFFFFFFFFFFFFFFFFF8
7FFFFFFFFFFFFFFFFFF8
FFFFFFFFFFFFFFFFFFF8
FFFFFFFFFFFFFFFFFFF8
FFFFFFFFFFFFFFFFFFF0
FFFFFFFFFFFFFFFFFFF0
FFFFFFFFFFFFFFFFFFF0
FFFFFFFFFFFFFFFFFFE0
FFFFFFFFFFFFFFFFFFE0
FFFFFFFFFFFFFFFFFFC0
FFFFFFFFFFFFFFFFFFC0
FFFFFFFFFFFFFFFFFF80
FFFFFFFFFFFFFFFFFF00
FFFFFFFFFFFFFFFFFE00
FFFFFFFFFFFFFFFFFC00
FFFFFFFFFFFFFFFFF800
7FFFFFFFFFFFFFFFE000
7FFFFFFFFFFFFFFFC000
3FFFFFFFFFFFFFFF0000
1FFFFFFFFFFFFFF80000
03FFFFFFFFFFFFC00000
0003FFFFFFFFF0000000
000000003FF000000000
000000003FF000000000
000000003FF000000000
000000003FF000000000
000000003FF000000000
000000003FF000000000
000000003FF000000000
000000003FF000000000
000000003FF000000000
000000003FF000000000
000000003FF000000000
000000003FF000000000
000000003FF000000000
000000003FF000000000
000000003FF000000000
000000003FF000000000
000000003FE000000000
000000001FC000000000
ENDCHAR
STARTCHAR 0025
ENCODING 37
SWIDTH 933 0
DWIDTH 168 0
BBX 143 128 11 -8
BITMAP
000007FF80000000000000003F0000000000
0000FFFFF800000000000000FFE000000000
0003FFFFFF00000000000001FFFC00000000
000FFFFFFFC0000000000003FFFF80000000
003FFFFFFFE0000000000003FFFF80000000
007FFFFFFFF8000000000007FFFF80000000
00FFFFFFFFFC000000000007FFFF80000000
01FFFFFFFFFE00000000000FFFFF80000000
03FFFFFFFFFE00000000000FFFFF00000000
03FFFFFFFFFF00000000001FFFFF00000000
07FFFFFFFFFF80000000003FFFFE00000000
0FFFFFFFFFFF80000000003FFFFE00000000
0FFFFFFFFFFFC0000000007FFFFC00000000
1FFFFFFFFFFFC0000000007FFFFC00000000
1FFFFFFFFFFFE000000000FFFFF800000000
3FFFFFFFFFFFE000000000FFFFF000000000
3FFFFF87FFFFF000000001FFFFF000000000
3FFFFC00FFFFF000000001FFFFE000000000
7FFFF8007FFFF000000003FFFFE000000000
7FFFF0007FFFF000000007FFFFC000000000
7FFFF0003FFFF800000007FFFFC000000000
7FFFF0003FFFF80000000FFFFF8000000000
7FFFE0003FFFF80000000FFFFF8000000000
FFFFE0001FFFF80000001FFFFF0000000000
FFFFE0001FFFF80000001FFFFE0000000000
FFFFE0001FFFFC0000003FFFFE0000000000
FFFFE0001FFFFC0000003FFFFC0000000000
FFFFE0001FFFFC0000007FFFFC0000000000
FFFFE0001FFFFC000000FFFFF80000000000
FFFFE0001FFFFC000000FFFFF80000000000
FFFFE0001FFFFC000001FFFFF00000000000
FFFFE0001FFFFC000001FFFFF00000000000
FFFFE0001FFFFC000003FFFFE00000000000
FFFFC0001FFFFC000003FFFFC00000000000
FFFFC0001FFFFC000007FFFFC00000000000
FFFFC0001FFFFC00000FFFFF800000000000
FFFFC0001FFFFC00000FFFFF800000000000
FFFFE0001FFFFC00001FFFFF000000000000
FFFFE0001FFFFC00001FFFFF000000000000
FFFFE0001FFFFC00003FFFFE000000000000
FFFFE0001FFFFC00003FFFFC000000000000
FFFFE0001FFFFC00007FFFFC000000000000
FFFFE0001FFFFC00007FFFF8000000000000
FFFFE0001FFFFC0000FFFFF8000000000000
FFFFE0001FFFFC0001FFFFF0000000000000
FFFFE0001FFFFC0001FFFFF0000000000000
FFFFE0001FFFF80003FFFFE0000000000000
FFFFE0003FFFF80003FFFFE0000000000000
7FFFF0003FFFF80007FFFFC0000000000000
7FFFF0003FFFF80007FFFF80000000000000
7FFFF0003FFFF8000FFFFF80000000000000
7FFFF0007FFFF0000FFFFF00000000000000
3FFFF8007FFFF0001FFFFF00000000000000
3FFFFE01FFFFF0003FFFFE00000000000000
3FFFFFFFFFFFE0003FFFFE00000000000000
1FFFFFFFFFFFE0007FFFFC00000000000000
1FFFFFFFFFFFE0007FFFFC00000000000000
1FFFFFFFFFFFC000FFFFF800000000000000
0FFFFFFFFFFFC000FFFFF000001FFFF00000
0FFFFFFFFFFF8001FFFFF00000FFFFFE0000
07FFFFFFFFFF0003FFFFE00007FFFFFF8000
03FFFFFFFFFF0003FFFFE0000FFFFFFFE000
01FFFFFFFFFE0007FFFFC0003FFFFFFFF000
01FFFFFFFFFC0007FFFFC0007FFFFFFFFC00
00FFFFFFFFF8000FFFFF8000FFFFFFFFFE00
003FFFFFFFF0000FFFFF8001FFFFFFFFFF00
001FFFFFFFC0001FFFFF0003FFFFFFFFFF00
0007FFFFFF80001FFFFE0003FFFFFFFFFF80
0001FFFFFC00003FFFFE0007FFFFFFFFFFC0
00003FFFE000007FFFFC000FFFFFFFFFFFC0
000000000000007FFFFC000FFFFFFFFFFFE0
00000000000000FFFFF8000FFFFFFFFFFFE0
00000000000000FFFFF8001FFFFFFFFFFFF0
00000000000001FFFFF0001FFFFFFFFFFFF0
00000000000001FFFFF0003FFFFE01FFFFF0
00000000000003FFFFE0003FFFF8007FFFF8
00000000000003FFFFC0003FFFF8003FFFF8
00000000000007FFFFC0003FFFF0003FFFF8
0000000000000FFFFF80007FFFF0003FFFF8
0000000000000FFFFF80007FFFF0001FFFFC
0000000000001FFFFF00007FFFF0001FFFFC
0000000000001FFFFF00007FFFF0001FFFFC
0000000000003FFFFE00007FFFE0001FFFFC
0000000000003FFFFE0000FFFFE0001FFFFC
0000000000007FFFFC0000FFFFE0001FFFFC
000000000000FFFFF80000FFFFE0001FFFFC
000000000000FFFFF80000FFFFE0000FFFFC
000000000001FFFFF00000FFFFE0000FFFFE
000000000001FFFFF00000FFFFE0000FFFFE
000000000003FFFFE00000FFFFE0000FFFFE
000000000003FFFFE00000FFFFE0000FFFFE
000000000007FFFFC00000FFFFE0000FFFFE
000000000007FFFFC00000FFFFE0000FFFFE
00000000000FFFFF800000FFFFE0000FFFFE
00000000001FFFFF000000FFFFE0000FFFFE
00000000001FFFFF000000FFFFE0000FFFFE
00000000003FFFFE000000FFFFE0000FFFFE
00000000003FFFFE000000FFFFE0000FFFFE
00000000007FFFFC000000FFFFE0000FFFFE
00000000007FFFFC000000FFFFE0000FFFFC
0000000000FFFFF8000000FFFFE0001FFFFC
0000000000FFFFF8000000FFFFE0001FFFFC
0000000001FFFFF00000007FFFE0001FFFFC
0000000003FFFFE00000007FFFF0001FFFFC
0000000003FFFFE00000007FFFF0001FFFFC
0000000007FFFFC00000007FFFF0001FFFFC
0000000007FFFFC00000007FFFF0001FFFF8
000000000FFFFF800000007FFFF0003FFFF8
000000000FFFFF800000003FFFF8003FFFF8
000000001FFFFF000000003FFFF8007FFFF8
000000001FFFFE000000003FFFFC007FFFF0
000000003FFFFE000000003FFFFF87FFFFF0
000000007FFFFC000000001FFFFFFFFFFFF0
000000007FFFFC000000001FFFFFFFFFFFE0
00000000FFFFF8000000000FFFFFFFFFFFE0
00000000FFFFF8000000000FFFFFFFFFFFC0
00000001FFFFF00000000007FFFFFFFFFFC0
00000001FFFFF00000000007FFFFFFFFFF80
00000003FFFFE00000000003FFFFFFFFFF80
00000007FFFFC00000000001FFFFFFFFFF00
00000007FFFFC00000000000FFFFFFFFFE00
00000007FFFF800000000000FFFFFFFFFC00
00000007FFFF8000000000003FFFFFFFF800
00000007FFFF0000000000001FFFFFFFF000
00000007FFFF0000000000000FFFFFFFC000
00000000FFFE00000000000003FFFFFF0000
000000001FFC000000000000007FFFFC0000
0000000003F00000000000000007FF800000
ENDCHAR
STARTCHAR 0026
ENCODING 38
SWIDTH 700 0
DWIDTH 126 0
BBX 105 120 11 0
BITMAP
000000001FFFFC00000000000000
00000007FFFFFFF0000000000000
0000007FFFFFFFFF000000000000
000001FFFFFFFFFFE00000000000
000007FFFFFFFFFFF80000000000
00001FFFFFFFFFFFFC0000000000
00007FFFFFFFFFFFFF0000000000
0000FFFFFFFFFFFFFF8000000000
0001FFFFFFFFFFFFFFC000000000
0003FFFFFFFFFFFFFFE000000000
0007FFFFFFFFFFFFFFE000000000
000FFFFFFFFFFFFFFFF000000000
000FFFFFFFFFFFFFFFF800000000
001FFFFFFFFFFFFFFFF800000000
001FFFFFFFFFFFFFFFFC00000000
003FFFFFFFFFFFFFFFFC00000000
003FFFFFFFFFFFFFFFFC00000000
007FFFFFFFFFFFFFFFFE00000000
007FFFFFFFFFFFFFFFFE00000000
007FFFFFFFFFFFFFFFFE00000000
007FFFFFFFFFFFFFFFFE00000000
00FFFFFFFFFFFFFFFFFF00000000
00FFFFFFF8000FFFFFFF00000000
00FFFFFFF00007FFFFFF00000000
00FFFFFFE00003FFFFFF00000000
00FFFFFFC00001FFFFFF00000000
00FFFFFFC00001FFFFFF00000000
00FFFFFFC00001FFFFFF00000000
00FFFFFFC00001FFFFFF00000000
00FFFFFFC00001FFFFFF00000000
00FFFFFFC00001FFFFFF00000000
00FFFFFFC00001FFFFFF00000000
00FFFFFFC00001FFFFFF00000000
007FFFFFE00003FFFFFE00000000
007FFFFFE00003FFFFFE00000000
007FFFFFE00007FFFFFE00000000
007FFFFFF00007FFFFFE00000000
003FFFFFF0000FFFFFFC00000000
003FFFFFF8001FFFFFFC00000000
003FFFFFFC003FFFFFF800000000
001FFFFFFC007FFFFFF800000000
001FFFFFFE00FFFFFFF000000000
000FFFFFFF03FFFFFFE000000000
000FFFFFFF8FFFFFFFE000000000
0007FFFFFFFFFFFFFFC000000000
0007FFFFFFFFFFFFFF8000000000
0003FFFFFFFFFFFFFF0000000000
0001FFFFFFFFFFFFFE0000000000
0001FFFFFFFFFFFFFC0000000000
0000FFFFFFFFFFFFF80000000000
00007FFFFFFFFFFFE00000000000
00003FFFFFFFFFFFC00000000000
00001FFFFFFFFFFF800000000000
00000FFFFFFFFFFE000000000000
00000FFFFFFFFFFC000000000000
00003FFFFFFFFFF00000FFFC0000
00007FFFFFFFFFC00003FFFF0000
0001FFFFFFFFFF800007FFFF0000
0003FFFFFFFFFE000007FFFF8000
000FFFFFFFFFFF00000FFFFF8000
001FFFFFFFFFFF80000FFFFF8000
003FFFFFFFFFFFC0000FFFFF8000
007FFFFFFFFFFFC0000FFFFF8000
00FFFFFFFFFFFFE0000FFFFF8000
01FFFFFFFFFFFFF0001FFFFF8000
03FFFFFFFFFFFFF8001FFFFF8000
03FFFFFFFFFFFFFC001FFFFF8000
07FFFFFFFFFFFFFE001FFFFF8000
0FFFFFFFFFFFFFFF001FFFFF8000
0FFFFFFFFFFFFFFF801FFFFF8000
1FFFFFFFF7FFFFFFC01FFFFF0000
1FFFFFFFC3FFFFFFE01FFFFF0000
3FFFFFFF83FFFFFFF03FFFFF0000
3FFFFFFE01FFFFFFFC3FFFFF0000
3FFFFFFC00FFFFFFFE3FFFFF0000
7FFFFFF8007FFFFFFF3FFFFF0000
7FFFFFF0003FFFFFFFBFFFFE0000
7FFFFFE0001FFFFFFFFFFFFE0000
7FFFFFE0000FFFFFFFFFFFFE0000
7FFFFFE00007FFFFFFFFFFFE0000
FFFFFFC00003FFFFFFFFFFFC0000
FFFFFFC00001FFFFFFFFFFFC0000
FFFFFFC00000FFFFFFFFFFFC0000
FFFFFFC000007FFFFFFFFFF80000
FFFFFFC000003FFFFFFFFFF80000
FFFFFFC000001FFFFFFFFFF80000
FFFFFFC0000007FFFFFFFFF00000
FFFFFFC0000003FFFFFFFFF00000
FFFFFFC0000001FFFFFFFFE00000
FFFFFFC0000000FFFFFFFFE00000
FFFFFFC00000007FFFFFFFC00000
FFFFFFE00000003FFFFFFFE00000
FFFFFFE00000001FFFFFFFF00000
FFFFFFF00000000FFFFFFFFC0000
FFFFFFF800000007FFFFFFFE0000
7FFFFFFC0000000FFFFFFFFF0000
7FFFFFFF8000007FFFFFFFFFC000
7FFFFFFFFF80FFFFFFFFFFFFE000
7FFFFFFFFFFFFFFFFFFFFFFFF000
3FFFFFFFFFFFFFFFFFFFFFFFF800
3FFFFFFFFFFFFFFFFFFFFFFFFC00
3FFFFFFFFFFFFFFFFFFFFFFFFE00
1FFFFFFFFFFFFFFFFFFFFFFFFF00
1FFFFFFFFFFFFFFFFFFFFFFFFF80
0FFFFFFFFFFFFFFFFFFFFFFFFF80
0FFFFFFFFFFFFFFFFFFFFFFFFF80
07FFFFFFFFFFFFFFFFFFFFFFFF80
03FFFFFFFFFFFFFFFFFFFFFFFF80
03FFFFFFFFFFFFFFFFFFFFFFFF80
01FFFFFFFFFFFFFFFFFFFFFFFF00
00FFFFFFFFFFFFFFFFF8FFFFFF00
007FFFFFFFFFFFFFFFF07FFFFE00
001FFFFFFFFFFFFFFFE03FFFFC00
000FFFFFFFFFFFFFFF801FFFF800
0003FFFFFFFFFFFFFF000FFFF800
0000FFFFFFFFFFFFFC0007FFF000
00003FFFFFFFFFFFE00003FFE000
000007FFFFFFFFFF800001FFC000
0000003FFFFFFFF80000007F0000
000000007FFFFE000000001E0000
ENDCHAR
STARTCHAR 0027
ENCODING 39
SWIDTH 227 0
DWIDTH 41 0
BBX 25 34 7 102
BITMAP
03FFF000
1FFFFC00
3FFFFE00
7FFFFF00
FFFFFF00
FFFFFF80
FFFFFF80
FFFFFF80
FFFFFF80
FFFFFF80
FFFFFF80
FFFFFF80
FFFFFF80
FFFFFF80
7FFFFF80
7FFFFF00
7FFFFF00
7FFFFF00
7FFFFF00
7FFFFF00
7FFFFF00
7FFFFF00
7FFFFF00
7FFFFF00
3FFFFE00
3FFFFE00
3FFFFE00
3FFFFE00
3FFFFE00
1FFFFE00
1FFFFC00
0FFFF800
07FFF000
01FFC000
ENDCHAR
STARTCHAR 0028
ENCODING 40
SWIDTH 333 0
DWIDTH 60 0
BBX 49 169 11 -24
BITMAP
0000000003FF80
00000001FFFF80
0000001FFFFF80
0000007FFFFF80
000003FFFFFF80
000007FFFFFF80
00001FFFFFFF80
00003FFFFFFF80
0000FFFFFFFF80
0001FFFFFFFF80
0003FFFFFFFF80
0007FFFFFFFF80
0007FFFFFFFF80
000FFFFFFFFF80
001FFFFFFFFF80
003FFFFFFFFF80
003FFFFFFFFF80
007FFFFFFFFF80
007FFFFFFFFF80
00FFFFFFFFFF80
00FFFFFFFFFF80
01FFFFFFFFFF80
01FFFFFFFFFF80
01FFFFFFFFFF80
03FFFFFFFFFF80
03FFFFFFFFC000
03FFFFFFFC0000
07FFFFFFF00000
07FFFFFFC00000
07FFFFFF800000
0FFFFFFF000000
0FFFFFFF000000
0FFFFFFE000000
0FFFFFFE000000
0FFFFFFC000000
1FFFFFFC000000
1FFFFFFC000000
1FFFFFF8000000
1FFFFFF8000000
1FFFFFF8000000
3FFFFFF0000000
3FFFFFF0000000
3FFFFFF0000000
3FFFFFF0000000
3FFFFFF0000000
3FFFFFE0000000
3FFFFFE0000000
3FFFFFE0000000
7FFFFFE0000000
7FFFFFE0000000
7FFFFFE0000000
7FFFFFC0000000
7FFFFFC0000000
7FFFFFC0000000
7FFFFFC0000000
7FFFFFC0000000
7FFFFFC0000000
7FFFFFC0000000
7FFFFFC0000000
7FFFFFC0000000
FFFFFFC0000000
FFFFFFC0000000
FFFFFF80000000
FFFFFF80000000
FFFFFF80000000
FFFFFF80000000
FFFFFF80000000
FFFFFF80000000
FFFFFF80000000
FFFFFF80000000
FFFFFF80000000
FFFFFF80000000
FFFFFF80000000
FFFFFF80000000
FFFFFF80000000
FFFFFF80000000
FFFFFF80000000
FFFFFF80000000
FFFFFF80000000
FFFFFF80000000
FFFFFF80000000
FFFFFF80000000
FFFFFF80000000
FFFFFF80000000
FFFFFF80000000
FFFFFF80000000
FFFFFF80000000
FFFFFF80000000
FFFFFF80000000
FFFFFF80000000
FFFFFF80000000
FFFFFF80000000
FFFFFF80000000
FFFFFF80000000
FFFFFF80000000
FFFFFF80000000
FFFFFF80000000
FFFFFF80000000
FFFFFF80000000
FFFFFF80000000
FFFFFF80000000
FFFFFF80000000
FFFFFF80000000
FFFFFF80000000
FFFFFF80000000
FFFFFF80000000
FFFFFF80000000
FFFFFFC0000000
FFFFFFC0000000
7FFFFFC0000000
7FFFFFC0000000
7FFFFFC0000000
7FFFFFC0000000
7FFFFFC0000000
7FFFFFC0000000
7FFFFFC0000000
7FFFFFC0000000
7FFFFFC0000000
7FFFFFE0000000
7FFFFFE0000000
7FFFFFE0000000
7FFFFFE0000000
3FFFFFE0000000
3FFFFFE0000000
3FFFFFF0000000
3FFFFFF0000000
3FFFFFF0000000
3FFFFFF0000000
3FFFFFF0000000
3FFFFFF8000000
1FFFFFF8000000
1FFFFFF8000000
1FFFFFFC000000
1FFFFFFC000000
1FFFFFFC000000
0FFFFFFE000000
0FFFFFFE000000
0FFFFFFF000000
0FFFFFFF000000
07FFFFFF800000
07FFFFFFC00000
07FFFFFFF00000
07FFFFFFFC0000
03FFFFFFFFC000
03FFFFFFFFFF80
03FFFFFFFFFF80
01FFFFFFFFFF80
01FFFFFFFFFF80
00FFFFFFFFFF80
00FFFFFFFFFF80
007FFFFFFFFF80
007FFFFFFFFF80
003FFFFFFFFF80
003FFFFFFFFF80
001FFFFFFFFF80
000FFFFFFFFF80
000FFFFFFFFF80
0007FFFFFFFF80
0003FFFFFFFF80
0001FFFFFFFF80
0000FFFFFFFF80
00007FFFFFFF80
00001FFFFFFF80
00000FFFFFFF80
000003FFFFFF80
000000FFFFFF80
0000001FFFFF80
00000003FFFF80
0000000007FF80
ENDCHAR
STARTCHAR 0029
ENCODING 41
SWIDTH 333 0
DWIDTH 60 0
BBX 49 169 -1 -24
BITMAP
FFF00000000000
FFFFC000000000
FFFFFC00000000
FFFFFF80000000
FFFFFFE0000000
FFFFFFF8000000
FFFFFFFC000000
FFFFFFFF000000
FFFFFFFF800000
FFFFFFFFC00000
FFFFFFFFE00000
FFFFFFFFF00000
FFFFFFFFF80000
FFFFFFFFF80000
FFFFFFFFFC0000
FFFFFFFFFE0000
FFFFFFFFFE0000
FFFFFFFFFF0000
FFFFFFFFFF0000
FFFFFFFFFF8000
FFFFFFFFFF8000
FFFFFFFFFFC000
FFFFFFFFFFC000
FFFFFFFFFFC000
FFFFFFFFFFE000
01FFFFFFFFE000
001FFFFFFFF000
0007FFFFFFF000
0001FFFFFFF000
0000FFFFFFF000
00007FFFFFF800
00007FFFFFF800
00003FFFFFF800
00003FFFFFF800
00001FFFFFFC00
00001FFFFFFC00
00000FFFFFFC00
00000FFFFFFC00
00000FFFFFFC00
00000FFFFFFE00
000007FFFFFE00
000007FFFFFE00
000007FFFFFE00
000007FFFFFE00
000007FFFFFE00
000003FFFFFE00
000003FFFFFF00
000003FFFFFF00
000003FFFFFF00
000003FFFFFF00
000003FFFFFF00
000001FFFFFF00
000001FFFFFF00
000001FFFFFF00
000001FFFFFF00
000001FFFFFF00
000001FFFFFF00
000001FFFFFF00
000001FFFFFF80
000001FFFFFF80
000001FFFFFF80
000000FFFFFF80
000000FFFFFF80
000000FFFFFF80
000000FFFFFF80
000000FFFFFF80
000000FFFFFF80
000000FFFFFF80
000000FFFFFF80
000000FFFFFF80
000000FFFFFF80
000000FFFFFF80
000000FFFFFF80
000000FFFFFF80
000000FFFFFF80
000000FFFFFF80
000000FFFFFF80
000000FFFFFF80
000000FFFFFF80
000000FFFFFF80
000000FFFFFF80
000000FFFFFF80
000000FFFFFF80
000000FFFFFF80
000000FFFFFF80
000000FFFFFF80
000000FFFFFF80
000000FFFFFF80
000000FFFFFF80
000000FFFFFF80
000000FFFFFF80
000000FFFFFF80
000000FFFFFF80
000000FFFFFF80
000000FFFFFF80
000000FFFFFF80
000000FFFFFF80
000000FFFFFF80
000000FFFFFF80
000000FFFFFF80
000000FFFFFF80
000000FFFFFF80
000000FFFFFF80
000000FFFFFF80
000000FFFFFF80
000000FFFFFF80
000000FFFFFF80
000000FFFFFF80
000001FFFFFF80
000001FFFFFF80
000001FFFFFF80
000001FFFFFF00
000001FFFFFF00
000001FFFFFF00
000001FFFFFF00
000001FFFFFF00
000001FFFFFF00
000001FFFFFF00
000003FFFFFF00
000003FFFFFF00
000003FFFFFF00
000003FFFFFF00
000003FFFFFF00
000003FFFFFE00
000003FFFFFE00
000007FFFFFE00
000007FFFFFE00
000007FFFFFE00
000007FFFFFE00
00000FFFFFFE00
00000FFFFFFC00
00000FFFFFFC00
00000FFFFFFC00
00001FFFFFFC00
00001FFFFFFC00
00003FFFFFF800
00003FFFFFF800
00007FFFFFF800
00007FFFFFF800
0000FFFFFFF000
0001FFFFFFF000
0007FFFFFFF000
001FFFFFFFF000
01FFFFFFFFE000
FFFFFFFFFFE000
FFFFFFFFFFE000
FFFFFFFFFFC000
FFFFFFFFFFC000
FFFFFFFFFF8000
FFFFFFFFFF8000
FFFFFFFFFF0000
FFFFFFFFFF0000
FFFFFFFFFE0000
FFFFFFFFFE0000
FFFFFFFFFC0000
FFFFFFFFFC0000
FFFFFFFFF80000
FFFFFFFFF00000
FFFFFFFFE00000
FFFFFFFFC00000
FFFFFFFF800000
FFFFFFFF000000
FFFFFFFC000000
FFFFFFF8000000
FFFFFFE0000000
FFFFFF80000000
FFFFFC00000000
FFFFC000000000
FFF00000000000
ENDCHAR
STARTCHAR 002A
ENCODING 42
SWIDTH 394 0
DWIDTH 71 0
BBX 56 57 7 72
BITMAP
000000FFC00000
000007FFE00000
00000FFFF00000
00000FFFF80000
00001FFFF80000
00001FFFFC0000
00001FFFFC0000
00001FFFFC0000
00001FFFFC0000
00003FFFFC0000
00003FFFFC0000
00803FFFFC0100
07F83FFFFC1FE0
0FFF3FFFFC7FF0
1FFFFFFFFFFFF8
1FFFFFFFFFFFF8
3FFFFFFFFFFFFC
3FFFFFFFFFFFFC
3FFFFFFFFFFFFC
7FFFFFFFFFFFFE
7FFFFFFFFFFFFE
7FFFFFFFFFFFFE
FFFFFFFFFFFFFF
FFFFFFFFFFFFFF
FFFFFFFFFFFFFF
FFFFFFFFFFFFFF
FFFFFFFFFFFFFF
7FFFFFFFFFFFFE
7FFFFFFFFFFFFE
3FFFFFFFFFFFFC
1FFFFFFFFFFFF8
07FFFFFFFFFFE0
00FFFFFFFFFF80
003FFFFFFFFC00
001FFFFFFFF800
003FFFFFFFFC00
003FFFFFFFFC00
007FFFFFFFFE00
00FFFFFFFFFF00
01FFFFFFFFFF80
01FFFFFFFFFF80
03FFFFFFFFFFC0
03FFFFFFFFFFC0
07FFFFFFFFFFE0
07FFFFFFFFFFE0
07FFFFEFFFFFE0
0FFFFFE7FFFFE0
07FFFFC3FFFFE0
07FFFF81FFFFE0
07FFFF81FFFFC0
03FFFF00FFFFC0
01FFFE007FFF80
00FFFE007FFF00
007FFC003FFE00
003FF8001FFC00
000FF0000FF000
0003C00003C000
ENDCHAR
STARTCHAR 002B
ENCODING 43
SWIDTH 577 0
DWIDTH 104 0
BBX 85 82 8 8
BITMAP
00000001FFFFFC00000000
00000001FFFFFC00000000
00000001FFFFFC00000000
00000001FFFFFC00000000
00000001FFFFFC00000000
00000001FFFFFC00000000
00000001FFFFFC00000000
00000001FFFFFC00000000
00000001FFFFFC00000000
00000001FFFFFC00000000
00000001FFFFFC00000000
00000001FFFFFC00000000
00000001FFFFFC00000000
00000001FFFFFC00000000
00000001FFFFFC00000000
00000001FFFFFC00000000
00000001FFFFFC00000000
00000001FFFFFC00000000
00000001FFFFFC00000000
00000001FFFFFC00000000
00000001FFFFFC00000000
00000001FFFFFC00000000
00000001FFFFFC00000000
00000001FFFFFC00000000
00000001FFFFFC00000000
00000001FFFFFC00000000
00000001FFFFFC00000000
00000001FFFFFC00000000
00000001FFFFFC00000000
00000001FFFFFC00000000
FFFFFFFFFFFFFFFFFFFFF8
FFFFFFFFFFFFFFFFFFFFF8
FFFFFFFFFFFFFFFFFFFFF8
FFFFFFFFFFFFFFFFFFFFF8
FFFFFFFFFFFFFFFFFFFFF8
FFFFFFFFFFFFFFFFFFFFF8
FFFFFFFFFFFFFFFFFFFFF8
FFFFFFFFFFFFFFFFFFFFF8
FFFFFFFFFFFFFFFFFFFFF8
FFFFFFFFFFFFFFFFFFFFF8
FFFFFFFFFFFFFFFFFFFFF8
FFFFFFFFFFFFFFFFFFFFF8
FFFFFFFFFFFFFFFFFFFFF8
FFFFFFFFFFFFFFFFFFFFF8
FFFFFFFFFFFFFFFFFFFFF8
FFFFFFFFFFFFFFFFFFFFF8
FFFFFFFFFFFFFFFFFFFFF8
FFFFFFFFFFFFFFFFFFFFF8
FFFFFFFFFFFFFFFFFFFFF8
FFFFFFFFFFFFFFFFFFFFF8
FFFFFFFFFFFFFFFFFFFFF8
FFFFFFFFFFFFFFFFFFFFF8
00000001FFFFFC00000000
00000001FFFFFC00000000
00000001FFFFFC00000000
00000001FFFFFC00000000
00000001FFFFFC00000000
00000001FFFFFC00000000
00000001FFFFFC00000000
00000001FFFFFC00000000
00000001FFFFFC00000000
00000001FFFFFC00000000
00000001FFFFFC00000000
00000001FFFFFC00000000
00000001FFFFFC00000000
00000001FFFFFC00000000
00000001FFFFFC00000000
00000001FFFFFC00000000
00000001FFFFFC00000000
00000001FFFFFC00000000
00000001FFFFFC00000000
00000001FFFFFC00000000
00000001FFFFFC00000000
00000001FFFFFC00000000
00000001FFFFFC00000000
00000001FFFFFC00000000
00000001FFFFFC00000000
00000001FFFFFC00000000
00000001FFFFFC00000000
00000001FFFFFC00000000
00000001FFFFFC00000000
00000001FFFFFC00000000
ENDCHAR
STARTCHAR 002C
ENCODING 44
SWIDTH 322 0
DWIDTH 58 0
BBX 41 65 6 -32
BITMAP
00000F000000
00001FC00000
00007FE00000
0000FFF80000
0001FFFC0000
0003FFFE0000
0007FFFF0000
000FFFFF8000
001FFFFFC000
003FFFFFE000
003FFFFFF000
007FFFFFF800
00FFFFFFFC00
01FFFFFFFE00
03FFFFFFFE00
03FFFFFFFF00
07FFFFFFFF00
07FFFFFFFF00
07FFFFFFFF80
07FFFFFFFF80
07FFFFFFFF00
07FFFFFFFF00
07FFFFFFFF00
03FFFFFFFF00
01FFFFFFFE00
01FFFFFFFE00
00FFFFFFFC00
007FFFFFFC00
003FFFFFFC00
001FFFFFF800
0007FFFFF800
0007FFFFF000
000FFFFFF000
001FFFFFE000
001FFFFFE000
003FFFFFC000
003FFFFFC000
007FFFFF8000
00FFFFFF8000
00FFFFFF0000
01FFFFFF0000
03FFFFFE0000
03FFFFFE0000
07FFFFFC0000
07FFFFFC0000
0FFFFFF80000
1FFFFFF00000
1FFFFFF00000
3FFFFFE00000
3FFFFFE00000
7FFFFFC00000
7FFFFFC00000
FFFFFF800000
FFFFFF000000
FFFFFF000000
FFFFFE000000
FFFFFC000000
7FFFFC000000
7FFFF8000000
3FFFF0000000
1FFFF0000000
0FFFE0000000
07FFC0000000
01FF80000000
007E00000000
ENDCHAR
STARTCHAR 002D
ENCODING 45
SWIDTH 477 0
DWIDTH 86 0
BBX 70 21 7 38
BITMAP
03FFFFFFFFFFFFFF80
1FFFFFFFFFFFFFFFF0
7FFFFFFFFFFFFFFFF8
7FFFFFFFFFFFFFFFF8
FFFFFFFFFFFFFFFFFC
FFFFFFFFFFFFFFFFFC
FFFFFFFFFFFFFFFFFC
FFFFFFFFFFFFFFFFFC
FFFFFFFFFFFFFFFFFC
FFFFFFFFFFFFFFFFFC
FFFFFFFFFFFFFFFFFC
FFFFFFFFFFFFFFFFFC
FFFFFFFFFFFFFFFFFC
FFFFFFFFFFFFFFFFFC
FFFFFFFFFFFFFFFFFC
FFFFFFFFFFFFFFFFF8
FFFFFFFFFFFFFFFFF8
7FFFFFFFFFFFFFFFF8
7FFFFFFFFFFFFFFFF0
3FFFFFFFFFFFFFFFE0
07FFFFFFFFFFFFFF80
ENDCHAR
STARTCHAR 002E
ENCODING 46
SWIDTH 316 0
DWIDTH 57 0
BBX 35 33 11 0
BITMAP
0001F00000
000FFC0000
001FFF0000
007FFF8000
00FFFFE000
01FFFFF000
03FFFFF800
07FFFFFC00
0FFFFFFE00
1FFFFFFF00
3FFFFFFF00
3FFFFFFF80
7FFFFFFFC0
7FFFFFFFC0
FFFFFFFFC0
FFFFFFFFE0
FFFFFFFFE0
FFFFFFFFE0
FFFFFFFFC0
FFFFFFFFC0
7FFFFFFF80
7FFFFFFF80
3FFFFFFF00
1FFFFFFE00
0FFFFFFE00
07FFFFFC00
03FFFFF800
01FFFFF000
00FFFFE000
007FFF8000
001FFF0000
000FFC0000
0001F00000
ENDCHAR
STARTCHAR 002F
ENCODING 47
SWIDTH 361 0
DWIDTH 65 0
BBX 70 134 4 -6
BITMAP
00000000000007E000
0000000000000FF800
0000000000001FFE00
0000000000003FFF80
0000000000007FFFE0
0000000000007FFFF0
000000000000FFFFF8
000000000000FFFFFC
000000000001FFFFFC
000000000001FFFFFC
000000000001FFFFFC
000000000003FFFFFC
000000000003FFFFFC
000000000007FFFFFC
000000000007FFFFFC
00000000000FFFFFFC
00000000000FFFFFF8
00000000000FFFFFF8
00000000001FFFFFF8
00000000001FFFFFF0
00000000003FFFFFF0
00000000003FFFFFE0
00000000007FFFFFE0
00000000007FFFFFC0
00000000007FFFFFC0
0000000000FFFFFFC0
0000000000FFFFFF80
0000000001FFFFFF80
0000000001FFFFFF00
0000000001FFFFFF00
0000000003FFFFFE00
0000000003FFFFFE00
0000000007FFFFFE00
0000000007FFFFFC00
000000000FFFFFFC00
000000000FFFFFF800
000000000FFFFFF800
000000001FFFFFF800
000000001FFFFFF000
000000003FFFFFF000
000000003FFFFFE000
000000007FFFFFE000
000000007FFFFFC000
000000007FFFFFC000
00000000FFFFFFC000
00000000FFFFFF8000
00000001FFFFFF8000
00000001FFFFFF0000
00000003FFFFFF0000
00000003FFFFFE0000
00000003FFFFFE0000
00000007FFFFFE0000
00000007FFFFFC0000
0000000FFFFFFC0000
0000000FFFFFF80000
0000000FFFFFF80000
0000001FFFFFF80000
0000001FFFFFF00000
0000003FFFFFF00000
0000003FFFFFE00000
0000007FFFFFE00000
0000007FFFFFC00000
0000007FFFFFC00000
000000FFFFFFC00000
000000FFFFFF800000
000001FFFFFF800000
000001FFFFFF000000
000003FFFFFF000000
000003FFFFFE000000
000003FFFFFE000000
000007FFFFFE000000
000007FFFFFC000000
00000FFFFFFC000000
00000FFFFFF8000000
00000FFFFFF8000000
00001FFFFFF8000000
00001FFFFFF0000000
00003FFFFFF0000000
00003FFFFFE0000000
00007FFFFFE0000000
00007FFFFFC0000000
00007FFFFFC0000000
0000FFFFFFC0000000
0000FFFFFF80000000
0001FFFFFF80000000
0001FFFFFF00000000
0003FFFFFF00000000
0003FFFFFE00000000
0003FFFFFE00000000
0007FFFFFE00000000
0007FFFFFC00000000
000FFFFFFC00000000
000FFFFFF800000000
001FFFFFF800000000
001FFFFFF800000000
001FFFFFF000000000
003FFFFFF000000000
003FFFFFE000000000
007FFFFFE000000000
007FFFFFC000000000
007FFFFFC000000000
00FFFFFFC000000000
00FFFFFF8000000000
01FFFFFF8000000000
01FFFFFF0000000000
03FFFFFF0000000000
03FFFFFE0000000000
03FFFFFE0000000000
07FFFFFE0000000000
07FFFFFC0000000000
0FFFFFFC0000000000
0FFFFFF80000000000
1FFFFFF80000000000
1FFFFFF80000000000
1FFFFFF00000000000
3FFFFFF00000000000
3FFFFFE00000000000
7FFFFFE00000000000
7FFFFFC00000000000
7FFFFFC00000000000
FFFFFFC00000000000
FFFFFF800000000000
FFFFFF800000000000
FFFFFF000000000000
FFFFFF000000000000
7FFFFE000000000000
7FFFFE000000000000
3FFFFE000000000000
1FFFFC000000000000
0FFFFC000000000000
03FFF8000000000000
00FFF0000000000000
003FE0000000000000
000FC0000000000000
ENDCHAR
STARTCHAR 0030
ENCODING 48
SWIDTH 638 0
DWIDTH 115 0
BBX 91 120 11 0
BITMAP
0000000003FFFC0000000000
00000000FFFFFFE000000000
0000000FFFFFFFFE00000000
0000003FFFFFFFFFC0000000
000001FFFFFFFFFFF0000000
000003FFFFFFFFFFFC000000
00000FFFFFFFFFFFFE000000
00003FFFFFFFFFFFFF800000
00007FFFFFFFFFFFFFC00000
0000FFFFFFFFFFFFFFE00000
0001FFFFFFFFFFFFFFF00000
0003FFFFFFFFFFFFFFF80000
0007FFFFFFFFFFFFFFFC0000
000FFFFFFFFFFFFFFFFE0000
001FFFFFFFFFFFFFFFFF0000
003FFFFFFFFFFFFFFFFF8000
003FFFFFFFFFFFFFFFFF8000
007FFFFFFFFFFFFFFFFFC000
00FFFFFFFFFFFFFFFFFFE000
00FFFFFFFFFFFFFFFFFFE000
01FFFFFFFFFFFFFFFFFFF000
01FFFFFFFFFFFFFFFFFFF000
03FFFFFFFFFFFFFFFFFFF800
03FFFFFFFFFFFFFFFFFFF800
03FFFFFFFC0007FFFFFFFC00
07FFFFFFF00001FFFFFFFC00
07FFFFFFC000007FFFFFFC00
0FFFFFFF8000003FFFFFFE00
0FFFFFFF0000001FFFFFFE00
0FFFFFFE0000000FFFFFFE00
1FFFFFFE0000000FFFFFFF00
1FFFFFFC00000007FFFFFF00
1FFFFFFC00000007FFFFFF00
1FFFFFF800000003FFFFFF00
3FFFFFF800000003FFFFFF80
3FFFFFF800000003FFFFFF80
3FFFFFF800000003FFFFFF80
3FFFFFF000000001FFFFFF80
3FFFFFF000000001FFFFFF80
3FFFFFF000000001FFFFFFC0
7FFFFFF000000001FFFFFFC0
7FFFFFF000000001FFFFFFC0
7FFFFFF000000001FFFFFFC0
7FFFFFF000000001FFFFFFC0
7FFFFFF000000000FFFFFFC0
7FFFFFE000000000FFFFFFC0
7FFFFFE000000000FFFFFFE0
7FFFFFE000000000FFFFFFE0
FFFFFFE000000000FFFFFFE0
FFFFFFE000000000FFFFFFE0
FFFFFFE000000000FFFFFFE0
FFFFFFE000000000FFFFFFE0
FFFFFFE000000000FFFFFFE0
FFFFFFE000000000FFFFFFE0
FFFFFFE000000000FFFFFFE0
FFFFFFE000000000FFFFFFE0
FFFFFFE000000000FFFFFFE0
FFFFFFE000000000FFFFFFE0
FFFFFFE000000000FFFFFFE0
FFFFFFE000000000FFFFFFE0
FFFFFFE000000000FFFFFFE0
FFFFFFE000000000FFFFFFE0
FFFFFFE000000000FFFFFFE0
FFFFFFE000000000FFFFFFE0
FFFFFFE000000000FFFFFFE0
FFFFFFE000000000FFFFFFE0
FFFFFFE000000000FFFFFFE0
FFFFFFE000000000FFFFFFE0
FFFFFFE000000000FFFFFFE0
FFFFFFE000000000FFFFFFE0
FFFFFFE000000000FFFFFFE0
FFFFFFE000000000FFFFFFE0
7FFFFFE000000000FFFFFFE0
7FFFFFE000000000FFFFFFC0
7FFFFFE000000000FFFFFFC0
7FFFFFF000000000FFFFFFC0
7FFFFFF000000001FFFFFFC0
7FFFFFF000000001FFFFFFC0
7FFFFFF000000001FFFFFFC0
7FFFFFF000000001FFFFFFC0
7FFFFFF000000001FFFFFFC0
3FFFFFF000000001FFFFFF80
3FFFFFF000000001FFFFFF80
3FFFFFF800000003FFFFFF80
3FFFFFF800000003FFFFFF80
3FFFFFF800000003FFFFFF80
1FFFFFF800000003FFFFFF00
1FFFFFFC00000007FFFFFF00
1FFFFFFC00000007FFFFFF00
1FFFFFFE0000000FFFFFFF00
0FFFFFFE0000000FFFFFFE00
0FFFFFFF0000001FFFFFFE00
0FFFFFFF8000003FFFFFFE00
07FFFFFFC000007FFFFFFC00
07FFFFFFF00001FFFFFFFC00
07FFFFFFFE0007FFFFFFF800
03FFFFFFFFFFFFFFFFFFF800
03FFFFFFFFFFFFFFFFFFF800
01FFFFFFFFFFFFFFFFFFF000
01FFFFFFFFFFFFFFFFFFF000
00FFFFFFFFFFFFFFFFFFE000
00FFFFFFFFFFFFFFFFFFE000
007FFFFFFFFFFFFFFFFFC000
003FFFFFFFFFFFFFFFFF8000
003FFFFFFFFFFFFFFFFF8000
001FFFFFFFFFFFFFFFFF0000
000FFFFFFFFFFFFFFFFE0000
0007FFFFFFFFFFFFFFFC0000
0003FFFFFFFFFFFFFFF80000
0001FFFFFFFFFFFFFFF00000
0000FFFFFFFFFFFFFFE00000
00007FFFFFFFFFFFFFC00000
00003FFFFFFFFFFFFF800000
00000FFFFFFFFFFFFE000000
000007FFFFFFFFFFF8000000
000001FFFFFFFFFFF0000000
0000003FFFFFFFFF80000000
0000000FFFFFFFFE00000000
00000000FFFFFFE000000000
0000000007FFF80000000000
ENDCHAR
STARTCHAR 0031
ENCODING 49
SWIDTH 616 0
DWIDTH 111 0
BBX 46 120 26 0
BITMAP
00000001FF00
0000003FFFC0
000001FFFFF0
00000FFFFFF0
00003FFFFFF8
0001FFFFFFF8
0007FFFFFFFC
001FFFFFFFFC
00FFFFFFFFFC
03FFFFFFFFFC
0FFFFFFFFFFC
1FFFFFFFFFFC
3FFFFFFFFFFC
3FFFFFFFFFFC
7FFFFFFFFFFC
7FFFFFFFFFFC
7FFFFFFFFFFC
7FFFFFFFFFFC
FFFFFFFFFFFC
7FFFFFFFFFFC
7FFFFFFFFFFC
7FFFFFFFFFFC
7FFFFFFFFFFC
7FFFFFFFFFFC
7FFFFFFFFFFC
7FFFFFFFFFFC
3FFFFFFFFFFC
3FFFFFFFFFFC
1FFF1FFFFFFC
0FFC1FFFFFFC
07E01FFFFFFC
00001FFFFFFC
00001FFFFFFC
00001FFFFFFC
00001FFFFFFC
00001FFFFFFC
00001FFFFFFC
00001FFFFFFC
00001FFFFFFC
00001FFFFFFC
00001FFFFFFC
00001FFFFFFC
00001FFFFFFC
00001FFFFFFC
00001FFFFFFC
00001FFFFFFC
00001FFFFFFC
00001FFFFFFC
00001FFFFFFC
00001FFFFFFC
00001FFFFFFC
00001FFFFFFC
00001FFFFFFC
00001FFFFFFC
00001FFFFFFC
00001FFFFFFC
00001FFFFFFC
00001FFFFFFC
00001FFFFFFC
00001FFFFFFC
00001FFFFFFC
00001FFFFFFC
00001FFFFFFC
00001FFFFFFC
00001FFFFFFC
00001FFFFFFC
00001FFFFFFC
00001FFFFFFC
00001FFFFFFC
00001FFFFFFC
00001FFFFFFC
00001FFFFFFC
00001FFFFFFC
00001FFFFFFC
00001FFFFFFC
00001FFFFFFC
00001FFFFFFC
00001FFFFFFC
00001FFFFFFC
00001FFFFFFC
00001FFFFFFC
00001FFFFFFC
00001FFFFFFC
00001FFFFFFC
00001FFFFFFC
00001FFFFFFC
00001FFFFFFC
00001FFFFFFC
00001FFFFFFC
00001FFFFFFC
00001FFFFFFC
00001FFFFFFC
00001FFFFFFC
00001FFFFFFC
00001FFFFFFC
00001FFFFFFC
00001FFFFFFC
00001FFFFFFC
00001FFFFFFC
00001FFFFFFC
00001FFFFFFC
00001FFFFFFC
00001FFFFFFC
00001FFFFFFC
00001FFFFFFC
00001FFFFFFC
00001FFFFFFC
00001FFFFFFC
00001FFFFFFC
00001FFFFFFC
00001FFFFFFC
00001FFFFFFC
00001FFFFFFC
00001FFFFFFC
00000FFFFFF8
00000FFFFFF8
00000FFFFFF8
000007FFFFF0
000003FFFFE0
0000007FFF00
ENDCHAR
STARTCHAR 0032
ENCODING 50
SWIDTH 633 0
DWIDTH 114 0
BBX 82 120 10 0
BITMAP
00000001FFFFF000000000
000007FFFFFFFFC0000000
0003FFFFFFFFFFFC000000
001FFFFFFFFFFFFF800000
003FFFFFFFFFFFFFE00000
007FFFFFFFFFFFFFF80000
00FFFFFFFFFFFFFFFE0000
01FFFFFFFFFFFFFFFF0000
01FFFFFFFFFFFFFFFF8000
01FFFFFFFFFFFFFFFFC000
01FFFFFFFFFFFFFFFFE000
01FFFFFFFFFFFFFFFFF000
01FFFFFFFFFFFFFFFFF800
01FFFFFFFFFFFFFFFFFC00
01FFFFFFFFFFFFFFFFFC00
01FFFFFFFFFFFFFFFFFE00
00FFFFFFFFFFFFFFFFFE00
00FFFFFFFFFFFFFFFFFF00
00FFFFFFFFFFFFFFFFFF00
00FFFFFFFFFFFFFFFFFF80
007FFFFFFFFFFFFFFFFF80
003FFFFFFFFFFFFFFFFF80
001FFFFFFFFFFFFFFFFF80
00000000000FFFFFFFFFC0
0000000000001FFFFFFFC0
0000000000000FFFFFFFC0
00000000000007FFFFFFC0
00000000000007FFFFFFC0
00000000000003FFFFFFC0
00000000000003FFFFFFC0
00000000000003FFFFFFC0
00000000000003FFFFFFC0
00000000000003FFFFFFC0
00000000000003FFFFFFC0
00000000000003FFFFFFC0
00000000000003FFFFFFC0
00000000000003FFFFFFC0
00000000000003FFFFFF80
00000000000007FFFFFF80
00000000000007FFFFFF80
00000000000007FFFFFF80
0000000000000FFFFFFF80
0000000000000FFFFFFF00
0000000000001FFFFFFF00
0000000000001FFFFFFF00
0000000000003FFFFFFE00
0000000000003FFFFFFE00
0000000000007FFFFFFE00
000000000000FFFFFFFC00
000000000000FFFFFFFC00
000000000001FFFFFFFC00
000000000003FFFFFFF800
000000000003FFFFFFF800
000000000007FFFFFFF000
00000000000FFFFFFFF000
00000000001FFFFFFFE000
00000000003FFFFFFFC000
00000000007FFFFFFFC000
0000000000FFFFFFFF8000
0000000000FFFFFFFF0000
0000000001FFFFFFFF0000
0000000003FFFFFFFE0000
0000000007FFFFFFFC0000
000000000FFFFFFFFC0000
000000001FFFFFFFF80000
000000003FFFFFFFF00000
000000007FFFFFFFE00000
00000000FFFFFFFFC00000
00000001FFFFFFFFC00000
00000003FFFFFFFF800000
00000007FFFFFFFF000000
0000000FFFFFFFFE000000
0000001FFFFFFFFC000000
0000003FFFFFFFF8000000
0000007FFFFFFFF0000000
000000FFFFFFFFE0000000
000001FFFFFFFFC0000000
000003FFFFFFFF80000000
00000FFFFFFFFF00000000
00001FFFFFFFFE00000000
00003FFFFFFFFC00000000
00007FFFFFFFF800000000
0000FFFFFFFFE000000000
0001FFFFFFFFC000000000
0003FFFFFFFF8000000000
0007FFFFFFFF0000000000
000FFFFFFFFE0000000000
001FFFFFFFFC0000000000
003FFFFFFFF80000000000
007FFFFFFFE00000000000
00FFFFFFFFC00000000000
01FFFFFFFF800000000000
03FFFFFFFF000000000000
07FFFFFFFE000000000000
07FFFFFFFC000000000000
0FFFFFFFF0000000000000
1FFFFFFFFFFFFFFFFFF000
3FFFFFFFFFFFFFFFFFFE00
3FFFFFFFFFFFFFFFFFFF00
7FFFFFFFFFFFFFFFFFFF00
7FFFFFFFFFFFFFFFFFFF80
7FFFFFFFFFFFFFFFFFFF80
FFFFFFFFFFFFFFFFFFFFC0
FFFFFFFFFFFFFFFFFFFFC0
FFFFFFFFFFFFFFFFFFFFC0
FFFFFFFFFFFFFFFFFFFFC0
FFFFFFFFFFFFFFFFFFFFC0
FFFFFFFFFFFFFFFFFFFFC0
FFFFFFFFFFFFFFFFFFFFC0
FFFFFFFFFFFFFFFFFFFFC0
FFFFFFFFFFFFFFFFFFFFC0
FFFFFFFFFFFFFFFFFFFFC0
FFFFFFFFFFFFFFFFFFFFC0
7FFFFFFFFFFFFFFFFFFFC0
7FFFFFFFFFFFFFFFFFFF80
7FFFFFFFFFFFFFFFFFFF80
3FFFFFFFFFFFFFFFFFFF00
3FFFFFFFFFFFFFFFFFFF00
1FFFFFFFFFFFFFFFFFFC00
07FFFFFFFFFFFFFFFFF000
ENDCHAR
STARTCHAR 0033
ENCODING 51
SWIDTH 633 0
DWIDTH 114 0
BBX 77 120 13 0
BITMAP
00000FFFFFFC00000000
000FFFFFFFFFF8000000
007FFFFFFFFFFF800000
00FFFFFFFFFFFFF00000
01FFFFFFFFFFFFFC0000
01FFFFFFFFFFFFFF0000
03FFFFFFFFFFFFFF8000
03FFFFFFFFFFFFFFE000
03FFFFFFFFFFFFFFF000
03FFFFFFFFFFFFFFF800
03FFFFFFFFFFFFFFFC00
03FFFFFFFFFFFFFFFE00
03FFFFFFFFFFFFFFFF00
03FFFFFFFFFFFFFFFF00
03FFFFFFFFFFFFFFFF80
01FFFFFFFFFFFFFFFFC0
01FFFFFFFFFFFFFFFFC0
01FFFFFFFFFFFFFFFFC0
01FFFFFFFFFFFFFFFFE0
00FFFFFFFFFFFFFFFFE0
00FFFFFFFFFFFFFFFFF0
007FFFFFFFFFFFFFFFF0
001FFFFFFFFFFFFFFFF0
00000000000FFFFFFFF0
000000000001FFFFFFF0
0000000000007FFFFFF8
0000000000007FFFFFF8
0000000000003FFFFFF8
0000000000003FFFFFF8
0000000000001FFFFFF8
0000000000001FFFFFF8
0000000000001FFFFFF8
0000000000001FFFFFF8
0000000000001FFFFFF8
0000000000001FFFFFF8
0000000000001FFFFFF8
0000000000001FFFFFF8
0000000000001FFFFFF8
0000000000001FFFFFF8
0000000000001FFFFFF0
0000000000001FFFFFF0
0000000000003FFFFFF0
0000000000003FFFFFF0
0000000000003FFFFFF0
0000000000007FFFFFE0
000000000000FFFFFFE0
000000000001FFFFFFE0
000000000003FFFFFFC0
00000000001FFFFFFFC0
0000FFFFFFFFFFFFFF80
0003FFFFFFFFFFFFFF80
0007FFFFFFFFFFFFFF00
0007FFFFFFFFFFFFFE00
000FFFFFFFFFFFFFFE00
000FFFFFFFFFFFFFFC00
000FFFFFFFFFFFFFF800
000FFFFFFFFFFFFFF800
000FFFFFFFFFFFFFFC00
000FFFFFFFFFFFFFFE00
000FFFFFFFFFFFFFFF00
000FFFFFFFFFFFFFFF00
000FFFFFFFFFFFFFFF80
000FFFFFFFFFFFFFFFC0
000FFFFFFFFFFFFFFFC0
000FFFFFFFFFFFFFFFC0
000FFFFFFFFFFFFFFFE0
000FFFFFFFFFFFFFFFE0
000FFFFFFFFFFFFFFFE0
0007FFFFFFFFFFFFFFF0
0003FFFFFFFFFFFFFFF0
0000FFFFFFFFFFFFFFF0
000000000007FFFFFFF0
000000000001FFFFFFF0
0000000000007FFFFFF8
0000000000007FFFFFF8
0000000000003FFFFFF8
0000000000003FFFFFF8
0000000000001FFFFFF8
0000000000001FFFFFF8
0000000000001FFFFFF8
0000000000001FFFFFF8
0000000000001FFFFFF8
0000000000001FFFFFF8
0000000000001FFFFFF8
0000000000001FFFFFF8
0000000000001FFFFFF8
0000000000001FFFFFF8
0000000000001FFFFFF8
0000000000001FFFFFF8
0000000000003FFFFFF8
00E0000000003FFFFFF8
07FE000000007FFFFFF0
0FFFC00000007FFFFFF0
0FFFF8000000FFFFFFF0
1FFFFF800001FFFFFFF0
1FFFFFFC000FFFFFFFF0
3FFFFFFFFFFFFFFFFFE0
3FFFFFFFFFFFFFFFFFE0
3FFFFFFFFFFFFFFFFFE0
7FFFFFFFFFFFFFFFFFC0
7FFFFFFFFFFFFFFFFFC0
7FFFFFFFFFFFFFFFFFC0
FFFFFFFFFFFFFFFFFF80
FFFFFFFFFFFFFFFFFF80
FFFFFFFFFFFFFFFFFF00
FFFFFFFFFFFFFFFFFF00
FFFFFFFFFFFFFFFFFE00
FFFFFFFFFFFFFFFFFC00
FFFFFFFFFFFFFFFFF800
FFFFFFFFFFFFFFFFF800
FFFFFFFFFFFFFFFFF000
7FFFFFFFFFFFFFFFE000
7FFFFFFFFFFFFFFF8000
3FFFFFFFFFFFFFFF0000
0FFFFFFFFFFFFFFC0000
03FFFFFFFFFFFFF80000
00FFFFFFFFFFFFC00000
001FFFFFFFFFFF000000
0000FFFFFFFFF0000000
000000FFFFFE00000000
ENDCHAR
STARTCHAR 0034
ENCODING 52
SWIDTH 638 0
DWIDTH 115 0
BBX 90 120 8 0
BITMAP
000000000000007FFF000000
00000000000001FFFFC00000
00000000000003FFFFF00000
00000000000007FFFFF00000
0000000000000FFFFFF80000
0000000000001FFFFFF80000
0000000000003FFFFFFC0000
0000000000007FFFFFFC0000
0000000000007FFFFFFC0000
000000000000FFFFFFFC0000
000000000001FFFFFFFC0000
000000000003FFFFFFFC0000
000000000003FFFFFFFC0000
000000000007FFFFFFFC0000
00000000000FFFFFFFFC0000
00000000001FFFFFFFFC0000
00000000003FFFFFFFFC0000
00000000003FFFFFFFFC0000
00000000007FFFFFFFFC0000
0000000000FFFFFFFFFC0000
0000000001FFFFFFFFFC0000
0000000001FFFFFFFFFC0000
0000000003FFFFFFFFFC0000
0000000007FFFFFFFFFC0000
000000000FFFFFFFFFFC0000
000000001FFFFFFFFFFC0000
000000001FFFFFFFFFFC0000
000000003FFFFFFFFFFC0000
000000007FFFFFFFFFFC0000
00000000FFFFFFFFFFFC0000
00000000FFFFFFFFFFFC0000
00000001FFFFFFFFFFFC0000
00000003FFFFFFFFFFFC0000
00000007FFFFFFFFFFFC0000
0000000FFFFFFFFFFFFC0000
0000000FFFFFFFFFFFFC0000
0000001FFFFFFFFFFFFC0000
0000003FFFFFFFFFFFFC0000
0000007FFFFFF7FFFFFC0000
0000007FFFFFF7FFFFFC0000
000000FFFFFFE7FFFFFC0000
000001FFFFFFC7FFFFFC0000
000003FFFFFF87FFFFFC0000
000007FFFFFF07FFFFFC0000
000007FFFFFF07FFFFFC0000
00000FFFFFFE07FFFFFC0000
00001FFFFFFC07FFFFFC0000
00003FFFFFF807FFFFFC0000
00003FFFFFF007FFFFFC0000
00007FFFFFF007FFFFFC0000
0000FFFFFFE007FFFFFC0000
0001FFFFFFC007FFFFFC0000
0003FFFFFF8007FFFFFC0000
0003FFFFFF8007FFFFFC0000
0007FFFFFF0007FFFFFC0000
000FFFFFFE0007FFFFFC0000
001FFFFFFC0007FFFFFC0000
001FFFFFF80007FFFFFC0000
003FFFFFF80007FFFFFC0000
007FFFFFF00007FFFFFC0000
00FFFFFFE00007FFFFFC0000
01FFFFFFC00007FFFFFC0000
01FFFFFF800007FFFFFC0000
03FFFFFF800007FFFFFC0000
07FFFFFF000007FFFFFC0000
0FFFFFFE000007FFFFFC0000
0FFFFFFC000007FFFFFC0000
1FFFFFFC000007FFFFFC0000
3FFFFFFFFFFFFFFFFFFFF800
3FFFFFFFFFFFFFFFFFFFFF00
7FFFFFFFFFFFFFFFFFFFFF80
7FFFFFFFFFFFFFFFFFFFFF80
7FFFFFFFFFFFFFFFFFFFFFC0
FFFFFFFFFFFFFFFFFFFFFFC0
FFFFFFFFFFFFFFFFFFFFFFC0
FFFFFFFFFFFFFFFFFFFFFFC0
FFFFFFFFFFFFFFFFFFFFFFC0
FFFFFFFFFFFFFFFFFFFFFFC0
FFFFFFFFFFFFFFFFFFFFFFC0
7FFFFFFFFFFFFFFFFFFFFFC0
7FFFFFFFFFFFFFFFFFFFFFC0
7FFFFFFFFFFFFFFFFFFFFFC0
7FFFFFFFFFFFFFFFFFFFFFC0
3FFFFFFFFFFFFFFFFFFFFFC0
3FFFFFFFFFFFFFFFFFFFFFC0
3FFFFFFFFFFFFFFFFFFFFFC0
1FFFFFFFFFFFFFFFFFFFFFC0
1FFFFFFFFFFFFFFFFFFFFF80
0FFFFFFFFFFFFFFFFFFFFF80
07FFFFFFFFFFFFFFFFFFFF00
03FFFFFFFFFFFFFFFFFFFE00
00FFFFFFFFFFFFFFFFFFF000
00000000000007FFFFFC0000
00000000000007FFFFFC0000
00000000000007FFFFFC0000
00000000000007FFFFFC0000
00000000000007FFFFFC0000
00000000000007FFFFFC0000
00000000000007FFFFFC0000
00000000000007FFFFFC0000
00000000000007FFFFFC0000
00000000000007FFFFFC0000
00000000000007FFFFFC0000
00000000000007FFFFFC0000
00000000000007FFFFFC0000
00000000000007FFFFFC0000
00000000000007FFFFFC0000
00000000000007FFFFFC0000
00000000000007FFFFFC0000
00000000000007FFFFFC0000
00000000000007FFFFFC0000
00000000000007FFFFFC0000
00000000000007FFFFFC0000
00000000000007FFFFFC0000
00000000000003FFFFFC0000
00000000000003FFFFF80000
00000000000003FFFFF80000
00000000000001FFFFF00000
00000000000000FFFFE00000
000000000000001FFF000000
ENDCHAR
STARTCHAR 0035
ENCODING 53
SWIDTH 633 0
DWIDTH 114 0
BBX 80 120 16 0
BITMAP
0000FFFFFFFFFFFFFFC0
0007FFFFFFFFFFFFFFF8
000FFFFFFFFFFFFFFFFC
001FFFFFFFFFFFFFFFFE
001FFFFFFFFFFFFFFFFE
003FFFFFFFFFFFFFFFFE
003FFFFFFFFFFFFFFFFF
003FFFFFFFFFFFFFFFFF
003FFFFFFFFFFFFFFFFF
007FFFFFFFFFFFFFFFFF
007FFFFFFFFFFFFFFFFF
007FFFFFFFFFFFFFFFFF
007FFFFFFFFFFFFFFFFF
007FFFFFFFFFFFFFFFFF
007FFFFFFFFFFFFFFFFF
007FFFFFFFFFFFFFFFFF
007FFFFFFFFFFFFFFFFF
007FFFFFFFFFFFFFFFFF
007FFFFFFFFFFFFFFFFE
007FFFFFFFFFFFFFFFFE
007FFFFFFFFFFFFFFFFC
00FFFFFFFFFFFFFFFFFC
00FFFFFFFFFFFFFFFFF0
00FFFFFFFFFFFFFFFFC0
00FFFFFF800000000000
00FFFFFF800000000000
00FFFFFF800000000000
00FFFFFF800000000000
00FFFFFF800000000000
00FFFFFF800000000000
00FFFFFF800000000000
00FFFFFF800000000000
00FFFFFF000000000000
01FFFFFF000000000000
01FFFFFF000000000000
01FFFFFF000000000000
01FFFFFF000000000000
01FFFFFF000000000000
01FFFFFF000000000000
01FFFFFF000000000000
01FFFFFF000000000000
01FFFFFFFFFF00000000
01FFFFFFFFFFFF000000
01FFFFFFFFFFFFF00000
01FFFFFFFFFFFFFC0000
03FFFFFFFFFFFFFF0000
03FFFFFFFFFFFFFFC000
03FFFFFFFFFFFFFFE000
03FFFFFFFFFFFFFFF800
03FFFFFFFFFFFFFFFC00
03FFFFFFFFFFFFFFFE00
03FFFFFFFFFFFFFFFF00
03FFFFFFFFFFFFFFFF00
03FFFFFFFFFFFFFFFF80
03FFFFFFFFFFFFFFFFC0
03FFFFFFFFFFFFFFFFC0
03FFFFFFFFFFFFFFFFE0
03FFFFFFFFFFFFFFFFE0
03FFFFFFFFFFFFFFFFF0
03FFFFFFFFFFFFFFFFF0
03FFFFFFFFFFFFFFFFF8
03FFFFFFFFFFFFFFFFF8
01FFFFFFFFFFFFFFFFF8
00FFFFFFFFFFFFFFFFFC
007FFF000003FFFFFFFC
000F000000007FFFFFFC
0000000000003FFFFFFE
0000000000001FFFFFFE
0000000000001FFFFFFE
0000000000001FFFFFFE
0000000000000FFFFFFE
0000000000000FFFFFFE
0000000000000FFFFFFF
0000000000000FFFFFFF
00000000000007FFFFFF
00000000000007FFFFFF
00000000000007FFFFFF
00000000000007FFFFFF
00000000000007FFFFFF
00000000000007FFFFFF
00000000000007FFFFFF
00000000000007FFFFFF
00000000000007FFFFFF
00000000000007FFFFFF
00000000000007FFFFFF
00000000000007FFFFFF
0000000000000FFFFFFF
0000000000000FFFFFFF
0000000000000FFFFFFE
0000000000001FFFFFFE
0000000000001FFFFFFE
01FC000000003FFFFFFE
07FFC00000007FFFFFFE
0FFFF8000000FFFFFFFC
0FFFFF800001FFFFFFFC
1FFFFFF80007FFFFFFFC
1FFFFFFFFDFFFFFFFFF8
3FFFFFFFFFFFFFFFFFF8
3FFFFFFFFFFFFFFFFFF8
3FFFFFFFFFFFFFFFFFF0
7FFFFFFFFFFFFFFFFFF0
7FFFFFFFFFFFFFFFFFE0
7FFFFFFFFFFFFFFFFFE0
7FFFFFFFFFFFFFFFFFC0
7FFFFFFFFFFFFFFFFF80
7FFFFFFFFFFFFFFFFF80
FFFFFFFFFFFFFFFFFF00
FFFFFFFFFFFFFFFFFE00
7FFFFFFFFFFFFFFFFC00
7FFFFFFFFFFFFFFFF800
7FFFFFFFFFFFFFFFF000
3FFFFFFFFFFFFFFFE000
3FFFFFFFFFFFFFFFC000
0FFFFFFFFFFFFFFF0000
03FFFFFFFFFFFFFE0000
00FFFFFFFFFFFFF80000
000FFFFFFFFFFFC00000
0000FFFFFFFFFF000000
000003FFFFFFF0000000
00000003FFFC00000000
ENDCHAR
STARTCHAR 0036
ENCODING 54
SWIDTH 638 0
DWIDTH 115 0
BBX 86 120 14 0
BITMAP
0000000003FFFFFFFFC000
00000001FFFFFFFFFFF000
0000001FFFFFFFFFFFF800
000000FFFFFFFFFFFFFC00
000007FFFFFFFFFFFFFE00
00000FFFFFFFFFFFFFFE00
00003FFFFFFFFFFFFFFE00
0000FFFFFFFFFFFFFFFE00
0001FFFFFFFFFFFFFFFE00
0003FFFFFFFFFFFFFFFE00
0007FFFFFFFFFFFFFFFE00
000FFFFFFFFFFFFFFFFE00
001FFFFFFFFFFFFFFFFE00
003FFFFFFFFFFFFFFFFE00
007FFFFFFFFFFFFFFFFE00
007FFFFFFFFFFFFFFFFE00
00FFFFFFFFFFFFFFFFFE00
00FFFFFFFFFFFFFFFFFE00
01FFFFFFFFFFFFFFFFFE00
01FFFFFFFFFFFFFFFFFC00
03FFFFFFFFFFFFFFFFF800
03FFFFFFFFFFFFFFFFE000
07FFFFFFFC000000000000
07FFFFFFE0000000000000
07FFFFFFC0000000000000
0FFFFFFF80000000000000
0FFFFFFF00000000000000
0FFFFFFF00000000000000
0FFFFFFE00000000000000
1FFFFFFE00000000000000
1FFFFFFE00000000000000
1FFFFFFC00000000000000
1FFFFFFC00000000000000
1FFFFFFC00000000000000
3FFFFFFC00000000000000
3FFFFFF800000000000000
3FFFFFF800000000000000
3FFFFFF800000000000000
3FFFFFF800000000000000
3FFFFFF800000000000000
7FFFFFF800000000000000
7FFFFFF000000000000000
7FFFFFF001FFFF80000000
7FFFFFF0FFFFFFFC000000
7FFFFFFFFFFFFFFFC00000
7FFFFFFFFFFFFFFFF00000
7FFFFFFFFFFFFFFFFE0000
7FFFFFFFFFFFFFFFFF0000
7FFFFFFFFFFFFFFFFFC000
7FFFFFFFFFFFFFFFFFE000
7FFFFFFFFFFFFFFFFFF000
FFFFFFFFFFFFFFFFFFF800
FFFFFFFFFFFFFFFFFFFC00
FFFFFFFFFFFFFFFFFFFE00
FFFFFFFFFFFFFFFFFFFF00
FFFFFFFFFFFFFFFFFFFF00
FFFFFFFFFFFFFFFFFFFF80
FFFFFFFFFFFFFFFFFFFF80
FFFFFFFFFFFFFFFFFFFFC0
FFFFFFFFFFFFFFFFFFFFC0
FFFFFFFFFFFFFFFFFFFFE0
FFFFFFFFFFFFFFFFFFFFE0
FFFFFFFFFFFFFFFFFFFFF0
FFFFFFFFFFFFFFFFFFFFF0
FFFFFFFFFFFFFFFFFFFFF0
FFFFFFFFFE000FFFFFFFF0
FFFFFFFF000001FFFFFFF8
FFFFFFF0000000FFFFFFF8
FFFFFFE00000007FFFFFF8
FFFFFFE00000007FFFFFF8
FFFFFFE00000003FFFFFF8
FFFFFFE00000003FFFFFFC
FFFFFFE00000001FFFFFFC
FFFFFFE00000001FFFFFFC
FFFFFFE00000001FFFFFFC
FFFFFFE00000001FFFFFFC
FFFFFFE00000001FFFFFFC
FFFFFFE00000001FFFFFFC
FFFFFFE00000001FFFFFFC
FFFFFFE00000001FFFFFFC
FFFFFFE00000001FFFFFFC
FFFFFFE00000001FFFFFFC
FFFFFFE00000001FFFFFFC
FFFFFFE00000001FFFFFFC
FFFFFFE00000001FFFFFFC
FFFFFFE00000001FFFFFFC
FFFFFFF00000001FFFFFFC
FFFFFFF00000001FFFFFFC
FFFFFFF00000003FFFFFFC
7FFFFFF00000003FFFFFF8
7FFFFFF80000003FFFFFF8
7FFFFFF80000007FFFFFF8
7FFFFFFC0000007FFFFFF8
7FFFFFFE000000FFFFFFF8
7FFFFFFF000003FFFFFFF0
7FFFFFFFE0000FFFFFFFF0
3FFFFFFFFFF7FFFFFFFFF0
3FFFFFFFFFFFFFFFFFFFE0
3FFFFFFFFFFFFFFFFFFFE0
1FFFFFFFFFFFFFFFFFFFE0
1FFFFFFFFFFFFFFFFFFFC0
1FFFFFFFFFFFFFFFFFFFC0
0FFFFFFFFFFFFFFFFFFF80
0FFFFFFFFFFFFFFFFFFF80
07FFFFFFFFFFFFFFFFFF00
03FFFFFFFFFFFFFFFFFE00
03FFFFFFFFFFFFFFFFFC00
01FFFFFFFFFFFFFFFFFC00
00FFFFFFFFFFFFFFFFF800
007FFFFFFFFFFFFFFFF000
003FFFFFFFFFFFFFFFE000
001FFFFFFFFFFFFFFF8000
000FFFFFFFFFFFFFFF0000
0003FFFFFFFFFFFFFC0000
0000FFFFFFFFFFFFF80000
00003FFFFFFFFFFFE00000
00000FFFFFFFFFFF000000
000001FFFFFFFFF8000000
0000003FFFFFFF80000000
00000000FFFFE000000000
ENDCHAR
STARTCHAR 0037
ENCODING 55
SWIDTH 633 0
DWIDTH 114 0
BBX 79 120 17 0
BITMAP
03FFFFFFFFFFFFFFFF00
0FFFFFFFFFFFFFFFFFE0
3FFFFFFFFFFFFFFFFFF8
3FFFFFFFFFFFFFFFFFFC
7FFFFFFFFFFFFFFFFFFC
7FFFFFFFFFFFFFFFFFFE
7FFFFFFFFFFFFFFFFFFE
FFFFFFFFFFFFFFFFFFFE
FFFFFFFFFFFFFFFFFFFE
FFFFFFFFFFFFFFFFFFFE
FFFFFFFFFFFFFFFFFFFE
FFFFFFFFFFFFFFFFFFFE
FFFFFFFFFFFFFFFFFFFE
FFFFFFFFFFFFFFFFFFFC
FFFFFFFFFFFFFFFFFFFC
FFFFFFFFFFFFFFFFFFF8
7FFFFFFFFFFFFFFFFFF8
7FFFFFFFFFFFFFFFFFF8
7FFFFFFFFFFFFFFFFFF0
7FFFFFFFFFFFFFFFFFF0
3FFFFFFFFFFFFFFFFFE0
3FFFFFFFFFFFFFFFFFE0
0FFFFFFFFFFFFFFFFFC0
03FFFFFFFFFFFFFFFFC0
000000000003FFFFFFC0
000000000007FFFFFF80
000000000007FFFFFF80
000000000007FFFFFF00
00000000000FFFFFFF00
00000000000FFFFFFE00
00000000001FFFFFFE00
00000000001FFFFFFE00
00000000003FFFFFFC00
00000000003FFFFFFC00
00000000003FFFFFF800
00000000007FFFFFF800
00000000007FFFFFF000
0000000000FFFFFFF000
0000000000FFFFFFF000
0000000001FFFFFFE000
0000000001FFFFFFE000
0000000003FFFFFFC000
0000000003FFFFFFC000
0000000003FFFFFF8000
0000000007FFFFFF8000
0000000007FFFFFF0000
000000000FFFFFFF0000
000000000FFFFFFF0000
000000001FFFFFFE0000
000000001FFFFFFE0000
000000001FFFFFFC0000
000000003FFFFFFC0000
000000003FFFFFF80000
000000007FFFFFF80000
000000007FFFFFF80000
00000000FFFFFFF00000
00000000FFFFFFF00000
00000001FFFFFFE00000
00000001FFFFFFE00000
00000001FFFFFFC00000
00000003FFFFFFC00000
00000003FFFFFFC00000
00000007FFFFFF800000
00000007FFFFFF800000
0000000FFFFFFF000000
0000000FFFFFFF000000
0000000FFFFFFE000000
0000001FFFFFFE000000
0000001FFFFFFE000000
0000003FFFFFFC000000
0000003FFFFFFC000000
0000007FFFFFF8000000
0000007FFFFFF8000000
000000FFFFFFF0000000
000000FFFFFFF0000000
000000FFFFFFF0000000
000001FFFFFFE0000000
000001FFFFFFE0000000
000003FFFFFFC0000000
000003FFFFFFC0000000
000007FFFFFF80000000
000007FFFFFF80000000
000007FFFFFF80000000
00000FFFFFFF00000000
00000FFFFFFF00000000
00001FFFFFFE00000000
00001FFFFFFE00000000
00003FFFFFFC00000000
00003FFFFFFC00000000
00007FFFFFFC00000000
00007FFFFFF800000000
00007FFFFFF800000000
0000FFFFFFF000000000
0000FFFFFFF000000000
0001FFFFFFE000000000
0001FFFFFFE000000000
0003FFFFFFE000000000
0003FFFFFFC000000000
0003FFFFFFC000000000
0007FFFFFF8000000000
0007FFFFFF8000000000
000FFFFFFF0000000000
000FFFFFFF0000000000
001FFFFFFF0000000000
001FFFFFFE0000000000
003FFFFFFE0000000000
003FFFFFFC0000000000
003FFFFFFC0000000000
007FFFFFF80000000000
007FFFFFF80000000000
007FFFFFF00000000000
00FFFFFFF00000000000
00FFFFFFE00000000000
00FFFFFFE00000000000
00FFFFFFC00000000000
00FFFFFFC00000000000
007FFFFF800000000000
003FFFFF000000000000
001FFFFE000000000000
0007FFF0000000000000
ENDCHAR
STARTCHAR 0038
ENCODING 56
SWIDTH 638 0
DWIDTH 115 0
BBX 84 120 13 0
BITMAP
00000003FFFFFE00000000
000001FFFFFFFFFC000000
00003FFFFFFFFFFFC00000
0000FFFFFFFFFFFFF80000
0007FFFFFFFFFFFFFE0000
001FFFFFFFFFFFFFFF8000
003FFFFFFFFFFFFFFFC000
007FFFFFFFFFFFFFFFF000
00FFFFFFFFFFFFFFFFF800
01FFFFFFFFFFFFFFFFFC00
03FFFFFFFFFFFFFFFFFC00
07FFFFFFFFFFFFFFFFFE00
0FFFFFFFFFFFFFFFFFFF00
0FFFFFFFFFFFFFFFFFFF00
1FFFFFFFFFFFFFFFFFFF80
1FFFFFFFFFFFFFFFFFFF80
3FFFFFFFFFFFFFFFFFFFC0
3FFFFFFFFFFFFFFFFFFFC0
3FFFFFFFFFFFFFFFFFFFC0
7FFFFFFFFFFFFFFFFFFFE0
7FFFFFFFFFFFFFFFFFFFE0
7FFFFFFFFFFFFFFFFFFFE0
7FFFFFFF000003FFFFFFE0
7FFFFFFC000001FFFFFFF0
FFFFFFF8000000FFFFFFF0
FFFFFFF00000007FFFFFF0
FFFFFFF00000007FFFFFF0
FFFFFFE00000007FFFFFF0
FFFFFFE00000007FFFFFF0
FFFFFFE00000007FFFFFF0
FFFFFFE00000007FFFFFF0
FFFFFFE00000007FFFFFF0
FFFFFFE00000007FFFFFF0
FFFFFFE00000007FFFFFF0
FFFFFFE00000007FFFFFF0
FFFFFFE00000007FFFFFF0
FFFFFFF0000000FFFFFFF0
FFFFFFF0000000FFFFFFF0
FFFFFFF0000000FFFFFFE0
7FFFFFF8000001FFFFFFE0
7FFFFFF8000003FFFFFFE0
7FFFFFFC000007FFFFFFE0
7FFFFFFE00000FFFFFFFC0
3FFFFFFF80001FFFFFFFC0
3FFFFFFFC0007FFFFFFF80
1FFFFFFFF001FFFFFFFF80
1FFFFFFFFC07FFFFFFFF00
0FFFFFFFFF1FFFFFFFFF00
0FFFFFFFFFFFFFFFFFFE00
07FFFFFFFFFFFFFFFFFC00
03FFFFFFFFFFFFFFFFFC00
01FFFFFFFFFFFFFFFFF800
00FFFFFFFFFFFFFFFFF000
007FFFFFFFFFFFFFFFE000
003FFFFFFFFFFFFFFFC000
001FFFFFFFFFFFFFFF0000
0007FFFFFFFFFFFFFE0000
0003FFFFFFFFFFFFFC0000
0000FFFFFFFFFFFFF00000
00003FFFFFFFFFFFE00000
0000FFFFFFFFFFFFF80000
0003FFFFFFFFFFFFFE0000
0007FFFFFFFFFFFFFF0000
001FFFFFFFFFFFFFFF8000
003FFFFFFFFFFFFFFFE000
00FFFFFFFFFFFFFFFFF000
01FFFFFFFFFFFFFFFFF800
03FFFFFFFFFFFFFFFFFC00
07FFFFFFFFFFFFFFFFFE00
0FFFFFFFFFFFFFFFFFFE00
0FFFFFFFFFFFFFFFFFFF00
1FFFFFFFFFDFFFFFFFFF80
1FFFFFFFFF07FFFFFFFF80
3FFFFFFFFC01FFFFFFFFC0
3FFFFFFFF0007FFFFFFFC0
7FFFFFFFC0003FFFFFFFE0
7FFFFFFF80000FFFFFFFE0
7FFFFFFF000007FFFFFFE0
7FFFFFFC000003FFFFFFE0
FFFFFFFC000001FFFFFFF0
FFFFFFF8000001FFFFFFF0
FFFFFFF0000000FFFFFFF0
FFFFFFF0000000FFFFFFF0
FFFFFFE00000007FFFFFF0
FFFFFFE00000007FFFFFF0
FFFFFFE00000007FFFFFF0
FFFFFFE00000007FFFFFF0
FFFFFFE00000007FFFFFF0
FFFFFFE00000007FFFFFF0
FFFFFFE00000007FFFFFF0
FFFFFFE00000007FFFFFF0
FFFFFFF0000000FFFFFFF0
FFFFFFF0000000FFFFFFF0
7FFFFFF0000000FFFFFFF0
7FFFFFF8000001FFFFFFE0
7FFFFFFC000003FFFFFFE0
7FFFFFFF00000FFFFFFFE0
7FFFFFFFFFFFFFFFFFFFE0
3FFFFFFFFFFFFFFFFFFFE0
3FFFFFFFFFFFFFFFFFFFC0
3FFFFFFFFFFFFFFFFFFFC0
3FFFFFFFFFFFFFFFFFFFC0
1FFFFFFFFFFFFFFFFFFF80
1FFFFFFFFFFFFFFFFFFF80
0FFFFFFFFFFFFFFFFFFF00
0FFFFFFFFFFFFFFFFFFF00
07FFFFFFFFFFFFFFFFFE00
03FFFFFFFFFFFFFFFFFE00
03FFFFFFFFFFFFFFFFFC00
01FFFFFFFFFFFFFFFFF800
00FFFFFFFFFFFFFFFFF000
007FFFFFFFFFFFFFFFE000
001FFFFFFFFFFFFFFFC000
000FFFFFFFFFFFFFFF0000
0003FFFFFFFFFFFFFE0000
0001FFFFFFFFFFFFF80000
00003FFFFFFFFFFFE00000
000007FFFFFFFFFF000000
0000007FFFFFFFF0000000
00000001FFFFF800000000
ENDCHAR
STARTCHAR 0039
ENCODING 57
SWIDTH 638 0
DWIDTH 115 0
BBX 86 120 14 0
BITMAP
000000003FFFE000000000
0000000FFFFFFF80000000
000000FFFFFFFFF8000000
000007FFFFFFFFFF000000
00001FFFFFFFFFFFC00000
00007FFFFFFFFFFFF00000
0001FFFFFFFFFFFFFC0000
0003FFFFFFFFFFFFFE0000
000FFFFFFFFFFFFFFF0000
001FFFFFFFFFFFFFFFC000
003FFFFFFFFFFFFFFFE000
007FFFFFFFFFFFFFFFF000
00FFFFFFFFFFFFFFFFF000
01FFFFFFFFFFFFFFFFF800
01FFFFFFFFFFFFFFFFFC00
03FFFFFFFFFFFFFFFFFE00
07FFFFFFFFFFFFFFFFFE00
07FFFFFFFFFFFFFFFFFF00
0FFFFFFFFFFFFFFFFFFF00
0FFFFFFFFFFFFFFFFFFF80
1FFFFFFFFFFFFFFFFFFF80
1FFFFFFFFFFFFFFFFFFFC0
1FFFFFFFFFFFFFFFFFFFC0
3FFFFFFFE0007FFFFFFFC0
3FFFFFFF00000FFFFFFFE0
3FFFFFFE000007FFFFFFE0
7FFFFFFC000001FFFFFFE0
7FFFFFF8000001FFFFFFF0
7FFFFFF0000000FFFFFFF0
7FFFFFF00000007FFFFFF0
7FFFFFF00000007FFFFFF0
7FFFFFF00000007FFFFFF0
FFFFFFE00000007FFFFFF8
FFFFFFE00000003FFFFFF8
FFFFFFE00000003FFFFFF8
FFFFFFE00000003FFFFFF8
FFFFFFE00000003FFFFFF8
FFFFFFE00000003FFFFFF8
FFFFFFE00000003FFFFFF8
FFFFFFE00000003FFFFFF8
FFFFFFE00000003FFFFFFC
FFFFFFE00000003FFFFFFC
FFFFFFE00000003FFFFFFC
FFFFFFE00000003FFFFFFC
FFFFFFE00000003FFFFFFC
FFFFFFE00000003FFFFFFC
FFFFFFF00000003FFFFFFC
7FFFFFF00000003FFFFFFC
7FFFFFF80000003FFFFFFC
7FFFFFF8000000FFFFFFFC
7FFFFFFE00000FFFFFFFFC
7FFFFFFFC001FFFFFFFFFC
3FFFFFFFFFFFFFFFFFFFFC
3FFFFFFFFFFFFFFFFFFFFC
3FFFFFFFFFFFFFFFFFFFFC
3FFFFFFFFFFFFFFFFFFFFC
1FFFFFFFFFFFFFFFFFFFFC
1FFFFFFFFFFFFFFFFFFFFC
0FFFFFFFFFFFFFFFFFFFFC
0FFFFFFFFFFFFFFFFFFFFC
07FFFFFFFFFFFFFFFFFFFC
07FFFFFFFFFFFFFFFFFFFC
03FFFFFFFFFFFFFFFFFFFC
01FFFFFFFFFFFFFFFFFFFC
01FFFFFFFFFFFFFFFFFFFC
00FFFFFFFFFFFFFFFFFFFC
007FFFFFFFFFFFFFFFFFFC
003FFFFFFFFFFFFFFFFFFC
000FFFFFFFFFFFFFFFFFFC
0007FFFFFFFFFFFFFFFFFC
0003FFFFFFFFFFFFFFFFFC
0000FFFFFFFFFFFFFFFFFC
00003FFFFFFFFFFFFFFFFC
000007FFFFFFFFFFFFFFFC
000000FFFFFFFC3FFFFFFC
00000003FFFE003FFFFFFC
000000000000003FFFFFFC
000000000000003FFFFFFC
000000000000003FFFFFF8
000000000000003FFFFFF8
000000000000003FFFFFF8
000000000000003FFFFFF8
000000000000003FFFFFF8
000000000000003FFFFFF8
000000000000003FFFFFF8
000000000000007FFFFFF8
000000000000007FFFFFF8
000000000000007FFFFFF0
00000000000000FFFFFFF0
00000000000000FFFFFFF0
00000000000000FFFFFFF0
00000000000001FFFFFFF0
01F80000000003FFFFFFE0
07FF0000000007FFFFFFE0
0FFFE00000000FFFFFFFE0
0FFFFF0000007FFFFFFFC0
1FFFFFFF0007FFFFFFFFC0
1FFFFFFFFFFFFFFFFFFFC0
3FFFFFFFFFFFFFFFFFFF80
3FFFFFFFFFFFFFFFFFFF80
3FFFFFFFFFFFFFFFFFFF00
7FFFFFFFFFFFFFFFFFFF00
7FFFFFFFFFFFFFFFFFFE00
7FFFFFFFFFFFFFFFFFFE00
FFFFFFFFFFFFFFFFFFFC00
FFFFFFFFFFFFFFFFFFF800
FFFFFFFFFFFFFFFFFFF800
FFFFFFFFFFFFFFFFFFF000
FFFFFFFFFFFFFFFFFFE000
FFFFFFFFFFFFFFFFFFC000
FFFFFFFFFFFFFFFFFF8000
7FFFFFFFFFFFFFFFFF0000
7FFFFFFFFFFFFFFFFC0000
1FFFFFFFFFFFFFFFF80000
0FFFFFFFFFFFFFFFE00000
01FFFFFFFFFFFFFF800000
003FFFFFFFFFFFFC000000
0003FFFFFFFFFFE0000000
00001FFFFFFFFE00000000
0000000FFFFF0000000000
ENDCHAR
STARTCHAR 003A
ENCODING 58
SWIDTH 316 0
DWIDTH 57 0
BBX 35 82 11 0
BITMAP
0001F00000
0007FC0000
001FFF0000
003FFF8000
00FFFFC000
01FFFFF000
03FFFFF800
07FFFFFC00
0FFFFFFC00
1FFFFFFE00
1FFFFFFF00
3FFFFFFF80
7FFFFFFF80
7FFFFFFFC0
FFFFFFFFC0
FFFFFFFFC0
FFFFFFFFE0
FFFFFFFFE0
FFFFFFFFE0
FFFFFFFFC0
FFFFFFFFC0
7FFFFFFF80
7FFFFFFF80
3FFFFFFF00
3FFFFFFF00
1FFFFFFE00
0FFFFFFC00
07FFFFF800
03FFFFF000
01FFFFE000
00FFFFC000
003FFF8000
001FFF0000
0007FC0000
0001F00000
0000000000
0000000000
0000000000
0000000000
0000000000
0000000000
0000000000
0000000000
0000000000
0000000000
0000000000
0000000000
0001C00000
0007FC0000
001FFE0000
003FFF8000
007FFFC000
01FFFFE000
03FFFFF000
07FFFFF800
0FFFFFFC00
0FFFFFFE00
1FFFFFFF00
3FFFFFFF80
7FFFFFFF80
7FFFFFFFC0
FFFFFFFFC0
FFFFFFFFC0
FFFFFFFFE0
FFFFFFFFE0
FFFFFFFFE0
FFFFFFFFC0
FFFFFFFFC0
7FFFFFFFC0
7FFFFFFF80
3FFFFFFF00
3FFFFFFF00
1FFFFFFE00
0FFFFFFC00
07FFFFF800
03FFFFF000
01FFFFE000
00FFFFC000
007FFF8000
001FFF0000
000FFC0000
0001F00000
ENDCHAR
STARTCHAR 003B
ENCODING 59
SWIDTH 322 0
DWIDTH 58 0
BBX 41 114 6 -32
BITMAP
00000F000000
00007FE00000
0000FFF00000
0001FFFC0000
0007FFFE0000
000FFFFF0000
001FFFFF8000
003FFFFFC000
007FFFFFE000
007FFFFFF000
00FFFFFFF000
01FFFFFFF800
01FFFFFFFC00
03FFFFFFFC00
07FFFFFFFE00
07FFFFFFFE00
07FFFFFFFE00
07FFFFFFFF00
0FFFFFFFFF00
0FFFFFFFFE00
07FFFFFFFE00
07FFFFFFFE00
03FFFFFFFC00
03FFFFFFFC00
01FFFFFFF800
01FFFFFFF000
00FFFFFFF000
007FFFFFE000
003FFFFFC000
001FFFFF8000
000FFFFF0000
0007FFFE0000
0003FFFC0000
0001FFF80000
00007FE00000
00001FC00000
000000000000
000000000000
000000000000
000000000000
000000000000
000000000000
000000000000
000000000000
000000000000
000000000000
000000000000
000000000000
000000000000
00000F000000
00001FC00000
00007FE00000
0000FFF80000
0001FFFC0000
0003FFFE0000
0007FFFF0000
000FFFFF8000
001FFFFFC000
003FFFFFE000
003FFFFFF000
007FFFFFF800
00FFFFFFFC00
01FFFFFFFE00
03FFFFFFFE00
03FFFFFFFF00
07FFFFFFFF00
07FFFFFFFF00
07FFFFFFFF80
07FFFFFFFF80
07FFFFFFFF00
07FFFFFFFF00
07FFFFFFFF00
03FFFFFFFF00
01FFFFFFFE00
01FFFFFFFE00
00FFFFFFFC00
007FFFFFFC00
003FFFFFFC00
001FFFFFF800
0007FFFFF800
0007FFFFF000
000FFFFFF000
001FFFFFE000
001FFFFFE000
003FFFFFC000
003FFFFFC000
007FFFFF8000
00FFFFFF8000
00FFFFFF0000
01FFFFFF0000
03FFFFFE0000
03FFFFFE0000
07FFFFFC0000
07FFFFFC0000
0FFFFFF80000
1FFFFFF00000
1FFFFFF00000
3FFFFFE00000
3FFFFFE00000
7FFFFFC00000
7FFFFFC00000
FFFFFF800000
FFFFFF000000
FFFFFF000000
FFFFFE000000
FFFFFC000000
7FFFFC000000
7FFFF8000000
3FFFF0000000
1FFFF0000000
0FFFE0000000
07FFC0000000
01FF80000000
007E00000000
ENDCHAR
STARTCHAR 003C
ENCODING 60
SWIDTH 727 0
DWIDTH 131 0
BBX 107 98 9 8
BITMAP
0000000000000000000000000020
00000000000000000000000001E0
00000000000000000000000007E0
0000000000000000000000003FE0
000000000000000000000001FFE0
000000000000000000000007FFE0
00000000000000000000003FFFE0
0000000000000000000001FFFFE0
0000000000000000000007FFFFE0
000000000000000000003FFFFFE0
00000000000000000001FFFFFFE0
00000000000000000007FFFFFFE0
0000000000000000003FFFFFFFE0
000000000000000000FFFFFFFFE0
000000000000000007FFFFFFFFE0
00000000000000003FFFFFFFFFE0
0000000000000000FFFFFFFFFFE0
0000000000000007FFFFFFFFFFE0
000000000000003FFFFFFFFFFFE0
00000000000000FFFFFFFFFFFFE0
00000000000007FFFFFFFFFFFFE0
0000000000001FFFFFFFFFFFFFE0
000000000000FFFFFFFFFFFFFFE0
000000000007FFFFFFFFFFFFFFE0
00000000001FFFFFFFFFFFFFFFE0
0000000000FFFFFFFFFFFFFFFF80
0000000007FFFFFFFFFFFFFFFC00
000000001FFFFFFFFFFFFFFFE000
00000000FFFFFFFFFFFFFFFF8000
00000003FFFFFFFFFFFFFFFC0000
0000001FFFFFFFFFFFFFFFE00000
000000FFFFFFFFFFFFFFFF000000
000003FFFFFFFFFFFFFFFC000000
00001FFFFFFFFFFFFFFFE0000000
0000FFFFFFFFFFFFFFFF00000000
0003FFFFFFFFFFFFFFFC00000000
001FFFFFFFFFFFFFFFE000000000
007FFFFFFFFFFFFFFF0000000000
03FFFFFFFFFFFFFFFC0000000000
1FFFFFFFFFFFFFFFE00000000000
7FFFFFFFFFFFFFFF000000000000
FFFFFFFFFFFFFFF8000000000000
FFFFFFFFFFFFFFE0000000000000
FFFFFFFFFFFFFF00000000000000
FFFFFFFFFFFFF800000000000000
FFFFFFFFFFFFE000000000000000
FFFFFFFFFFFF0000000000000000
FFFFFFFFFFF80000000000000000
FFFFFFFFFFE00000000000000000
FFFFFFFFFFE00000000000000000
FFFFFFFFFFF80000000000000000
FFFFFFFFFFFF0000000000000000
FFFFFFFFFFFFE000000000000000
FFFFFFFFFFFFF800000000000000
FFFFFFFFFFFFFF00000000000000
FFFFFFFFFFFFFFE0000000000000
FFFFFFFFFFFFFFFC000000000000
7FFFFFFFFFFFFFFF000000000000
1FFFFFFFFFFFFFFFE00000000000
03FFFFFFFFFFFFFFFC0000000000
007FFFFFFFFFFFFFFF0000000000
001FFFFFFFFFFFFFFFE000000000
0003FFFFFFFFFFFFFFFC00000000
0000FFFFFFFFFFFFFFFF00000000
00001FFFFFFFFFFFFFFFE0000000
000003FFFFFFFFFFFFFFFC000000
000000FFFFFFFFFFFFFFFF000000
0000001FFFFFFFFFFFFFFFE00000
00000003FFFFFFFFFFFFFFFC0000
00000000FFFFFFFFFFFFFFFF8000
000000001FFFFFFFFFFFFFFFE000
0000000007FFFFFFFFFFFFFFFC00
0000000000FFFFFFFFFFFFFFFF80
00000000001FFFFFFFFFFFFFFFE0
000000000007FFFFFFFFFFFFFFE0
000000000000FFFFFFFFFFFFFFE0
0000000000001FFFFFFFFFFFFFE0
00000000000007FFFFFFFFFFFFE0
00000000000000FFFFFFFFFFFFE0
000000000000003FFFFFFFFFFFE0
0000000000000007FFFFFFFFFFE0
0000000000000000FFFFFFFFFFE0
00000000000000003FFFFFFFFFE0
000000000000000007FFFFFFFFE0
000000000000000000FFFFFFFFE0
0000000000000000003FFFFFFFE0
00000000000000000007FFFFFFE0
00000000000000000001FFFFFFE0
000000000000000000003FFFFFE0
0000000000000000000007FFFFE0
0000000000000000000001FFFFE0
00000000000000000000003FFFE0
000000000000000000000007FFE0
000000000000000000000001FFE0
0000000000000000000000003FE0
0000000000000000000000000FE0
00000000000000000000000001E0
0000000000000000000000000020
ENDCHAR
STARTCHAR 003D
ENCODING 61
SWIDTH 522 0
DWIDTH 94 0
BBX 76 51 8 23
BITMAP
FFFFFFFFFFFFFFFFFFF0
FFFFFFFFFFFFFFFFFFF0
FFFFFFFFFFFFFFFFFFF0
FFFFFFFFFFFFFFFFFFF0
FFFFFFFFFFFFFFFFFFF0
FFFFFFFFFFFFFFFFFFF0
FFFFFFFFFFFFFFFFFFF0
FFFFFFFFFFFFFFFFFFF0
FFFFFFFFFFFFFFFFFFF0
FFFFFFFFFFFFFFFFFFF0
FFFFFFFFFFFFFFFFFFF0
FFFFFFFFFFFFFFFFFFF0
FFFFFFFFFFFFFFFFFFF0
FFFFFFFFFFFFFFFFFFF0
FFFFFFFFFFFFFFFFFFF0
FFFFFFFFFFFFFFFFFFF0
FFFFFFFFFFFFFFFFFFF0
FFFFFFFFFFFFFFFFFFF0
00000000000000000000
00000000000000000000
00000000000000000000
00000000000000000000
00000000000000000000
00000000000000000000
00000000000000000000
00000000000000000000
00000000000000000000
00000000000000000000
00000000000000000000
00000000000000000000
00000000000000000000
00000000000000000000
00000000000000000000
FFFFFFFFFFFFFFFFFFF0
FFFFFFFFFFFFFFFFFFF0
FFFFFFFFFFFFFFFFFFF0
FFFFFFFFFFFFFFFFFFF0
FFFFFFFFFFFFFFFFFFF0
FFFFFFFFFFFFFFFFFFF0
FFFFFFFFFFFFFFFFFFF0
FFFFFFFFFFFFFFFFFFF0
FFFFFFFFFFFFFFFFFFF0
FFFFFFFFFFFFFFFFFFF0
FFFFFFFFFFFFFFFFFFF0
FFFFFFFFFFFFFFFFFFF0
FFFFFFFFFFFFFFFFFFF0
FFFFFFFFFFFFFFFFFFF0
FFFFFFFFFFFFFFFFFFF0
FFFFFFFFFFFFFFFFFFF0
FFFFFFFFFFFFFFFFFFF0
FFFFFFFFFFFFFFFFFFF0
ENDCHAR
STARTCHAR 003E
ENCODING 62
SWIDTH 727 0
DWIDTH 131 0
BBX 107 98 12 8
BITMAP
C000000000000000000000000000
F000000000000000000000000000
FE00000000000000000000000000
FF80000000000000000000000000
FFF0000000000000000000000000
FFFE000000000000000000000000
FFFF800000000000000000000000
FFFFF00000000000000000000000
FFFFFE0000000000000000000000
FFFFFF8000000000000000000000
FFFFFFF000000000000000000000
FFFFFFFC00000000000000000000
FFFFFFFF80000000000000000000
FFFFFFFFF0000000000000000000
FFFFFFFFFC000000000000000000
FFFFFFFFFF800000000000000000
FFFFFFFFFFF00000000000000000
FFFFFFFFFFFC0000000000000000
FFFFFFFFFFFF8000000000000000
FFFFFFFFFFFFE000000000000000
FFFFFFFFFFFFFC00000000000000
FFFFFFFFFFFFFF80000000000000
FFFFFFFFFFFFFFE0000000000000
FFFFFFFFFFFFFFFC000000000000
FFFFFFFFFFFFFFFF800000000000
1FFFFFFFFFFFFFFFE00000000000
07FFFFFFFFFFFFFFFC0000000000
00FFFFFFFFFFFFFFFF0000000000
001FFFFFFFFFFFFFFFE000000000
0003FFFFFFFFFFFFFFFC00000000
0000FFFFFFFFFFFFFFFF00000000
00001FFFFFFFFFFFFFFFE0000000
000003FFFFFFFFFFFFFFFC000000
000000FFFFFFFFFFFFFFFF000000
0000001FFFFFFFFFFFFFFFE00000
00000003FFFFFFFFFFFFFFFC0000
00000000FFFFFFFFFFFFFFFF0000
000000001FFFFFFFFFFFFFFFE000
0000000003FFFFFFFFFFFFFFF800
00000000007FFFFFFFFFFFFFFF00
00000000001FFFFFFFFFFFFFFFE0
000000000003FFFFFFFFFFFFFFE0
0000000000007FFFFFFFFFFFFFE0
0000000000001FFFFFFFFFFFFFE0
00000000000003FFFFFFFFFFFFE0
000000000000007FFFFFFFFFFFE0
000000000000001FFFFFFFFFFFE0
0000000000000003FFFFFFFFFFE0
00000000000000007FFFFFFFFFE0
0000000000000000FFFFFFFFFFE0
0000000000000003FFFFFFFFFFE0
000000000000001FFFFFFFFFFFE0
00000000000000FFFFFFFFFFFFE0
00000000000003FFFFFFFFFFFFE0
0000000000001FFFFFFFFFFFFFE0
000000000000FFFFFFFFFFFFFFE0
000000000007FFFFFFFFFFFFFFE0
00000000001FFFFFFFFFFFFFFFC0
0000000000FFFFFFFFFFFFFFFF00
0000000007FFFFFFFFFFFFFFF800
000000001FFFFFFFFFFFFFFFC000
00000000FFFFFFFFFFFFFFFF0000
00000007FFFFFFFFFFFFFFF80000
0000001FFFFFFFFFFFFFFFC00000
000000FFFFFFFFFFFFFFFF000000
000007FFFFFFFFFFFFFFF8000000
00003FFFFFFFFFFFFFFFE0000000
0000FFFFFFFFFFFFFFFF00000000
0007FFFFFFFFFFFFFFF800000000
003FFFFFFFFFFFFFFFE000000000
00FFFFFFFFFFFFFFFF0000000000
07FFFFFFFFFFFFFFF80000000000
3FFFFFFFFFFFFFFFE00000000000
FFFFFFFFFFFFFFFF000000000000
FFFFFFFFFFFFFFF8000000000000
FFFFFFFFFFFFFFE0000000000000
FFFFFFFFFFFFFF00000000000000
FFFFFFFFFFFFFC00000000000000
FFFFFFFFFFFFE000000000000000
FFFFFFFFFFFF0000000000000000
FFFFFFFFFFFC0000000000000000
FFFFFFFFFFE00000000000000000
FFFFFFFFFF000000000000000000
FFFFFFFFFC000000000000000000
FFFFFFFFE0000000000000000000
FFFFFFFF80000000000000000000
FFFFFFFC00000000000000000000
FFFFFFE000000000000000000000
FFFFFF8000000000000000000000
FFFFFC0000000000000000000000
FFFFE00000000000000000000000
FFFF800000000000000000000000
FFFC000000000000000000000000
FFF0000000000000000000000000
FF80000000000000000000000000
FC00000000000000000000000000
F000000000000000000000000000
8000000000000000000000000000
ENDCHAR
STARTCHAR 003F
ENCODING 63
SWIDTH 516 0
DWIDTH 93 0
BBX 70 120 12 0
BITMAP
0000FFFFFFF0000000
01FFFFFFFFFFC00000
0FFFFFFFFFFFFC0000
3FFFFFFFFFFFFF0000
7FFFFFFFFFFFFFC000
7FFFFFFFFFFFFFF000
FFFFFFFFFFFFFFF800
FFFFFFFFFFFFFFFE00
FFFFFFFFFFFFFFFF00
FFFFFFFFFFFFFFFF80
FFFFFFFFFFFFFFFF80
FFFFFFFFFFFFFFFFC0
FFFFFFFFFFFFFFFFE0
FFFFFFFFFFFFFFFFE0
FFFFFFFFFFFFFFFFF0
FFFFFFFFFFFFFFFFF0
FFFFFFFFFFFFFFFFF0
FFFFFFFFFFFFFFFFF8
7FFFFFFFFFFFFFFFF8
7FFFFFFFFFFFFFFFF8
3FFFFFFFFFFFFFFFF8
1FFFFFFFFFFFFFFFFC
000000001FFFFFFFFC
0000000000FFFFFFFC
00000000007FFFFFFC
00000000003FFFFFFC
00000000001FFFFFFC
00000000001FFFFFFC
00000000001FFFFFFC
00000000001FFFFFFC
00000000001FFFFFFC
00000000001FFFFFFC
00000000003FFFFFF8
00000000003FFFFFF8
00000000007FFFFFF8
00000000007FFFFFF8
0000000000FFFFFFF0
0000000001FFFFFFF0
0000000003FFFFFFE0
0000000007FFFFFFC0
000000001FFFFFFFC0
000000003FFFFFFF80
000000007FFFFFFF00
00000001FFFFFFFE00
00000003FFFFFFFC00
0000000FFFFFFFF800
0000001FFFFFFFF000
0000007FFFFFFFE000
000000FFFFFFFFC000
000001FFFFFFFF0000
000007FFFFFFFE0000
00000FFFFFFFFC0000
00001FFFFFFFF00000
00003FFFFFFFE00000
00007FFFFFFFC00000
00007FFFFFFF000000
0000FFFFFFFE000000
0001FFFFFFFC000000
0001FFFFFFF8000000
0001FFFFFFE0000000
0003FFFFFFC0000000
0003FFFFFF80000000
0003FFFFFF00000000
0003FFFFFF00000000
0003FFFFFE00000000
0003FFFFFC00000000
0003FFFFFC00000000
0003FFFFF800000000
0003FFFFF800000000
0003FFFFF800000000
0003FFFFF800000000
0001FFFFF800000000
0001FFFFF800000000
0000FFFFF000000000
00007FFFE000000000
000007FF0000000000
000000000000000000
000000000000000000
000000000000000000
000000000000000000
000000000000000000
000000000000000000
000000000000000000
000000000000000000
000000000000000000
000000FC0000000000
000003FF0000000000
000007FFC000000000
00001FFFE000000000
00003FFFF000000000
00007FFFF800000000
0000FFFFFC00000000
0001FFFFFE00000000
0003FFFFFF00000000
0003FFFFFF80000000
0007FFFFFFC0000000
000FFFFFFFC0000000
000FFFFFFFE0000000
001FFFFFFFE0000000
001FFFFFFFF0000000
003FFFFFFFF0000000
003FFFFFFFF0000000
003FFFFFFFF0000000
003FFFFFFFF0000000
003FFFFFFFF0000000
001FFFFFFFE0000000
001FFFFFFFE0000000
000FFFFFFFC0000000
000FFFFFFFC0000000
0007FFFFFF80000000
0003FFFFFF00000000
0003FFFFFF00000000
0001FFFFFE00000000
0000FFFFFC00000000
00007FFFF800000000
00003FFFF000000000
00000FFFE000000000
000007FF8000000000
000001FF0000000000
0000007C0000000000
ENDCHAR
STARTCHAR 0040
ENCODING 64
SWIDTH 1094 0
DWIDTH 197 0
BBX 164 162 15 -38
BITMAP
0000000000000000003FFFFF800000000000000000
00000000000000007FFFFFFFFFC000000000000000
000000000000001FFFFFFFFFFFFE00000000000000
00000000000001FFFFFFFFFFFFFFE0000000000000
0000000000001FFFFFFFFFFFFFFFFC000000000000
000000000000FFFFFFFFFFFFFFFFFF800000000000
000000000007FFFFFFFFFFFFFFFFFFF00000000000
00000000003FFFFFFFFFFFFFFFFFFFFC0000000000
0000000000FFFFFFFFFFFFFFFFFFFFFF0000000000
0000000003FFFFFFFFFFFFFFFFFFFFFFC000000000
000000000FFFFFFFFFFFFFFFFFFFFFFFF000000000
000000003FFFFFFFFFFFFFFFFFFFFFFFF800000000
00000000FFFFFFFFFFFFFFFFFFFFFFFFFE00000000
00000001FFFFFFFFFFFFFFFFFFFFFFFFFF00000000
00000007FFFFFFFFFFFFFFFFFFFFFFFFFFC0000000
0000000FFFFFFFFFFFFFFFFFFFFFFFFFFFE0000000
0000001FFFFFFFFFFFFFFFFFFFFFFFFFFFF0000000
0000007FFFFFFFFFFFFFFFFFFFFFFFFFFFF8000000
000000FFFFFFFFFFFFFFFFFFFFFFFFFFFFFC000000
000001FFFFFFFFFFFFFFFFFFFFFFFFFFFFFE000000
000003FFFFFFFFFFFFFFFFFFFFFFFFFFFFFF000000
000007FFFFFFFFFFFFC00000FFFFFFFFFFFF800000
00000FFFFFFFFFFFC000000001FFFFFFFFFFC00000
00001FFFFFFFFFF800000000001FFFFFFFFFE00000
00003FFFFFFFFF80000000000003FFFFFFFFF00000
00007FFFFFFFFC000000000000007FFFFFFFF80000
0000FFFFFFFFF0000000000000001FFFFFFFF80000
0000FFFFFFFFC00000000000000007FFFFFFFC0000
0001FFFFFFFF000000000000000003FFFFFFFE0000
0003FFFFFFFC000000000000000000FFFFFFFE0000
0007FFFFFFF80000000000000000007FFFFFFF0000
0007FFFFFFF00000000000000000003FFFFFFF8000
000FFFFFFFC00000000000000000001FFFFFFF8000
001FFFFFFF800000000000000000000FFFFFFFC000
001FFFFFFF0000000000000000000007FFFFFFC000
003FFFFFFE0000000000000000000003FFFFFFE000
003FFFFFFC0000000000000000000001FFFFFFE000
007FFFFFFC0000000000000000000001FFFFFFF000
007FFFFFF8000000000FFFFC00000000FFFFFFF000
00FFFFFFF00000003FFFFFFFF00000007FFFFFF800
00FFFFFFF000000FFFFFFFFFFE0000007FFFFFF800
01FFFFFFE00001FFFFFFFFFFFF8000003FFFFFF800
01FFFFFFC00007FFFFFFFFFFFFE000003FFFFFFC00
03FFFFFFC0000FFFFFFFFFFFFFF800001FFFFFFC00
03FFFFFF80001FFFFFFFFFFFFFFC00001FFFFFFC00
03FFFFFF80003FFFFFFFFFFFFFFE00000FFFFFFE00
07FFFFFF00003FFFFFFFFFFFFFFF00000FFFFFFE00
07FFFFFF00003FFFFFFFFFFFFFFF80000FFFFFFE00
07FFFFFF00003FFFFFFFFFFFFFFFC00007FFFFFF00
0FFFFFFE00003FFFFFFFFFFFFFFFE00007FFFFFF00
0FFFFFFE00003FFFFFFFFFFFFFFFE00007FFFFFF00
0FFFFFFE00003FFFFFFFFFFFFFFFF00003FFFFFF80
0FFFFFFC00003FFFFFFFFFFFFFFFF00003FFFFFF80
1FFFFFFC00003FFFFFFFFFFFFFFFF00003FFFFFF80
1FFFFFFC00003FFFFFFFFFFFFFFFF80003FFFFFF80
1FFFFFFC00003FFFFFFFFFFFFFFFF80001FFFFFF80
1FFFFFF800001FFFFFFFFFFFFFFFF80001FFFFFFC0
3FFFFFF800000000000000FFFFFFFC0001FFFFFFC0
3FFFFFF8000000000000003FFFFFFC0001FFFFFFC0
3FFFFFF8000000000000001FFFFFFC0001FFFFFFC0
3FFFFFF8000000000000000FFFFFFC0001FFFFFFC0
3FFFFFF0000000000000000FFFFFFC0000FFFFFFC0
7FFFFFF0000000000000000FFFFFFE0000FFFFFFE0
7FFFFFF00000000000000007FFFFFE0000FFFFFFE0
7FFFFFF00000000000000007FFFFFE0000FFFFFFE0
7FFFFFF00000000000000007FFFFFE0000FFFFFFE0
7FFFFFF00000000000000007FFFFFE0000FFFFFFE0
7FFFFFF00000000000000007FFFFFE0000FFFFFFE0
7FFFFFF00000000000000007FFFFFE0000FFFFFFE0
7FFFFFF00000000000000007FFFFFE0000FFFFFFE0
FFFFFFF00000000000000007FFFFFE00007FFFFFF0
FFFFFFE00000000003FFFFFFFFFFFE00007FFFFFF0
FFFFFFE000000000FFFFFFFFFFFFFE00007FFFFFF0
FFFFFFE00000000FFFFFFFFFFFFFFE00007FFFFFF0
FFFFFFE00000007FFFFFFFFFFFFFFE00007FFFFFF0
FFFFFFE0000001FFFFFFFFFFFFFFFE00007FFFFFF0
FFFFFFE0000007FFFFFFFFFFFFFFFE00007FFFFFF0
FFFFFFE000000FFFFFFFFFFFFFFFFE00007FFFFFF0
FFFFFFE000001FFFFFFFFFFFFFFFFE00007FFFFFF0
FFFFFFE000003FFFFFFFFFFFFFFFFE00007FFFFFF0
FFFFFFE000007FFFFFFFFFFFFFFFFE00007FFFFFF0
FFFFFFE00000FFFFFFFFFFFFFFFFFE00007FFFFFF0
FFFFFFE00001FFFFFFFFFFFFFFFFFE00007FFFFFF0
FFFFFFE00003FFFFFFFFFFFFFFFFFE00007FFFFFF0
FFFFFFE00003FFFFFFFFFFFFFFFFFE00007FFFFFF0
FFFFFFE00007FFFFFFFFFFFFFFFFFE00007FFFFFF0
FFFFFFE00007FFFFFFFFFFFFFFFFFE00007FFFFFF0
FFFFFFE0000FFFFFFFFFFFFFFFFFFE00007FFFFFF0
FFFFFFE0000FFFFFFFF80007FFFFFE00007FFFFFF0
FFFFFFE0000FFFFFFF800007FFFFFE00007FFFFFF0
FFFFFFE0001FFFFFFE000007FFFFFE00007FFFFFF0
FFFFFFE0001FFFFFFC000007FFFFFE00007FFFFFF0
FFFFFFE0001FFFFFF8000007FFFFFE00007FFFFFF0
FFFFFFE0001FFFFFF0000007FFFFFE00007FFFFFE0
7FFFFFF0001FFFFFF0000007FFFFFE00007FFFFFE0
7FFFFFF0003FFFFFE0000007FFFFFE00007FFFFFE0
7FFFFFF0003FFFFFE0000007FFFFFE00007FFFFFE0
7FFFFFF0003FFFFFE0000007FFFFFE0000FFFFFFE0
7FFFFFF0003FFFFFE0000007FFFFFE0000FFFFFFE0
7FFFFFF0003FFFFFE0000007FFFFFF0000FFFFFFC0
7FFFFFF0003FFFFFE0000007FFFFFF0000FFFFFFC0
7FFFFFF0003FFFFFE000000FFFFFFF0001FFFFFFC0
3FFFFFF8003FFFFFF000003FFFFFFF8001FFFFFFC0
3FFFFFF8003FFFFFF00000FFFFFFFF8003FFFFFF80
3FFFFFF8003FFFFFF00003FFFFFFFFC003FFFFFF80
3FFFFFF8003FFFFFF8001FFFFFFFFFE007FFFFFF80
3FFFFFF8003FFFFFFC03FFFFFFFFFFF01FFFFFFF00
3FFFFFFC003FFFFFFFFFFFFFFFFFFFFFFFFFFFFF00
1FFFFFFC001FFFFFFFFFFFFFFFFFFFFFFFFFFFFE00
1FFFFFFC001FFFFFFFFFFFFFFFFFFFFFFFFFFFFE00
1FFFFFFE001FFFFFFFFFFFFFFFFFFFFFFFFFFFFC00
1FFFFFFE001FFFFFFFFFFFFFFFFFFFFFFFFFFFFC00
0FFFFFFE000FFFFFFFFFFFFFFFFFFFFFFFFFFFF800
0FFFFFFF000FFFFFFFFFFFFFFFFFFFFFFFFFFFF800
0FFFFFFF000FFFFFFFFFFFFFFFFFFFFFFFFFFFF000
0FFFFFFF0007FFFFFFFFFFFFDFFFFFFFFFFFFFE000
07FFFFFF8007FFFFFFFFFFFF8FFFFFFFFFFFFFE000
07FFFFFF8003FFFFFFFFFFFF07FFFFFFFFFFFFC000
07FFFFFFC003FFFFFFFFFFFE07FFFFFFFFFFFF8000
03FFFFFFC001FFFFFFFFFFFC03FFFFFFFFFFFF0000
03FFFFFFE000FFFFFFFFFFF801FFFFFFFFFFFE0000
03FFFFFFF000FFFFFFFFFFE000FFFFFFFFFFF80000
01FFFFFFF0007FFFFFFFFFC0007FFFFFFFFFF00000
01FFFFFFF8001FFFFFFFFF80001FFFFFFFFFE00000
00FFFFFFFC000FFFFFFFFE00000FFFFFFFFF800000
00FFFFFFFC0007FFFFFFF8000003FFFFFFFE000000
007FFFFFFE0001FFFFFFE0000000FFFFFFF0000000
007FFFFFFF00003FFFFF000000001FFFFF80000000
003FFFFFFF800003FFE00000000001FFF000000000
003FFFFFFFC0000000000000000000000000000000
001FFFFFFFE0000000000000000000000000000000
001FFFFFFFF8000000000000000000000000000000
000FFFFFFFFC000000000000000000000000000000
000FFFFFFFFF000000000000000000000000000000
0007FFFFFFFF800000000000000200000000000000
0003FFFFFFFFE00000000000007FC0000000000000
0003FFFFFFFFF8000000000003FFE0000000000000
0001FFFFFFFFFF00000000003FFFF0000000000000
0000FFFFFFFFFFF000000007FFFFF0000000000000
00007FFFFFFFFFFF800001FFFFFFF8000000000000
00003FFFFFFFFFFFFFFFFFFFFFFFF8000000000000
00003FFFFFFFFFFFFFFFFFFFFFFFF8000000000000
00001FFFFFFFFFFFFFFFFFFFFFFFFC000000000000
00000FFFFFFFFFFFFFFFFFFFFFFFFC000000000000
000007FFFFFFFFFFFFFFFFFFFFFFFC000000000000
000003FFFFFFFFFFFFFFFFFFFFFFFE000000000000
000000FFFFFFFFFFFFFFFFFFFFFFFE000000000000
0000007FFFFFFFFFFFFFFFFFFFFFFE000000000000
0000003FFFFFFFFFFFFFFFFFFFFFFE000000000000
0000001FFFFFFFFFFFFFFFFFFFFFFE000000000000
00000007FFFFFFFFFFFFFFFFFFFFFE000000000000
00000003FFFFFFFFFFFFFFFFFFFFFC000000000000
00000000FFFFFFFFFFFFFFFFFFFFFC000000000000
000000003FFFFFFFFFFFFFFFFFFFF8000000000000
000000000FFFFFFFFFFFFFFFFFFFE0000000000000
0000000003FFFFFFFFFFFFFFFFFF80000000000000
0000000000FFFFFFFFFFFFFFFFFC00000000000000
00000000001FFFFFFFFFFFFFFFC000000000000000
000000000003FFFFFFFFFFFFFC0000000000000000
0000000000003FFFFFFFFFFFC00000000000000000
00000000000003FFFFFFFFF0000000000000000000
0000000000000003FFFFE000000000000000000000
ENDCHAR
STARTCHAR 0041
ENCODING 65
SWIDTH 644 0
DWIDTH 116 0
BBX 109 120 2 0
BITMAP
0000000000007FFE000000000000
000000000003FFFF800000000000
00000000000FFFFFC00000000000
00000000001FFFFFE00000000000
00000000003FFFFFF00000000000
00000000007FFFFFF80000000000
0000000000FFFFFFF80000000000
0000000000FFFFFFFC0000000000
0000000001FFFFFFFC0000000000
0000000001FFFFFFFE0000000000
0000000003FFFFFFFE0000000000
0000000003FFFFFFFE0000000000
0000000003FFFFFFFF0000000000
0000000007FFFFFFFF0000000000
0000000007FFFFFFFF0000000000
0000000007FFFFFFFF8000000000
000000000FFFFFFFFF8000000000
000000000FFFFFFFFFC000000000
000000001FFFFFFFFFC000000000
000000001FFFFFFFFFC000000000
000000001FFFFFFFFFE000000000
000000003FFFFFFFFFE000000000
000000003FFFFFFFFFF000000000
000000003FFFFFFFFFF000000000
000000007FFFFFFFFFF000000000
000000007FFFFFFFFFF800000000
00000000FFFFFFFFFFF800000000
00000000FFFFFFFFFFF800000000
00000000FFFFFFFFFFFC00000000
00000001FFFFFFFFFFFC00000000
00000001FFFFFFFFFFFE00000000
00000001FFFFFFFFFFFE00000000
00000003FFFFFFFFFFFE00000000
00000003FFFFFFFFFFFF00000000
00000007FFFFFFFFFFFF00000000
00000007FFFFFFFFFFFF00000000
00000007FFFFFFFFFFFF80000000
0000000FFFFFFFFFFFFF80000000
0000000FFFFFFDFFFFFFC0000000
0000000FFFFFFDFFFFFFC0000000
0000001FFFFFF9FFFFFFC0000000
0000001FFFFFF8FFFFFFE0000000
0000003FFFFFF0FFFFFFE0000000
0000003FFFFFF0FFFFFFF0000000
0000003FFFFFF07FFFFFF0000000
0000007FFFFFE07FFFFFF0000000
0000007FFFFFE07FFFFFF8000000
0000007FFFFFE03FFFFFF8000000
000000FFFFFFC03FFFFFF8000000
000000FFFFFFC03FFFFFFC000000
000001FFFFFFC01FFFFFFC000000
000001FFFFFF801FFFFFFE000000
000001FFFFFF801FFFFFFE000000
000003FFFFFF800FFFFFFE000000
000003FFFFFF000FFFFFFF000000
000003FFFFFF000FFFFFFF000000
000007FFFFFF0007FFFFFF000000
000007FFFFFE0007FFFFFF800000
00000FFFFFFE0007FFFFFF800000
00000FFFFFFE0003FFFFFFC00000
00000FFFFFFC0003FFFFFFC00000
00001FFFFFFC0001FFFFFFC00000
00001FFFFFFC0001FFFFFFE00000
00001FFFFFF80001FFFFFFE00000
00003FFFFFF80000FFFFFFF00000
00003FFFFFF80000FFFFFFF00000
00003FFFFFF00000FFFFFFF00000
00007FFFFFF000007FFFFFF80000
00007FFFFFF000007FFFFFF80000
0000FFFFFFE000007FFFFFF80000
0000FFFFFFE000003FFFFFFC0000
0000FFFFFFE000003FFFFFFC0000
0001FFFFFFC000003FFFFFFE0000
0001FFFFFFC000001FFFFFFE0000
0001FFFFFFC000001FFFFFFE0000
0003FFFFFF8000001FFFFFFF0000
0003FFFFFF8000000FFFFFFF0000
0007FFFFFFFFFFFFFFFFFFFF0000
0007FFFFFFFFFFFFFFFFFFFF8000
0007FFFFFFFFFFFFFFFFFFFF8000
000FFFFFFFFFFFFFFFFFFFFFC000
000FFFFFFFFFFFFFFFFFFFFFC000
000FFFFFFFFFFFFFFFFFFFFFC000
001FFFFFFFFFFFFFFFFFFFFFE000
001FFFFFFFFFFFFFFFFFFFFFE000
003FFFFFFFFFFFFFFFFFFFFFF000
003FFFFFFFFFFFFFFFFFFFFFF000
003FFFFFFFFFFFFFFFFFFFFFF000
007FFFFFFFFFFFFFFFFFFFFFF800
007FFFFFFFFFFFFFFFFFFFFFF800
007FFFFFFFFFFFFFFFFFFFFFF800
00FFFFFFFFFFFFFFFFFFFFFFFC00
00FFFFFFFFFFFFFFFFFFFFFFFC00
01FFFFFFFFFFFFFFFFFFFFFFFE00
01FFFFFFFFFFFFFFFFFFFFFFFE00
01FFFFFFFFFFFFFFFFFFFFFFFE00
03FFFFFFFFFFFFFFFFFFFFFFFF00
03FFFFFFFFFFFFFFFFFFFFFFFF00
03FFFFFF80000000000FFFFFFF80
07FFFFFF80000000000FFFFFFF80
07FFFFFF000000000007FFFFFF80
0FFFFFFF000000000007FFFFFFC0
0FFFFFFF000000000007FFFFFFC0
0FFFFFFE000000000003FFFFFFC0
1FFFFFFE000000000003FFFFFFE0
1FFFFFFE000000000003FFFFFFE0
1FFFFFFC000000000001FFFFFFF0
3FFFFFFC000000000001FFFFFFF0
3FFFFFFC000000000001FFFFFFF0
3FFFFFF8000000000000FFFFFFF8
7FFFFFF8000000000000FFFFFFF8
7FFFFFF00000000000007FFFFFF8
7FFFFFF00000000000007FFFFFF8
FFFFFFF00000000000007FFFFFF8
7FFFFFE00000000000003FFFFFF8
7FFFFFE00000000000003FFFFFF8
7FFFFFC00000000000001FFFFFF0
7FFFFF800000000000000FFFFFF0
3FFFFF0000000000000007FFFFC0
0FFFFC0000000000000001FFFF00
ENDCHAR
STARTCHAR 0042
ENCODING 66
SWIDTH 622 0
DWIDTH 112 0
BBX 85 120 14 0
BITMAP
03FFFFFFFFFFE000000000
0FFFFFFFFFFFFF80000000
3FFFFFFFFFFFFFF8000000
3FFFFFFFFFFFFFFE000000
7FFFFFFFFFFFFFFF800000
7FFFFFFFFFFFFFFFE00000
FFFFFFFFFFFFFFFFF80000
FFFFFFFFFFFFFFFFFC0000
FFFFFFFFFFFFFFFFFE0000
FFFFFFFFFFFFFFFFFF0000
FFFFFFFFFFFFFFFFFF8000
FFFFFFFFFFFFFFFFFF8000
FFFFFFFFFFFFFFFFFFC000
FFFFFFFFFFFFFFFFFFE000
FFFFFFFFFFFFFFFFFFE000
FFFFFFFFFFFFFFFFFFF000
FFFFFFFFFFFFFFFFFFF000
FFFFFFFFFFFFFFFFFFF800
FFFFFFFFFFFFFFFFFFF800
FFFFFFFFFFFFFFFFFFF800
FFFFFFFFFFFFFFFFFFFC00
FFFFFFFFFFFFFFFFFFFC00
FFFFFFFFFFFFFFFFFFFC00
FFFFFFF00001FFFFFFFC00
FFFFFFF000007FFFFFFC00
FFFFFFF000003FFFFFFE00
FFFFFFF000001FFFFFFE00
FFFFFFF000001FFFFFFE00
FFFFFFF000000FFFFFFE00
FFFFFFF000000FFFFFFE00
FFFFFFF000000FFFFFFE00
FFFFFFF000000FFFFFFE00
FFFFFFF000000FFFFFFE00
FFFFFFF000000FFFFFFE00
FFFFFFF000000FFFFFFE00
FFFFFFF000000FFFFFFE00
FFFFFFF000000FFFFFFE00
FFFFFFF000000FFFFFFE00
FFFFFFF000000FFFFFFE00
FFFFFFF000000FFFFFFE00
FFFFFFF000000FFFFFFC00
FFFFFFF000000FFFFFFC00
FFFFFFF000001FFFFFFC00
FFFFFFF000001FFFFFFC00
FFFFFFF000001FFFFFF800
FFFFFFF000003FFFFFF800
FFFFFFF000003FFFFFF800
FFFFFFF000007FFFFFF000
FFFFFFF00001FFFFFFF000
FFFFFFF0000FFFFFFFE000
FFFFFFFFFFFFFFFFFFE000
FFFFFFFFFFFFFFFFFFC000
FFFFFFFFFFFFFFFFFF8000
FFFFFFFFFFFFFFFFFF8000
FFFFFFFFFFFFFFFFFF0000
FFFFFFFFFFFFFFFFFF0000
FFFFFFFFFFFFFFFFFFC000
FFFFFFFFFFFFFFFFFFE000
FFFFFFFFFFFFFFFFFFF000
FFFFFFFFFFFFFFFFFFF800
FFFFFFFFFFFFFFFFFFFC00
FFFFFFFFFFFFFFFFFFFE00
FFFFFFFFFFFFFFFFFFFF00
FFFFFFFFFFFFFFFFFFFF00
FFFFFFFFFFFFFFFFFFFF80
FFFFFFFFFFFFFFFFFFFFC0
FFFFFFFFFFFFFFFFFFFFC0
FFFFFFFFFFFFFFFFFFFFC0
FFFFFFFFFFFFFFFFFFFFE0
FFFFFFFFFFFFFFFFFFFFE0
FFFFFFFFFFFFFFFFFFFFE0
FFFFFFFFFFFFFFFFFFFFF0
FFFFFFF0000FFFFFFFFFF0
FFFFFFF00000FFFFFFFFF0
FFFFFFF000003FFFFFFFF0
FFFFFFF000001FFFFFFFF8
FFFFFFF000001FFFFFFFF8
FFFFFFF000000FFFFFFFF8
FFFFFFF000000FFFFFFFF8
FFFFFFF000000FFFFFFFF8
FFFFFFF000000FFFFFFFF8
FFFFFFF000000FFFFFFFF8
FFFFFFF000000FFFFFFFF8
FFFFFFF000000FFFFFFFF8
FFFFFFF000000FFFFFFFF8
FFFFFFF000000FFFFFFFF8
FFFFFFF000000FFFFFFFF8
FFFFFFF000000FFFFFFFF8
FFFFFFF000000FFFFFFFF8
FFFFFFF000000FFFFFFFF8
FFFFFFF000001FFFFFFFF8
FFFFFFF000001FFFFFFFF8
FFFFFFF000001FFFFFFFF0
FFFFFFF000003FFFFFFFF0
FFFFFFF000007FFFFFFFF0
FFFFFFF00000FFFFFFFFF0
FFFFFFF00007FFFFFFFFF0
FFFFFFFFFFFFFFFFFFFFE0
FFFFFFFFFFFFFFFFFFFFE0
FFFFFFFFFFFFFFFFFFFFE0
FFFFFFFFFFFFFFFFFFFFE0
FFFFFFFFFFFFFFFFFFFFC0
FFFFFFFFFFFFFFFFFFFFC0
FFFFFFFFFFFFFFFFFFFF80
FFFFFFFFFFFFFFFFFFFF80
FFFFFFFFFFFFFFFFFFFF00
FFFFFFFFFFFFFFFFFFFF00
FFFFFFFFFFFFFFFFFFFE00
FFFFFFFFFFFFFFFFFFFC00
FFFFFFFFFFFFFFFFFFFC00
FFFFFFFFFFFFFFFFFFF800
FFFFFFFFFFFFFFFFFFF000
FFFFFFFFFFFFFFFFFFE000
FFFFFFFFFFFFFFFFFFC000
7FFFFFFFFFFFFFFFFF0000
7FFFFFFFFFFFFFFFFE0000
3FFFFFFFFFFFFFFFF80000
3FFFFFFFFFFFFFFFE00000
0FFFFFFFFFFFFFFE000000
03FFFFFFFFFFFF80000000
ENDCHAR
STARTCHAR 0043
ENCODING 67
SWIDTH 577 0
DWIDTH 104 0
BBX 84 120 10 0
BITMAP
0000000007FFFFFFFFF800
00000003FFFFFFFFFFFF00
0000003FFFFFFFFFFFFFC0
000001FFFFFFFFFFFFFFE0
000007FFFFFFFFFFFFFFE0
00001FFFFFFFFFFFFFFFF0
00007FFFFFFFFFFFFFFFF0
0000FFFFFFFFFFFFFFFFF0
0003FFFFFFFFFFFFFFFFF0
0007FFFFFFFFFFFFFFFFF0
000FFFFFFFFFFFFFFFFFF0
001FFFFFFFFFFFFFFFFFF0
003FFFFFFFFFFFFFFFFFF0
003FFFFFFFFFFFFFFFFFF0
007FFFFFFFFFFFFFFFFFF0
00FFFFFFFFFFFFFFFFFFF0
00FFFFFFFFFFFFFFFFFFF0
01FFFFFFFFFFFFFFFFFFF0
03FFFFFFFFFFFFFFFFFFF0
03FFFFFFFFFFFFFFFFFFE0
07FFFFFFFFFFFFFFFFFFE0
07FFFFFFFFFFFFFFFFFFC0
07FFFFFFFFFFFFFFFFFF80
0FFFFFFFFFFF0000000000
0FFFFFFFFF800000000000
0FFFFFFFFC000000000000
1FFFFFFFF8000000000000
1FFFFFFFF0000000000000
1FFFFFFFE0000000000000
3FFFFFFFC0000000000000
3FFFFFFF80000000000000
3FFFFFFF80000000000000
3FFFFFFF00000000000000
3FFFFFFF00000000000000
7FFFFFFE00000000000000
7FFFFFFE00000000000000
7FFFFFFC00000000000000
7FFFFFFC00000000000000
7FFFFFFC00000000000000
7FFFFFFC00000000000000
7FFFFFF800000000000000
7FFFFFF800000000000000
7FFFFFF800000000000000
FFFFFFF800000000000000
FFFFFFF800000000000000
FFFFFFF800000000000000
FFFFFFF800000000000000
FFFFFFF800000000000000
FFFFFFF000000000000000
FFFFFFF000000000000000
FFFFFFF000000000000000
FFFFFFF000000000000000
FFFFFFF000000000000000
FFFFFFF000000000000000
FFFFFFF000000000000000
FFFFFFF000000000000000
FFFFFFF000000000000000
FFFFFFF000000000000000
FFFFFFF000000000000000
FFFFFFF000000000000000
FFFFFFF000000000000000
FFFFFFF000000000000000
FFFFFFF000000000000000
FFFFFFF000000000000000
FFFFFFF000000000000000
FFFFFFF000000000000000
FFFFFFF000000000000000
FFFFFFF000000000000000
FFFFFFF000000000000000
FFFFFFF000000000000000
FFFFFFF000000000000000
FFFFFFF000000000000000
FFFFFFF000000000000000
FFFFFFF800000000000000
7FFFFFF800000000000000
7FFFFFF800000000000000
7FFFFFF800000000000000
7FFFFFF800000000000000
7FFFFFF800000000000000
7FFFFFFC00000000000000
7FFFFFFC00000000000000
7FFFFFFC00000000000000
3FFFFFFE00000000000000
3FFFFFFE00000000000000
3FFFFFFE00000000000000
3FFFFFFF00000000000000
3FFFFFFF00000000000000
1FFFFFFF80000000000000
1FFFFFFFC0000000000000
1FFFFFFFE0000000000000
1FFFFFFFF0000000000000
0FFFFFFFF8000000000000
0FFFFFFFFE000000000000
0FFFFFFFFF800000000000
07FFFFFFFFFC0000000000
07FFFFFFFFFFFFFFFFFE00
07FFFFFFFFFFFFFFFFFF80
03FFFFFFFFFFFFFFFFFFE0
03FFFFFFFFFFFFFFFFFFE0
01FFFFFFFFFFFFFFFFFFF0
01FFFFFFFFFFFFFFFFFFF0
00FFFFFFFFFFFFFFFFFFF0
007FFFFFFFFFFFFFFFFFF0
007FFFFFFFFFFFFFFFFFF0
003FFFFFFFFFFFFFFFFFF0
001FFFFFFFFFFFFFFFFFF0
000FFFFFFFFFFFFFFFFFF0
0007FFFFFFFFFFFFFFFFF0
0003FFFFFFFFFFFFFFFFF0
0001FFFFFFFFFFFFFFFFF0
0000FFFFFFFFFFFFFFFFF0
00007FFFFFFFFFFFFFFFF0
00001FFFFFFFFFFFFFFFF0
00000FFFFFFFFFFFFFFFF0
000003FFFFFFFFFFFFFFF0
0000007FFFFFFFFFFFFFE0
0000001FFFFFFFFFFFFFE0
00000001FFFFFFFFFFFFC0
000000001FFFFFFFFFFF00
00000000003FFFFFFFF000
ENDCHAR
STARTCHAR 0044
ENCODING 68
SWIDTH 666 0
DWIDTH 120 0
BBX 94 120 13 0
BITMAP
03FFFFFFFFFFFFC000000000
0FFFFFFFFFFFFFFF80000000
3FFFFFFFFFFFFFFFF8000000
3FFFFFFFFFFFFFFFFE000000
7FFFFFFFFFFFFFFFFFC00000
7FFFFFFFFFFFFFFFFFF00000
FFFFFFFFFFFFFFFFFFF80000
FFFFFFFFFFFFFFFFFFFE0000
FFFFFFFFFFFFFFFFFFFF0000
FFFFFFFFFFFFFFFFFFFF8000
FFFFFFFFFFFFFFFFFFFFC000
FFFFFFFFFFFFFFFFFFFFE000
FFFFFFFFFFFFFFFFFFFFF000
FFFFFFFFFFFFFFFFFFFFF800
FFFFFFFFFFFFFFFFFFFFF800
FFFFFFFFFFFFFFFFFFFFFC00
FFFFFFFFFFFFFFFFFFFFFE00
FFFFFFFFFFFFFFFFFFFFFE00
FFFFFFFFFFFFFFFFFFFFFF00
FFFFFFFFFFFFFFFFFFFFFF00
FFFFFFFFFFFFFFFFFFFFFF80
FFFFFFFFFFFFFFFFFFFFFF80
FFFFFFFFFFFFFFFFFFFFFFC0
FFFFFFFFFFFFFFFFFFFFFFC0
FFFFFFF000007FFFFFFFFFC0
FFFFFFF0000001FFFFFFFFE0
FFFFFFF00000007FFFFFFFE0
FFFFFFF00000001FFFFFFFE0
FFFFFFF00000000FFFFFFFE0
FFFFFFF000000007FFFFFFF0
FFFFFFF000000003FFFFFFF0
FFFFFFF000000003FFFFFFF0
FFFFFFF000000001FFFFFFF0
FFFFFFF000000001FFFFFFF0
FFFFFFF000000000FFFFFFF8
FFFFFFF000000000FFFFFFF8
FFFFFFF000000000FFFFFFF8
FFFFFFF0000000007FFFFFF8
FFFFFFF0000000007FFFFFF8
FFFFFFF0000000007FFFFFF8
FFFFFFF0000000007FFFFFF8
FFFFFFF0000000007FFFFFF8
FFFFFFF0000000003FFFFFFC
FFFFFFF0000000003FFFFFFC
FFFFFFF0000000003FFFFFFC
FFFFFFF0000000003FFFFFFC
FFFFFFF0000000003FFFFFFC
FFFFFFF0000000003FFFFFFC
FFFFFFF0000000003FFFFFFC
FFFFFFF0000000003FFFFFFC
FFFFFFF0000000003FFFFFFC
FFFFFFF0000000003FFFFFFC
FFFFFFF0000000003FFFFFFC
FFFFFFF0000000003FFFFFFC
FFFFFFF0000000003FFFFFFC
FFFFFFF0000000003FFFFFFC
FFFFFFF0000000003FFFFFFC
FFFFFFF0000000003FFFFFFC
FFFFFFF0000000003FFFFFFC
FFFFFFF0000000003FFFFFFC
FFFFFFF0000000003FFFFFFC
FFFFFFF0000000003FFFFFFC
FFFFFFF0000000003FFFFFFC
FFFFFFF0000000003FFFFFFC
FFFFFFF0000000003FFFFFFC
FFFFFFF0000000003FFFFFFC
FFFFFFF0000000003FFFFFFC
FFFFFFF0000000003FFFFFFC
FFFFFFF0000000003FFFFFFC
FFFFFFF0000000003FFFFFFC
FFFFFFF0000000003FFFFFFC
FFFFFFF0000000003FFFFFFC
FFFFFFF0000000003FFFFFFC
FFFFFFF0000000003FFFFFFC
FFFFFFF0000000003FFFFFFC
FFFFFFF0000000003FFFFFF8
FFFFFFF0000000003FFFFFF8
FFFFFFF0000000007FFFFFF8
FFFFFFF0000000007FFFFFF8
FFFFFFF0000000007FFFFFF8
FFFFFFF0000000007FFFFFF8
FFFFFFF0000000007FFFFFF8
FFFFFFF0000000007FFFFFF8
FFFFFFF000000000FFFFFFF0
FFFFFFF000000000FFFFFFF0
FFFFFFF000000000FFFFFFF0
FFFFFFF000000001FFFFFFF0
FFFFFFF000000001FFFFFFF0
FFFFFFF000000003FFFFFFE0
FFFFFFF000000007FFFFFFE0
FFFFFFF00000000FFFFFFFE0
FFFFFFF00000001FFFFFFFE0
FFFFFFF00000007FFFFFFFC0
FFFFFFF0000001FFFFFFFFC0
FFFFFFF000000FFFFFFFFFC0
FFFFFFF00007FFFFFFFFFF80
FFFFFFFFFFFFFFFFFFFFFF80
FFFFFFFFFFFFFFFFFFFFFF00
FFFFFFFFFFFFFFFFFFFFFF00
FFFFFFFFFFFFFFFFFFFFFE00
FFFFFFFFFFFFFFFFFFFFFE00
FFFFFFFFFFFFFFFFFFFFFC00
FFFFFFFFFFFFFFFFFFFFFC00
FFFFFFFFFFFFFFFFFFFFF800
FFFFFFFFFFFFFFFFFFFFF000
FFFFFFFFFFFFFFFFFFFFE000
FFFFFFFFFFFFFFFFFFFFE000
FFFFFFFFFFFFFFFFFFFFC000
FFFFFFFFFFFFFFFFFFFF8000
FFFFFFFFFFFFFFFFFFFF0000
FFFFFFFFFFFFFFFFFFFC0000
FFFFFFFFFFFFFFFFFFF80000
FFFFFFFFFFFFFFFFFFE00000
FFFFFFFFFFFFFFFFFFC00000
7FFFFFFFFFFFFFFFFF000000
7FFFFFFFFFFFFFFFFC000000
3FFFFFFFFFFFFFFFE0000000
3FFFFFFFFFFFFFFF00000000
0FFFFFFFFFFFFFE000000000
03FFFFFFFFFFF00000000000
ENDCHAR
STARTCHAR 0045
ENCODING 69
SWIDTH 550 0
DWIDTH 99 0
BBX 75 120 13 0
BITMAP
03FFFFFFFFFFFFFFFC00
0FFFFFFFFFFFFFFFFF00
3FFFFFFFFFFFFFFFFF80
7FFFFFFFFFFFFFFFFFC0
7FFFFFFFFFFFFFFFFFC0
7FFFFFFFFFFFFFFFFFE0
FFFFFFFFFFFFFFFFFFE0
FFFFFFFFFFFFFFFFFFE0
FFFFFFFFFFFFFFFFFFE0
FFFFFFFFFFFFFFFFFFE0
FFFFFFFFFFFFFFFFFFE0
FFFFFFFFFFFFFFFFFFE0
FFFFFFFFFFFFFFFFFFE0
FFFFFFFFFFFFFFFFFFE0
FFFFFFFFFFFFFFFFFFE0
FFFFFFFFFFFFFFFFFFE0
FFFFFFFFFFFFFFFFFFE0
FFFFFFFFFFFFFFFFFFE0
FFFFFFFFFFFFFFFFFFE0
FFFFFFFFFFFFFFFFFFC0
FFFFFFFFFFFFFFFFFFC0
FFFFFFFFFFFFFFFFFF80
FFFFFFFFFFFFFFFFFE00
FFFFFFF0000000000000
FFFFFFF0000000000000
FFFFFFF0000000000000
FFFFFFF0000000000000
FFFFFFF0000000000000
FFFFFFF0000000000000
FFFFFFF0000000000000
FFFFFFF0000000000000
FFFFFFF0000000000000
FFFFFFF0000000000000
FFFFFFF0000000000000
FFFFFFF0000000000000
FFFFFFF0000000000000
FFFFFFF0000000000000
FFFFFFF0000000000000
FFFFFFF0000000000000
FFFFFFF0000000000000
FFFFFFF0000000000000
FFFFFFF0000000000000
FFFFFFF0000000000000
FFFFFFF0000000000000
FFFFFFF0000000000000
FFFFFFF0000000000000
FFFFFFFFFFFFFFFFC000
FFFFFFFFFFFFFFFFF000
FFFFFFFFFFFFFFFFF800
FFFFFFFFFFFFFFFFFC00
FFFFFFFFFFFFFFFFFC00
FFFFFFFFFFFFFFFFFE00
FFFFFFFFFFFFFFFFFE00
FFFFFFFFFFFFFFFFFE00
FFFFFFFFFFFFFFFFFE00
FFFFFFFFFFFFFFFFFE00
FFFFFFFFFFFFFFFFFE00
FFFFFFFFFFFFFFFFFE00
FFFFFFFFFFFFFFFFFE00
FFFFFFFFFFFFFFFFFE00
FFFFFFFFFFFFFFFFFE00
FFFFFFFFFFFFFFFFFE00
FFFFFFFFFFFFFFFFFE00
FFFFFFFFFFFFFFFFFC00
FFFFFFFFFFFFFFFFFC00
FFFFFFFFFFFFFFFFF800
FFFFFFFFFFFFFFFFF000
FFFFFFFFFFFFFFFFC000
FFFFFFF0000000000000
FFFFFFF0000000000000
FFFFFFF0000000000000
FFFFFFF0000000000000
FFFFFFF0000000000000
FFFFFFF0000000000000
FFFFFFF0000000000000
FFFFFFF0000000000000
FFFFFFF0000000000000
FFFFFFF0000000000000
FFFFFFF0000000000000
FFFFFFF0000000000000
FFFFFFF0000000000000
FFFFFFF0000000000000
FFFFFFF0000000000000
FFFFFFF0000000000000
FFFFFFF0000000000000
FFFFFFF0000000000000
FFFFFFF0000000000000
FFFFFFF0000000000000
FFFFFFF0000000000000
FFFFFFF0000000000000
FFFFFFF0000000000000
FFFFFFF0000000000000
FFFFFFF0000000000000
FFFFFFF0000000000000
FFFFFFF0000000000000
FFFFFFF0000000000000
FFFFFFFFFFFFFFFFFC00
FFFFFFFFFFFFFFFFFF00
FFFFFFFFFFFFFFFFFF80
FFFFFFFFFFFFFFFFFFC0
FFFFFFFFFFFFFFFFFFC0
FFFFFFFFFFFFFFFFFFE0
FFFFFFFFFFFFFFFFFFE0
FFFFFFFFFFFFFFFFFFE0
FFFFFFFFFFFFFFFFFFE0
FFFFFFFFFFFFFFFFFFE0
FFFFFFFFFFFFFFFFFFE0
FFFFFFFFFFFFFFFFFFE0
FFFFFFFFFFFFFFFFFFE0
FFFFFFFFFFFFFFFFFFE0
FFFFFFFFFFFFFFFFFFE0
FFFFFFFFFFFFFFFFFFE0
FFFFFFFFFFFFFFFFFFE0
FFFFFFFFFFFFFFFFFFE0
7FFFFFFFFFFFFFFFFFE0
7FFFFFFFFFFFFFFFFFC0
3FFFFFFFFFFFFFFFFFC0
3FFFFFFFFFFFFFFFFF80
0FFFFFFFFFFFFFFFFF00
03FFFFFFFFFFFFFFF800
ENDCHAR
STARTCHAR 0046
ENCODING 70
SWIDTH 511 0
DWIDTH 92 0
BBX 72 120 13 0
BITMAP
03FFFFFFFFFFFFFFC0
0FFFFFFFFFFFFFFFF8
3FFFFFFFFFFFFFFFFC
7FFFFFFFFFFFFFFFFE
7FFFFFFFFFFFFFFFFE
7FFFFFFFFFFFFFFFFE
FFFFFFFFFFFFFFFFFF
FFFFFFFFFFFFFFFFFF
FFFFFFFFFFFFFFFFFF
FFFFFFFFFFFFFFFFFF
FFFFFFFFFFFFFFFFFF
FFFFFFFFFFFFFFFFFF
FFFFFFFFFFFFFFFFFF
FFFFFFFFFFFFFFFFFF
FFFFFFFFFFFFFFFFFF
FFFFFFFFFFFFFFFFFF
FFFFFFFFFFFFFFFFFF
FFFFFFFFFFFFFFFFFF
FFFFFFFFFFFFFFFFFE
FFFFFFFFFFFFFFFFFE
FFFFFFFFFFFFFFFFFC
FFFFFFFFFFFFFFFFF8
FFFFFFFFFFFFFFFFE0
FFFFFFF00000000000
FFFFFFF00000000000
FFFFFFF00000000000
FFFFFFF00000000000
FFFFFFF00000000000
FFFFFFF00000000000
FFFFFFF00000000000
FFFFFFF00000000000
FFFFFFF00000000000
FFFFFFF00000000000
FFFFFFF00000000000
FFFFFFF00000000000
FFFFFFF00000000000
FFFFFFF00000000000
FFFFFFF00000000000
FFFFFFF00000000000
FFFFFFF00000000000
FFFFFFF00000000000
FFFFFFF00000000000
FFFFFFF00000000000
FFFFFFF00000000000
FFFFFFF00000000000
FFFFFFF00000000000
FFFFFFFFFFFFFFFE00
FFFFFFFFFFFFFFFF80
FFFFFFFFFFFFFFFFC0
FFFFFFFFFFFFFFFFE0
FFFFFFFFFFFFFFFFE0
FFFFFFFFFFFFFFFFF0
FFFFFFFFFFFFFFFFF0
FFFFFFFFFFFFFFFFF0
FFFFFFFFFFFFFFFFF0
FFFFFFFFFFFFFFFFF0
FFFFFFFFFFFFFFFFF0
FFFFFFFFFFFFFFFFF0
FFFFFFFFFFFFFFFFF0
FFFFFFFFFFFFFFFFF0
FFFFFFFFFFFFFFFFF0
FFFFFFFFFFFFFFFFF0
FFFFFFFFFFFFFFFFF0
FFFFFFFFFFFFFFFFF0
FFFFFFFFFFFFFFFFE0
FFFFFFFFFFFFFFFFC0
FFFFFFFFFFFFFFFF80
FFFFFFFFFFFFFFFE00
FFFFFFF00000000000
FFFFFFF00000000000
FFFFFFF00000000000
FFFFFFF00000000000
FFFFFFF00000000000
FFFFFFF00000000000
FFFFFFF00000000000
FFFFFFF00000000000
FFFFFFF00000000000
FFFFFFF00000000000
FFFFFFF00000000000
FFFFFFF00000000000
FFFFFFF00000000000
FFFFFFF00000000000
FFFFFFF00000000000
FFFFFFF00000000000
FFFFFFF00000000000
FFFFFFF00000000000
FFFFFFF00000000000
FFFFFFF00000000000
FFFFFFF00000000000
FFFFFFF00000000000
FFFFFFF00000000000
FFFFFFF00000000000
FFFFFFF00000000000
FFFFFFF00000000000
FFFFFFF00000000000
FFFFFFF00000000000
FFFFFFF00000000000
FFFFFFF00000000000
FFFFFFF00000000000
FFFFFFF00000000000
FFFFFFF00000000000
FFFFFFF00000000000
FFFFFFF00000000000
FFFFFFF00000000000
FFFFFFF00000000000
FFFFFFF00000000000
FFFFFFF00000000000
FFFFFFF00000000000
FFFFFFF00000000000
FFFFFFF00000000000
FFFFFFF00000000000
FFFFFFF00000000000
FFFFFFF00000000000
FFFFFFF00000000000
7FFFFFE00000000000
7FFFFFE00000000000
3FFFFFC00000000000
3FFFFF800000000000
0FFFFF000000000000
03FFFC000000000000
ENDCHAR
STARTCHAR 0047
ENCODING 71
SWIDTH 633 0
DWIDTH 114 0
BBX 91 120 10 0
BITMAP
0000000007FFFFFFFFF00000
00000003FFFFFFFFFFFFF800
0000003FFFFFFFFFFFFFFF00
000001FFFFFFFFFFFFFFFF80
000007FFFFFFFFFFFFFFFFC0
00001FFFFFFFFFFFFFFFFFC0
00007FFFFFFFFFFFFFFFFFE0
0000FFFFFFFFFFFFFFFFFFE0
0003FFFFFFFFFFFFFFFFFFE0
0007FFFFFFFFFFFFFFFFFFE0
000FFFFFFFFFFFFFFFFFFFE0
001FFFFFFFFFFFFFFFFFFFE0
003FFFFFFFFFFFFFFFFFFFE0
003FFFFFFFFFFFFFFFFFFFE0
007FFFFFFFFFFFFFFFFFFFE0
00FFFFFFFFFFFFFFFFFFFFE0
00FFFFFFFFFFFFFFFFFFFFE0
01FFFFFFFFFFFFFFFFFFFFE0
03FFFFFFFFFFFFFFFFFFFFE0
03FFFFFFFFFFFFFFFFFFFFE0
07FFFFFFFFFFFFFFFFFFFFC0
07FFFFFFFFFFFFFFFFFFFFC0
07FFFFFFFFFFFFFFFFFFFF80
0FFFFFFFFFFFFFFFFFFFFE00
0FFFFFFFFFFE000000000000
0FFFFFFFFF80000000000000
1FFFFFFFFC00000000000000
1FFFFFFFF800000000000000
1FFFFFFFF000000000000000
3FFFFFFFE000000000000000
3FFFFFFFC000000000000000
3FFFFFFF8000000000000000
3FFFFFFF8000000000000000
3FFFFFFF0000000000000000
7FFFFFFF0000000000000000
7FFFFFFE0000000000000000
7FFFFFFE0000000000000000
7FFFFFFE0000000000000000
7FFFFFFC0000000000000000
7FFFFFFC0000000000000000
7FFFFFFC0000000000000000
7FFFFFFC0000000000000000
7FFFFFF80000000000000000
FFFFFFF80000000000000000
FFFFFFF80000000000000000
FFFFFFF80000000000000000
FFFFFFF80000000000000000
FFFFFFF80007FFFFFFFFF800
FFFFFFF8001FFFFFFFFFFE00
FFFFFFF0007FFFFFFFFFFF80
FFFFFFF0007FFFFFFFFFFFC0
FFFFFFF000FFFFFFFFFFFFC0
FFFFFFF000FFFFFFFFFFFFE0
FFFFFFF001FFFFFFFFFFFFE0
FFFFFFF001FFFFFFFFFFFFE0
FFFFFFF001FFFFFFFFFFFFE0
FFFFFFF001FFFFFFFFFFFFE0
FFFFFFF001FFFFFFFFFFFFE0
FFFFFFF001FFFFFFFFFFFFE0
FFFFFFF001FFFFFFFFFFFFE0
FFFFFFF001FFFFFFFFFFFFE0
FFFFFFF001FFFFFFFFFFFFE0
FFFFFFF001FFFFFFFFFFFFE0
FFFFFFF000FFFFFFFFFFFFE0
FFFFFFF000FFFFFFFFFFFFE0
FFFFFFF000FFFFFFFFFFFFE0
FFFFFFF0007FFFFFFFFFFFE0
FFFFFFF0003FFFFFFFFFFFE0
FFFFFFF0000FFFFFFFFFFFE0
FFFFFFF000000001FFFFFFE0
FFFFFFF000000001FFFFFFE0
FFFFFFF000000001FFFFFFE0
FFFFFFF000000001FFFFFFE0
FFFFFFF000000001FFFFFFE0
7FFFFFF800000001FFFFFFE0
7FFFFFF800000001FFFFFFE0
7FFFFFF800000001FFFFFFE0
7FFFFFF800000001FFFFFFE0
7FFFFFF800000001FFFFFFE0
7FFFFFF800000001FFFFFFE0
7FFFFFF800000001FFFFFFE0
7FFFFFFC00000001FFFFFFE0
3FFFFFFC00000001FFFFFFE0
3FFFFFFC00000001FFFFFFE0
3FFFFFFE00000001FFFFFFE0
3FFFFFFE00000001FFFFFFE0
3FFFFFFE00000001FFFFFFE0
1FFFFFFF00000001FFFFFFE0
1FFFFFFF00000001FFFFFFE0
1FFFFFFF80000001FFFFFFE0
1FFFFFFFC0000001FFFFFFE0
0FFFFFFFC0000001FFFFFFE0
0FFFFFFFE0000001FFFFFFE0
0FFFFFFFF8000001FFFFFFE0
07FFFFFFFC000001FFFFFFE0
07FFFFFFFF000001FFFFFFE0
07FFFFFFFFE00001FFFFFFE0
03FFFFFFFFFFFFFFFFFFFFE0
03FFFFFFFFFFFFFFFFFFFFE0
01FFFFFFFFFFFFFFFFFFFFE0
01FFFFFFFFFFFFFFFFFFFFE0
00FFFFFFFFFFFFFFFFFFFFE0
007FFFFFFFFFFFFFFFFFFFE0
007FFFFFFFFFFFFFFFFFFFE0
003FFFFFFFFFFFFFFFFFFFE0
001FFFFFFFFFFFFFFFFFFFE0
000FFFFFFFFFFFFFFFFFFFE0
0007FFFFFFFFFFFFFFFFFFE0
0003FFFFFFFFFFFFFFFFFFE0
0001FFFFFFFFFFFFFFFFFFE0
0000FFFFFFFFFFFFFFFFFFE0
00007FFFFFFFFFFFFFFFFFC0
00001FFFFFFFFFFFFFFFFFC0
000007FFFFFFFFFFFFFFFF80
000001FFFFFFFFFFFFFFFF00
0000007FFFFFFFFFFFFFFE00
0000001FFFFFFFFFFFFFF800
00000001FFFFFFFFFFFFC000
000000001FFFFFFFFFF80000
00000000003FFFFFFC000000
ENDCHAR
STARTCHAR 0048
ENCODING 72
SWIDTH 677 0
DWIDTH 122 0
BBX 94 120 13 0
BITMAP
03FFFC0000000000001FFF00
0FFFFF000000000000FFFFC0
3FFFFFC00000000003FFFFF0
3FFFFFE0000000000FFFFFF8
7FFFFFE0000000001FFFFFF8
7FFFFFE0000000001FFFFFFC
FFFFFFF0000000003FFFFFFC
FFFFFFF0000000003FFFFFFC
FFFFFFF0000000003FFFFFFC
FFFFFFF0000000003FFFFFFC
FFFFFFF0000000003FFFFFFC
FFFFFFF0000000003FFFFFFC
FFFFFFF0000000003FFFFFFC
FFFFFFF0000000003FFFFFFC
FFFFFFF0000000003FFFFFFC
FFFFFFF0000000003FFFFFFC
FFFFFFF0000000003FFFFFFC
FFFFFFF0000000003FFFFFFC
FFFFFFF0000000003FFFFFFC
FFFFFFF0000000003FFFFFFC
FFFFFFF0000000003FFFFFFC
FFFFFFF0000000003FFFFFFC
FFFFFFF0000000003FFFFFFC
FFFFFFF0000000003FFFFFFC
FFFFFFF0000000003FFFFFFC
FFFFFFF0000000003FFFFFFC
FFFFFFF0000000003FFFFFFC
FFFFFFF0000000003FFFFFFC
FFFFFFF0000000003FFFFFFC
FFFFFFF0000000003FFFFFFC
FFFFFFF0000000003FFFFFFC
FFFFFFF0000000003FFFFFFC
FFFFFFF0000000003FFFFFFC
FFFFFFF0000000003FFFFFFC
FFFFFFF0000000003FFFFFFC
FFFFFFF0000000003FFFFFFC
FFFFFFF0000000003FFFFFFC
FFFFFFF0000000003FFFFFFC
FFFFFFF0000000003FFFFFFC
FFFFFFF0000000003FFFFFFC
FFFFFFF0000000003FFFFFFC
FFFFFFF0000000003FFFFFFC
FFFFFFF0000000003FFFFFFC
FFFFFFF0000000003FFFFFFC
FFFFFFF0000000003FFFFFFC
FFFFFFF0000000003FFFFFFC
FFFFFFFFFFFFFFFFFFFFFFFC
FFFFFFFFFFFFFFFFFFFFFFFC
FFFFFFFFFFFFFFFFFFFFFFFC
FFFFFFFFFFFFFFFFFFFFFFFC
FFFFFFFFFFFFFFFFFFFFFFFC
FFFFFFFFFFFFFFFFFFFFFFFC
FFFFFFFFFFFFFFFFFFFFFFFC
FFFFFFFFFFFFFFFFFFFFFFFC
FFFFFFFFFFFFFFFFFFFFFFFC
FFFFFFFFFFFFFFFFFFFFFFFC
FFFFFFFFFFFFFFFFFFFFFFFC
FFFFFFFFFFFFFFFFFFFFFFFC
FFFFFFFFFFFFFFFFFFFFFFFC
FFFFFFFFFFFFFFFFFFFFFFFC
FFFFFFFFFFFFFFFFFFFFFFFC
FFFFFFFFFFFFFFFFFFFFFFFC
FFFFFFFFFFFFFFFFFFFFFFFC
FFFFFFFFFFFFFFFFFFFFFFFC
FFFFFFFFFFFFFFFFFFFFFFFC
FFFFFFFFFFFFFFFFFFFFFFFC
FFFFFFFFFFFFFFFFFFFFFFFC
FFFFFFFFFFFFFFFFFFFFFFFC
FFFFFFF0000000003FFFFFFC
FFFFFFF0000000003FFFFFFC
FFFFFFF0000000003FFFFFFC
FFFFFFF0000000003FFFFFFC
FFFFFFF0000000003FFFFFFC
FFFFFFF0000000003FFFFFFC
FFFFFFF0000000003FFFFFFC
FFFFFFF0000000003FFFFFFC
FFFFFFF0000000003FFFFFFC
FFFFFFF0000000003FFFFFFC
FFFFFFF0000000003FFFFFFC
FFFFFFF0000000003FFFFFFC
FFFFFFF0000000003FFFFFFC
FFFFFFF0000000003FFFFFFC
FFFFFFF0000000003FFFFFFC
FFFFFFF0000000003FFFFFFC
FFFFFFF0000000003FFFFFFC
FFFFFFF0000000003FFFFFFC
FFFFFFF0000000003FFFFFFC
FFFFFFF0000000003FFFFFFC
FFFFFFF0000000003FFFFFFC
FFFFFFF0000000003FFFFFFC
FFFFFFF0000000003FFFFFFC
FFFFFFF0000000003FFFFFFC
FFFFFFF0000000003FFFFFFC
FFFFFFF0000000003FFFFFFC
FFFFFFF0000000003FFFFFFC
FFFFFFF0000000003FFFFFFC
FFFFFFF0000000003FFFFFFC
FFFFFFF0000000003FFFFFFC
FFFFFFF0000000003FFFFFFC
FFFFFFF0000000003FFFFFFC
FFFFFFF0000000003FFFFFFC
FFFFFFF0000000003FFFFFFC
FFFFFFF0000000003FFFFFFC
FFFFFFF0000000003FFFFFFC
FFFFFFF0000000003FFFFFFC
FFFFFFF0000000003FFFFFFC
FFFFFFF0000000003FFFFFFC
FFFFFFF0000000003FFFFFFC
FFFFFFF0000000003FFFFFFC
FFFFFFF0000000003FFFFFFC
FFFFFFF0000000003FFFFFFC
FFFFFFF0000000003FFFFFFC
FFFFFFF0000000003FFFFFFC
FFFFFFF0000000003FFFFFFC
7FFFFFE0000000001FFFFFF8
7FFFFFE0000000001FFFFFF8
3FFFFFC0000000000FFFFFF0
3FFFFF80000000000FFFFFF0
0FFFFE000000000003FFFFC0
03FFF0000000000000FFFF00
ENDCHAR
STARTCHAR 0049
ENCODING 73
SWIDTH 305 0
DWIDTH 55 0
BBX 28 120 13 0
BITMAP
03FFFC00
0FFFFF80
3FFFFFC0
3FFFFFE0
7FFFFFE0
7FFFFFF0
FFFFFFF0
FFFFFFF0
FFFFFFF0
FFFFFFF0
FFFFFFF0
FFFFFFF0
FFFFFFF0
FFFFFFF0
FFFFFFF0
FFFFFFF0
FFFFFFF0
FFFFFFF0
FFFFFFF0
FFFFFFF0
FFFFFFF0
FFFFFFF0
FFFFFFF0
FFFFFFF0
FFFFFFF0
FFFFFFF0
FFFFFFF0
FFFFFFF0
FFFFFFF0
FFFFFFF0
FFFFFFF0
FFFFFFF0
FFFFFFF0
FFFFFFF0
FFFFFFF0
FFFFFFF0
FFFFFFF0
FFFFFFF0
FFFFFFF0
FFFFFFF0
FFFFFFF0
FFFFFFF0
FFFFFFF0
FFFFFFF0
FFFFFFF0
FFFFFFF0
FFFFFFF0
FFFFFFF0
FFFFFFF0
FFFFFFF0
FFFFFFF0
FFFFFFF0
FFFFFFF0
FFFFFFF0
FFFFFFF0
FFFFFFF0
FFFFFFF0
FFFFFFF0
FFFFFFF0
FFFFFFF0
FFFFFFF0
FFFFFFF0
FFFFFFF0
FFFFFFF0
FFFFFFF0
FFFFFFF0
FFFFFFF0
FFFFFFF0
FFFFFFF0
FFFFFFF0
FFFFFFF0
FFFFFFF0
FFFFFFF0
FFFFFFF0
FFFFFFF0
FFFFFFF0
FFFFFFF0
FFFFFFF0
FFFFFFF0
FFFFFFF0
FFFFFFF0
FFFFFFF0
FFFFFFF0
FFFFFFF0
FFFFFFF0
FFFFFFF0
FFFFFFF0
FFFFFFF0
FFFFFFF0
FFFFFFF0
FFFFFFF0
FFFFFFF0
FFFFFFF0
FFFFFFF0
FFFFFFF0
FFFFFFF0
FFFFFFF0
FFFFFFF0
FFFFFFF0
FFFFFFF0
FFFFFFF0
FFFFFFF0
FFFFFFF0
FFFFFFF0
FFFFFFF0
FFFFFFF0
FFFFFFF0
FFFFFFF0
FFFFFFF0
FFFFFFF0
FFFFFFF0
FFFFFFF0
FFFFFFF0
FFFFFFF0
7FFFFFE0
7FFFFFE0
3FFFFFC0
3FFFFFC0
0FFFFF00
03FFFC00
ENDCHAR
STARTCHAR 004A
ENCODING 74
SWIDTH 366 0
DWIDTH 66 0
BBX 59 120 -4 0
BITMAP
0003FFFFFFFFFC00
000FFFFFFFFFFF00
001FFFFFFFFFFF80
003FFFFFFFFFFFC0
007FFFFFFFFFFFC0
007FFFFFFFFFFFE0
007FFFFFFFFFFFE0
007FFFFFFFFFFFE0
00FFFFFFFFFFFFE0
00FFFFFFFFFFFFE0
00FFFFFFFFFFFFE0
00FFFFFFFFFFFFE0
00FFFFFFFFFFFFE0
00FFFFFFFFFFFFE0
007FFFFFFFFFFFE0
007FFFFFFFFFFFE0
007FFFFFFFFFFFE0
007FFFFFFFFFFFE0
007FFFFFFFFFFFE0
003FFFFFFFFFFFE0
003FFFFFFFFFFFE0
001FFFFFFFFFFFE0
0007FFFFFFFFFFE0
00000001FFFFFFE0
00000001FFFFFFE0
00000001FFFFFFE0
00000001FFFFFFE0
00000001FFFFFFE0
00000001FFFFFFE0
00000001FFFFFFE0
00000001FFFFFFE0
00000001FFFFFFE0
00000001FFFFFFE0
00000001FFFFFFE0
00000001FFFFFFE0
00000001FFFFFFE0
00000001FFFFFFE0
00000001FFFFFFE0
00000001FFFFFFE0
00000001FFFFFFE0
00000001FFFFFFE0
00000001FFFFFFE0
00000001FFFFFFE0
00000001FFFFFFE0
00000001FFFFFFE0
00000001FFFFFFE0
00000001FFFFFFE0
00000001FFFFFFE0
00000001FFFFFFE0
00000001FFFFFFE0
00000001FFFFFFE0
00000001FFFFFFE0
00000001FFFFFFE0
00000001FFFFFFE0
00000001FFFFFFE0
00000001FFFFFFE0
00000001FFFFFFE0
00000001FFFFFFE0
00000001FFFFFFE0
00000001FFFFFFE0
00000001FFFFFFE0
00000001FFFFFFE0
00000001FFFFFFE0
00000001FFFFFFE0
00000001FFFFFFE0
00000001FFFFFFE0
00000001FFFFFFE0
00000001FFFFFFE0
00000001FFFFFFE0
00000001FFFFFFE0
00000001FFFFFFE0
00000001FFFFFFE0
00000001FFFFFFE0
00000001FFFFFFE0
00000001FFFFFFE0
00000001FFFFFFE0
00000001FFFFFFE0
00000001FFFFFFE0
00000001FFFFFFE0
00000001FFFFFFE0
00000001FFFFFFE0
00000001FFFFFFE0
00000001FFFFFFE0
00000003FFFFFFE0
00000003FFFFFFE0
00000003FFFFFFE0
00000003FFFFFFE0
00000003FFFFFFE0
00000003FFFFFFE0
00000007FFFFFFE0
00000007FFFFFFE0
00000007FFFFFFE0
0000000FFFFFFFE0
0000000FFFFFFFE0
0000003FFFFFFFC0
00000FFFFFFFFFC0
0FFFFFFFFFFFFFC0
1FFFFFFFFFFFFFC0
3FFFFFFFFFFFFFC0
7FFFFFFFFFFFFF80
7FFFFFFFFFFFFF80
FFFFFFFFFFFFFF00
FFFFFFFFFFFFFF00
FFFFFFFFFFFFFF00
FFFFFFFFFFFFFE00
FFFFFFFFFFFFFC00
FFFFFFFFFFFFFC00
FFFFFFFFFFFFF800
FFFFFFFFFFFFF000
FFFFFFFFFFFFE000
FFFFFFFFFFFFC000
FFFFFFFFFFFF8000
7FFFFFFFFFFF0000
7FFFFFFFFFFE0000
7FFFFFFFFFF80000
3FFFFFFFFFE00000
1FFFFFFFFF800000
0FFFFFFFFC000000
03FFFFFFC0000000
001FFFE000000000
ENDCHAR
STARTCHAR 004B
ENCODING 75
SWIDTH 616 0
DWIDTH 111 0
BBX 94 120 13 2
BITMAP
03FFFC000000000000FFF800
0FFFFF80000000000FFFFE00
3FFFFFC0000000003FFFFF80
3FFFFFE0000000007FFFFF80
7FFFFFE000000001FFFFFFC0
7FFFFFF000000003FFFFFFC0
FFFFFFF000000007FFFFFFC0
FFFFFFF00000000FFFFFFFC0
FFFFFFF00000001FFFFFFFC0
FFFFFFF00000001FFFFFFF80
FFFFFFF00000003FFFFFFF80
FFFFFFF00000007FFFFFFF80
FFFFFFF0000000FFFFFFFF00
FFFFFFF0000001FFFFFFFE00
FFFFFFF0000003FFFFFFFC00
FFFFFFF0000007FFFFFFF800
FFFFFFF000000FFFFFFFF000
FFFFFFF000000FFFFFFFE000
FFFFFFF000001FFFFFFFC000
FFFFFFF000003FFFFFFF8000
FFFFFFF000007FFFFFFF8000
FFFFFFF00000FFFFFFFF0000
FFFFFFF00001FFFFFFFE0000
FFFFFFF00003FFFFFFFC0000
FFFFFFF00003FFFFFFF80000
FFFFFFF00007FFFFFFF00000
FFFFFFF0000FFFFFFFE00000
FFFFFFF0001FFFFFFFC00000
FFFFFFF0003FFFFFFF800000
FFFFFFF0007FFFFFFF000000
FFFFFFF000FFFFFFFE000000
FFFFFFF001FFFFFFFE000000
FFFFFFF001FFFFFFFC000000
FFFFFFF003FFFFFFF8000000
FFFFFFF007FFFFFFF0000000
FFFFFFF00FFFFFFFE0000000
FFFFFFF01FFFFFFFC0000000
FFFFFFF03FFFFFFF80000000
FFFFFFF07FFFFFFF00000000
FFFFFFF0FFFFFFFE00000000
FFFFFFF0FFFFFFFC00000000
FFFFFFF1FFFFFFF800000000
FFFFFFF3FFFFFFF800000000
FFFFFFF7FFFFFFF000000000
FFFFFFFFFFFFFFE000000000
FFFFFFFFFFFFFFC000000000
FFFFFFFFFFFFFF8000000000
FFFFFFFFFFFFFF0000000000
FFFFFFFFFFFFFE0000000000
FFFFFFFFFFFFFC0000000000
FFFFFFFFFFFFF80000000000
FFFFFFFFFFFFF00000000000
FFFFFFFFFFFFE00000000000
FFFFFFFFFFFFC00000000000
FFFFFFFFFFFFC00000000000
FFFFFFFFFFFF800000000000
FFFFFFFFFFFF000000000000
FFFFFFFFFFFE000000000000
FFFFFFFFFFFC000000000000
FFFFFFFFFFF8000000000000
FFFFFFFFFFF8000000000000
FFFFFFFFFFFC000000000000
FFFFFFFFFFFE000000000000
FFFFFFFFFFFF000000000000
FFFFFFFFFFFF800000000000
FFFFFFFFFFFFC00000000000
FFFFFFFFFFFFE00000000000
FFFFFFFFFFFFF00000000000
FFFFFFFFFFFFF80000000000
FFFFFFFFFFFFFC0000000000
FFFFFFFFFFFFFE0000000000
FFFFFFFFFFFFFF0000000000
FFFFFFFFFFFFFF8000000000
FFFFFFFFFFFFFFC000000000
FFFFFFFFFFFFFFE000000000
FFFFFFFFFFFFFFF000000000
FFFFFFFFFFFFFFF800000000
FFFFFFFFFFFFFFFC00000000
FFFFFFFFFFFFFFFE00000000
FFFFFFF7FFFFFFFF00000000
FFFFFFF3FFFFFFFF80000000
FFFFFFF1FFFFFFFFC0000000
FFFFFFF1FFFFFFFFE0000000
FFFFFFF0FFFFFFFFF0000000
FFFFFFF07FFFFFFFF8000000
FFFFFFF03FFFFFFFFC000000
FFFFFFF01FFFFFFFFE000000
FFFFFFF00FFFFFFFFF000000
FFFFFFF007FFFFFFFF800000
FFFFFFF003FFFFFFFFC00000
FFFFFFF001FFFFFFFFE00000
FFFFFFF000FFFFFFFFF00000
FFFFFFF0007FFFFFFFF80000
FFFFFFF0003FFFFFFFFC0000
FFFFFFF0003FFFFFFFFE0000
FFFFFFF0001FFFFFFFFF0000
FFFFFFF0000FFFFFFFFF8000
FFFFFFF00007FFFFFFFFC000
FFFFFFF00003FFFFFFFFE000
FFFFFFF00001FFFFFFFFF000
FFFFFFF00000FFFFFFFFF800
FFFFFFF000007FFFFFFFFC00
FFFFFFF000003FFFFFFFFE00
FFFFFFF000001FFFFFFFFF00
FFFFFFF000000FFFFFFFFF80
FFFFFFF0000007FFFFFFFFC0
FFFFFFF0000003FFFFFFFFE0
FFFFFFF0000003FFFFFFFFF0
FFFFFFF0000001FFFFFFFFF8
FFFFFFF0000000FFFFFFFFF8
FFFFFFF00000007FFFFFFFF8
FFFFFFF00000003FFFFFFFFC
FFFFFFF00000001FFFFFFFFC
FFFFFFF00000000FFFFFFFFC
7FFFFFE000000007FFFFFFFC
7FFFFFE000000003FFFFFFF8
3FFFFFC000000001FFFFFFF8
3FFFFF8000000000FFFFFFF0
0FFFFE00000000003FFFFFE0
03FFF000000000000FFFFF80
ENDCHAR
STARTCHAR 004C
ENCODING 76
SWIDTH 483 0
DWIDTH 87 0
BBX 70 120 13 0
BITMAP
03FFFC000000000000
0FFFFF800000000000
3FFFFFC00000000000
3FFFFFE00000000000
7FFFFFE00000000000
7FFFFFF00000000000
FFFFFFF00000000000
FFFFFFF00000000000
FFFFFFF00000000000
FFFFFFF00000000000
FFFFFFF00000000000
FFFFFFF00000000000
FFFFFFF00000000000
FFFFFFF00000000000
FFFFFFF00000000000
FFFFFFF00000000000
FFFFFFF00000000000
FFFFFFF00000000000
FFFFFFF00000000000
FFFFFFF00000000000
FFFFFFF00000000000
FFFFFFF00000000000
FFFFFFF00000000000
FFFFFFF00000000000
FFFFFFF00000000000
FFFFFFF00000000000
FFFFFFF00000000000
FFFFFFF00000000000
FFFFFFF00000000000
FFFFFFF00000000000
FFFFFFF00000000000
FFFFFFF00000000000
FFFFFFF00000000000
FFFFFFF00000000000
FFFFFFF00000000000
FFFFFFF00000000000
FFFFFFF00000000000
FFFFFFF00000000000
FFFFFFF00000000000
FFFFFFF00000000000
FFFFFFF00000000000
FFFFFFF00000000000
FFFFFFF00000000000
FFFFFFF00000000000
FFFFFFF00000000000
FFFFFFF00000000000
FFFFFFF00000000000
FFFFFFF00000000000
FFFFFFF00000000000
FFFFFFF00000000000
FFFFFFF00000000000
FFFFFFF00000000000
FFFFFFF00000000000
FFFFFFF00000000000
FFFFFFF00000000000
FFFFFFF00000000000
FFFFFFF00000000000
FFFFFFF00000000000
FFFFFFF00000000000
FFFFFFF00000000000
FFFFFFF00000000000
FFFFFFF00000000000
FFFFFFF00000000000
FFFFFFF00000000000
FFFFFFF00000000000
FFFFFFF00000000000
FFFFFFF00000000000
FFFFFFF00000000000
FFFFFFF00000000000
FFFFFFF00000000000
FFFFFFF00000000000
FFFFFFF00000000000
FFFFFFF00000000000
FFFFFFF00000000000
FFFFFFF00000000000
FFFFFFF00000000000
FFFFFFF00000000000
FFFFFFF00000000000
FFFFFFF00000000000
FFFFFFF00000000000
FFFFFFF00000000000
FFFFFFF00000000000
FFFFFFF00000000000
FFFFFFF00000000000
FFFFFFF00000000000
FFFFFFF00000000000
FFFFFFF00000000000
FFFFFFF00000000000
FFFFFFF00000000000
FFFFFFF00000000000
FFFFFFF00000000000
FFFFFFF00000000000
FFFFFFF00000000000
FFFFFFF00000000000
FFFFFFF00000000000
FFFFFFF00000000000
FFFFFFFFFFFFFFFF80
FFFFFFFFFFFFFFFFE0
FFFFFFFFFFFFFFFFF0
FFFFFFFFFFFFFFFFF8
FFFFFFFFFFFFFFFFF8
FFFFFFFFFFFFFFFFFC
FFFFFFFFFFFFFFFFFC
FFFFFFFFFFFFFFFFFC
FFFFFFFFFFFFFFFFFC
FFFFFFFFFFFFFFFFFC
FFFFFFFFFFFFFFFFFC
FFFFFFFFFFFFFFFFFC
FFFFFFFFFFFFFFFFFC
FFFFFFFFFFFFFFFFFC
FFFFFFFFFFFFFFFFFC
FFFFFFFFFFFFFFFFFC
FFFFFFFFFFFFFFFFFC
FFFFFFFFFFFFFFFFFC
7FFFFFFFFFFFFFFFFC
7FFFFFFFFFFFFFFFF8
3FFFFFFFFFFFFFFFF8
3FFFFFFFFFFFFFFFF0
0FFFFFFFFFFFFFFFE0
03FFFFFFFFFFFFFF00
ENDCHAR
STARTCHAR 004D
ENCODING 77
SWIDTH 816 0
DWIDTH 147 0
BBX 118 120 13 -2
BITMAP
03FFFFE0000000000000001FFFFF00
0FFFFFFC000000000000007FFFFFE0
3FFFFFFE00000000000001FFFFFFF0
7FFFFFFF00000000000003FFFFFFF8
7FFFFFFF80000000000003FFFFFFF8
FFFFFFFF80000000000007FFFFFFFC
FFFFFFFFC000000000000FFFFFFFFC
FFFFFFFFC000000000000FFFFFFFFC
FFFFFFFFE000000000000FFFFFFFFC
FFFFFFFFE000000000001FFFFFFFFC
FFFFFFFFF000000000001FFFFFFFFC
FFFFFFFFF000000000003FFFFFFFFC
FFFFFFFFF800000000003FFFFFFFFC
FFFFFFFFF800000000007FFFFFFFFC
FFFFFFFFF800000000007FFFFFFFFC
FFFFFFFFFC00000000007FFFFFFFFC
FFFFFFFFFC0000000000FFFFFFFFFC
FFFFFFFFFE0000000000FFFFFFFFFC
FFFFFFFFFE0000000001FFFFFFFFFC
FFFFFFFFFE0000000001FFFFFFFFFC
FFFFFFFFFF0000000001FFFFFFFFFC
FFFFFFFFFF0000000003FFFFFFFFFC
FFFFFFFFFF8000000003FFFFFFFFFC
FFFFFFFFFF8000000007FFFFFFFFFC
FFFFFFFFFF8000000007FFFFFFFFFC
FFFFFFFFFFC000000007FFFFFFFFFC
FFFFFFFFFFC00000000FFFFFFFFFFC
FFFFFFFFFFE00000000FFFFFFFFFFC
FFFFFFFFFFE00000001FFFFFFFFFFC
FFFFFFFFFFE00000001FFFFFFFFFFC
FFFFFFFFFFF00000001FFFFFFFFFFC
FFFFFFFFFFF00000003FFFFFFFFFFC
FFFFFFFFFFF80000003FFFFFFFFFFC
FFFFFFFFFFF80000007FFFFFFFFFFC
FFFFFFFFFFF80000007FFFFFFFFFFC
FFFFFFFFFFFC0000007FFFFFFFFFFC
FFFFFFFFFFFC000000FFFFFFFFFFFC
FFFFFFFFFFFE000000FFFFFFFFFFFC
FFFFFFFFFFFE000001FFFFFFFFFFFC
FFFFFFFFFFFE000001FFFFFFFFFFFC
FFFFFFFFFFFF000001FFFFFFFFFFFC
FFFFFFFFFFFF000003FFFFFFFFFFFC
FFFFFFFFFFFF800003FFFFFFFFFFFC
FFFFFFFFFFFF800007FFFFFFFFFFFC
FFFFFFFFFFFF800007FFFFFFFFFFFC
FFFFFFFFFFFFC00007FFFFFFFFFFFC
FFFFFFFFFFFFC0000FFFFFFFFFFFFC
FFFFFFFFFFFFE0000FFFFFFFFFFFFC
FFFFFFFFFFFFE0001FFFFFFFFFFFFC
FFFFFFFFFFFFE0001FFFFFFFFFFFFC
FFFFFFFFFFFFF0001FFFFFFFFFFFFC
FFFFFFBFFFFFF0003FFFFFF7FFFFFC
FFFFFFBFFFFFF8003FFFFFF7FFFFFC
FFFFFF9FFFFFF8003FFFFFE7FFFFFC
FFFFFF9FFFFFF8007FFFFFE7FFFFFC
FFFFFF9FFFFFFC007FFFFFE7FFFFFC
FFFFFF8FFFFFFC00FFFFFFC7FFFFFC
FFFFFF8FFFFFFE00FFFFFFC7FFFFFC
FFFFFF87FFFFFE00FFFFFF87FFFFFC
FFFFFF87FFFFFE01FFFFFF87FFFFFC
FFFFFF87FFFFFF01FFFFFF87FFFFFC
FFFFFF83FFFFFF03FFFFFF07FFFFFC
FFFFFF83FFFFFF83FFFFFF07FFFFFC
FFFFFF81FFFFFF83FFFFFF07FFFFFC
FFFFFF81FFFFFF87FFFFFE07FFFFFC
FFFFFF81FFFFFFC7FFFFFE07FFFFFC
FFFFFF80FFFFFFCFFFFFFC07FFFFFC
FFFFFF80FFFFFFEFFFFFFC07FFFFFC
FFFFFF80FFFFFFFFFFFFFC07FFFFFC
FFFFFF807FFFFFFFFFFFF807FFFFFC
FFFFFF807FFFFFFFFFFFF807FFFFFC
FFFFFF803FFFFFFFFFFFF807FFFFFC
FFFFFF803FFFFFFFFFFFF007FFFFFC
FFFFFF803FFFFFFFFFFFF007FFFFFC
FFFFFF801FFFFFFFFFFFE007FFFFFC
FFFFFF801FFFFFFFFFFFE007FFFFFC
FFFFFF800FFFFFFFFFFFE007FFFFFC
FFFFFF800FFFFFFFFFFFC007FFFFFC
FFFFFF800FFFFFFFFFFFC007FFFFFC
FFFFFF8007FFFFFFFFFFC007FFFFFC
FFFFFF8007FFFFFFFFFF8007FFFFFC
FFFFFF8007FFFFFFFFFF8007FFFFFC
FFFFFF8003FFFFFFFFFF0007FFFFFC
FFFFFF8003FFFFFFFFFF0007FFFFFC
FFFFFF8001FFFFFFFFFF0007FFFFFC
FFFFFF8001FFFFFFFFFE0007FFFFFC
FFFFFF8001FFFFFFFFFE0007FFFFFC
FFFFFF8000FFFFFFFFFE0007FFFFFC
FFFFFF8000FFFFFFFFFC0007FFFFFC
FFFFFF80007FFFFFFFFC0007FFFFFC
FFFFFF80007FFFFFFFF80007FFFFFC
FFFFFF80007FFFFFFFF80007FFFFFC
FFFFFF80003FFFFFFFF80007FFFFFC
FFFFFF80003FFFFFFFF00007FFFFFC
FFFFFF80001FFFFFFFF00007FFFFFC
FFFFFF80001FFFFFFFE00007FFFFFC
FFFFFF80001FFFFFFFE00007FFFFFC
FFFFFF80000FFFFFFFE00007FFFFFC
FFFFFF80000FFFFFFFC00007FFFFFC
FFFFFF800007FFFFFFC00007FFFFFC
FFFFFF800007FFFFFF800007FFFFFC
FFFFFF800003FFFFFF800007FFFFFC
FFFFFF800003FFFFFF000007FFFFFC
FFFFFF800001FFFFFE000007FFFFFC
FFFFFF800000FFFFFC000007FFFFFC
FFFFFF8000003FFFF8000007FFFFFC
FFFFFF8000000FFFC0000007FFFFFC
FFFFFF800000000000000007FFFFFC
FFFFFF800000000000000007FFFFFC
FFFFFF800000000000000007FFFFFC
FFFFFF800000000000000007FFFFFC
FFFFFF800000000000000007FFFFFC
FFFFFF800000000000000007FFFFFC
FFFFFF800000000000000007FFFFFC
FFFFFF000000000000000003FFFFFC
FFFFFE000000000000000003FFFFF8
FFFFFC000000000000000001FFFFF8
FFFFF8000000000000000000FFFFF0
7FFFE00000000000000000003FFFF0
7FFC0000000000000000000007FFC0
ENDCHAR
STARTCHAR 004E
ENCODING 78
SWIDTH 711 0
DWIDTH 128 0
BBX 99 120 13 1
BITMAP
03FFF0000000000000007FF800
1FFFFE00000000000007FFFF00
3FFFFF0000000000001FFFFF80
7FFFFF8000000000003FFFFFC0
7FFFFFC000000000007FFFFFC0
7FFFFFC000000000007FFFFFE0
FFFFFFE00000000000FFFFFFE0
FFFFFFF00000000000FFFFFFE0
FFFFFFF80000000000FFFFFFE0
FFFFFFFC0000000000FFFFFFE0
FFFFFFFC0000000000FFFFFFE0
FFFFFFFE0000000000FFFFFFE0
FFFFFFFF0000000000FFFFFFE0
FFFFFFFF0000000000FFFFFFE0
FFFFFFFF8000000000FFFFFFE0
FFFFFFFFC000000000FFFFFFE0
FFFFFFFFE000000000FFFFFFE0
FFFFFFFFE000000000FFFFFFE0
FFFFFFFFF000000000FFFFFFE0
FFFFFFFFF800000000FFFFFFE0
FFFFFFFFF800000000FFFFFFE0
FFFFFFFFFC00000000FFFFFFE0
FFFFFFFFFE00000000FFFFFFE0
FFFFFFFFFE00000000FFFFFFE0
FFFFFFFFFF00000000FFFFFFE0
FFFFFFFFFF80000000FFFFFFE0
FFFFFFFFFF80000000FFFFFFE0
FFFFFFFFFFC0000000FFFFFFE0
FFFFFFFFFFE0000000FFFFFFE0
FFFFFFFFFFF0000000FFFFFFE0
FFFFFFFFFFF0000000FFFFFFE0
FFFFFFFFFFF8000000FFFFFFE0
FFFFFFFFFFFC000000FFFFFFE0
FFFFFFFFFFFC000000FFFFFFE0
FFFFFFFFFFFE000000FFFFFFE0
FFFFFFFFFFFF000000FFFFFFE0
FFFFFFFFFFFF000000FFFFFFE0
FFFFFFFFFFFF800000FFFFFFE0
FFFFFFFFFFFFC00000FFFFFFE0
FFFFFFFFFFFFE00000FFFFFFE0
FFFFFFFFFFFFE00000FFFFFFE0
FFFFFFFFFFFFF00000FFFFFFE0
FFFFFFFFFFFFF80000FFFFFFE0
FFFFFFFFFFFFF80000FFFFFFE0
FFFFFFFFFFFFFC0000FFFFFFE0
FFFFFFFFFFFFFE0000FFFFFFE0
FFFFFFFFFFFFFF0000FFFFFFE0
FFFFFFFFFFFFFF0000FFFFFFE0
FFFFFFFFFFFFFF8000FFFFFFE0
FFFFFFFFFFFFFFC000FFFFFFE0
FFFFFFFFFFFFFFC000FFFFFFE0
FFFFFFEFFFFFFFE000FFFFFFE0
FFFFFFEFFFFFFFF000FFFFFFE0
FFFFFFE7FFFFFFF000FFFFFFE0
FFFFFFE3FFFFFFF800FFFFFFE0
FFFFFFE3FFFFFFFC00FFFFFFE0
FFFFFFE1FFFFFFFE00FFFFFFE0
FFFFFFE0FFFFFFFE00FFFFFFE0
FFFFFFE0FFFFFFFF00FFFFFFE0
FFFFFFE07FFFFFFF80FFFFFFE0
FFFFFFE03FFFFFFF80FFFFFFE0
FFFFFFE01FFFFFFFC0FFFFFFE0
FFFFFFE01FFFFFFFE0FFFFFFE0
FFFFFFE00FFFFFFFE0FFFFFFE0
FFFFFFE007FFFFFFF0FFFFFFE0
FFFFFFE007FFFFFFF8FFFFFFE0
FFFFFFE003FFFFFFFCFFFFFFE0
FFFFFFE001FFFFFFFCFFFFFFE0
FFFFFFE001FFFFFFFEFFFFFFE0
FFFFFFE000FFFFFFFFFFFFFFE0
FFFFFFE0007FFFFFFFFFFFFFE0
FFFFFFE0007FFFFFFFFFFFFFE0
FFFFFFE0003FFFFFFFFFFFFFE0
FFFFFFE0001FFFFFFFFFFFFFE0
FFFFFFE0000FFFFFFFFFFFFFE0
FFFFFFE0000FFFFFFFFFFFFFE0
FFFFFFE00007FFFFFFFFFFFFE0
FFFFFFE00003FFFFFFFFFFFFE0
FFFFFFE00003FFFFFFFFFFFFE0
FFFFFFE00001FFFFFFFFFFFFE0
FFFFFFE00000FFFFFFFFFFFFE0
FFFFFFE00000FFFFFFFFFFFFE0
FFFFFFE000007FFFFFFFFFFFE0
FFFFFFE000003FFFFFFFFFFFE0
FFFFFFE000003FFFFFFFFFFFE0
FFFFFFE000001FFFFFFFFFFFE0
FFFFFFE000000FFFFFFFFFFFE0
FFFFFFE0000007FFFFFFFFFFE0
FFFFFFE0000007FFFFFFFFFFE0
FFFFFFE0000003FFFFFFFFFFE0
FFFFFFE0000001FFFFFFFFFFE0
FFFFFFE0000001FFFFFFFFFFE0
FFFFFFE0000000FFFFFFFFFFE0
FFFFFFE00000007FFFFFFFFFE0
FFFFFFE00000003FFFFFFFFFE0
FFFFFFE00000003FFFFFFFFFE0
FFFFFFE00000001FFFFFFFFFE0
FFFFFFE00000000FFFFFFFFFE0
FFFFFFE00000000FFFFFFFFFE0
FFFFFFE000000007FFFFFFFFE0
FFFFFFE000000003FFFFFFFFE0
FFFFFFE000000003FFFFFFFFE0
FFFFFFE000000001FFFFFFFFE0
FFFFFFE000000000FFFFFFFFE0
FFFFFFE0000000007FFFFFFFE0
FFFFFFE0000000007FFFFFFFE0
FFFFFFE0000000003FFFFFFFE0
FFFFFFE0000000001FFFFFFFE0
FFFFFFE0000000001FFFFFFFE0
FFFFFFE0000000000FFFFFFFE0
FFFFFFE00000000007FFFFFFE0
FFFFFFE00000000003FFFFFFE0
FFFFFFE00000000003FFFFFFE0
FFFFFFE00000000001FFFFFFE0
7FFFFFC00000000000FFFFFFC0
7FFFFFC000000000007FFFFFC0
3FFFFF8000000000003FFFFF80
3FFFFF0000000000001FFFFF00
0FFFFC0000000000000FFFFE00
03FFE000000000000001FFF000
ENDCHAR
STARTCHAR 004F
ENCODING 79
SWIDTH 705 0
DWIDTH 127 0
BBX 105 120 10 0
BITMAP
00000000000FFFFC000000000000
0000000007FFFFFFF00000000000
000000007FFFFFFFFF0000000000
00000003FFFFFFFFFFE000000000
0000000FFFFFFFFFFFF800000000
0000007FFFFFFFFFFFFF00000000
000000FFFFFFFFFFFFFFC0000000
000003FFFFFFFFFFFFFFE0000000
00000FFFFFFFFFFFFFFFF8000000
00001FFFFFFFFFFFFFFFFC000000
00003FFFFFFFFFFFFFFFFE000000
0000FFFFFFFFFFFFFFFFFF800000
0001FFFFFFFFFFFFFFFFFFC00000
0003FFFFFFFFFFFFFFFFFFE00000
0007FFFFFFFFFFFFFFFFFFF00000
0007FFFFFFFFFFFFFFFFFFF00000
000FFFFFFFFFFFFFFFFFFFF80000
001FFFFFFFFFFFFFFFFFFFFC0000
003FFFFFFFFFFFFFFFFFFFFE0000
003FFFFFFFFFFFFFFFFFFFFE0000
007FFFFFFFFFFFFFFFFFFFFF0000
00FFFFFFFFFFFFFFFFFFFFFF8000
00FFFFFFFFFFFFFFFFFFFFFF8000
01FFFFFFFFFFFFFFFFFFFFFFC000
01FFFFFFFFFFC1FFFFFFFFFFC000
03FFFFFFFFE00003FFFFFFFFE000
03FFFFFFFF0000007FFFFFFFE000
07FFFFFFFC0000001FFFFFFFF000
07FFFFFFF000000007FFFFFFF000
07FFFFFFE000000003FFFFFFF000
0FFFFFFFC000000001FFFFFFF800
0FFFFFFFC000000001FFFFFFF800
0FFFFFFF8000000000FFFFFFF800
1FFFFFFF00000000007FFFFFFC00
1FFFFFFF00000000007FFFFFFC00
1FFFFFFE00000000003FFFFFFC00
1FFFFFFE00000000003FFFFFFE00
3FFFFFFE00000000003FFFFFFE00
3FFFFFFE00000000003FFFFFFE00
3FFFFFFC00000000001FFFFFFE00
3FFFFFFC00000000001FFFFFFE00
3FFFFFFC00000000001FFFFFFF00
7FFFFFFC00000000001FFFFFFF00
7FFFFFFC00000000001FFFFFFF00
7FFFFFFC00000000001FFFFFFF00
7FFFFFFC00000000000FFFFFFF00
7FFFFFF800000000000FFFFFFF00
7FFFFFF800000000000FFFFFFF00
7FFFFFF800000000000FFFFFFF80
FFFFFFF800000000000FFFFFFF80
FFFFFFF800000000000FFFFFFF80
FFFFFFF800000000000FFFFFFF80
FFFFFFF800000000000FFFFFFF80
FFFFFFF800000000000FFFFFFF80
FFFFFFF800000000000FFFFFFF80
FFFFFFF800000000000FFFFFFF80
FFFFFFF800000000000FFFFFFF80
FFFFFFF800000000000FFFFFFF80
FFFFFFF800000000000FFFFFFF80
FFFFFFF800000000000FFFFFFF80
FFFFFFF800000000000FFFFFFF80
FFFFFFF800000000000FFFFFFF80
FFFFFFF800000000000FFFFFFF80
FFFFFFF800000000000FFFFFFF80
FFFFFFF800000000000FFFFFFF80
FFFFFFF800000000000FFFFFFF80
FFFFFFF800000000000FFFFFFF80
FFFFFFF800000000000FFFFFFF80
FFFFFFF800000000000FFFFFFF80
FFFFFFF800000000000FFFFFFF80
FFFFFFF800000000000FFFFFFF80
7FFFFFF800000000000FFFFFFF00
7FFFFFF800000000000FFFFFFF00
7FFFFFF800000000000FFFFFFF00
7FFFFFFC00000000000FFFFFFF00
7FFFFFFC00000000001FFFFFFF00
7FFFFFFC00000000001FFFFFFF00
7FFFFFFC00000000001FFFFFFF00
7FFFFFFC00000000001FFFFFFF00
3FFFFFFC00000000001FFFFFFE00
3FFFFFFC00000000001FFFFFFE00
3FFFFFFE00000000003FFFFFFE00
3FFFFFFE00000000003FFFFFFE00
1FFFFFFE00000000003FFFFFFC00
1FFFFFFF00000000003FFFFFFC00
1FFFFFFF00000000007FFFFFFC00
1FFFFFFF00000000007FFFFFFC00
0FFFFFFF8000000000FFFFFFF800
0FFFFFFFC000000001FFFFFFF800
0FFFFFFFC000000001FFFFFFF800
07FFFFFFE000000003FFFFFFF000
07FFFFFFF80000000FFFFFFFF000
07FFFFFFFC0000001FFFFFFFF000
03FFFFFFFF0000007FFFFFFFE000
03FFFFFFFFE00003FFFFFFFFE000
01FFFFFFFFFFC1FFFFFFFFFFC000
01FFFFFFFFFFFFFFFFFFFFFFC000
00FFFFFFFFFFFFFFFFFFFFFF8000
00FFFFFFFFFFFFFFFFFFFFFF8000
007FFFFFFFFFFFFFFFFFFFFF0000
003FFFFFFFFFFFFFFFFFFFFE0000
003FFFFFFFFFFFFFFFFFFFFE0000
001FFFFFFFFFFFFFFFFFFFFC0000
000FFFFFFFFFFFFFFFFFFFF80000
0007FFFFFFFFFFFFFFFFFFF00000
0003FFFFFFFFFFFFFFFFFFE00000
0003FFFFFFFFFFFFFFFFFFC00000
0001FFFFFFFFFFFFFFFFFF800000
00007FFFFFFFFFFFFFFFFF000000
00003FFFFFFFFFFFFFFFFE000000
00001FFFFFFFFFFFFFFFFC000000
00000FFFFFFFFFFFFFFFF0000000
000003FFFFFFFFFFFFFFE0000000
000000FFFFFFFFFFFFFF80000000
0000007FFFFFFFFFFFFE00000000
0000000FFFFFFFFFFFF800000000
00000003FFFFFFFFFFE000000000
000000007FFFFFFFFF0000000000
0000000007FFFFFFF00000000000
00000000001FFFF8000000000000
ENDCHAR
STARTCHAR 0050
ENCODING 80
SWIDTH 605 0
DWIDTH 109 0
BBX 85 120 13 0
BITMAP
03FFFFFFFFFFFF80000000
0FFFFFFFFFFFFFFC000000
3FFFFFFFFFFFFFFF800000
3FFFFFFFFFFFFFFFF00000
7FFFFFFFFFFFFFFFF80000
7FFFFFFFFFFFFFFFFE0000
FFFFFFFFFFFFFFFFFF0000
FFFFFFFFFFFFFFFFFFC000
FFFFFFFFFFFFFFFFFFE000
FFFFFFFFFFFFFFFFFFF000
FFFFFFFFFFFFFFFFFFF800
FFFFFFFFFFFFFFFFFFF800
FFFFFFFFFFFFFFFFFFFC00
FFFFFFFFFFFFFFFFFFFE00
FFFFFFFFFFFFFFFFFFFE00
FFFFFFFFFFFFFFFFFFFF00
FFFFFFFFFFFFFFFFFFFF80
FFFFFFFFFFFFFFFFFFFF80
FFFFFFFFFFFFFFFFFFFF80
FFFFFFFFFFFFFFFFFFFFC0
FFFFFFFFFFFFFFFFFFFFC0
FFFFFFFFFFFFFFFFFFFFE0
FFFFFFFFFFFFFFFFFFFFE0
FFFFFFFFFFFFFFFFFFFFE0
FFFFFFF000000FFFFFFFE0
FFFFFFF0000001FFFFFFF0
FFFFFFF0000001FFFFFFF0
FFFFFFF0000000FFFFFFF0
FFFFFFF0000000FFFFFFF0
FFFFFFF00000007FFFFFF0
FFFFFFF00000007FFFFFF0
FFFFFFF00000007FFFFFF8
FFFFFFF00000007FFFFFF8
FFFFFFF00000007FFFFFF8
FFFFFFF00000007FFFFFF8
FFFFFFF00000003FFFFFF8
FFFFFFF00000003FFFFFF8
FFFFFFF00000003FFFFFF8
FFFFFFF00000003FFFFFF8
FFFFFFF00000003FFFFFF8
FFFFFFF00000003FFFFFF8
FFFFFFF00000003FFFFFF8
FFFFFFF00000003FFFFFF8
FFFFFFF00000003FFFFFF8
FFFFFFF00000003FFFFFF8
FFFFFFF00000003FFFFFF8
FFFFFFF00000003FFFFFF8
FFFFFFF00000003FFFFFF8
FFFFFFF00000003FFFFFF8
FFFFFFF00000003FFFFFF8
FFFFFFF00000007FFFFFF8
FFFFFFF00000007FFFFFF8
FFFFFFF00000007FFFFFF8
FFFFFFF00000007FFFFFF8
FFFFFFF00000007FFFFFF0
FFFFFFF00000007FFFFFF0
FFFFFFF0000000FFFFFFF0
FFFFFFF0000001FFFFFFF0
FFFFFFF0000007FFFFFFF0
FFFFFFFFFFFFFFFFFFFFE0
FFFFFFFFFFFFFFFFFFFFE0
FFFFFFFFFFFFFFFFFFFFE0
FFFFFFFFFFFFFFFFFFFFC0
FFFFFFFFFFFFFFFFFFFFC0
FFFFFFFFFFFFFFFFFFFFC0
FFFFFFFFFFFFFFFFFFFF80
FFFFFFFFFFFFFFFFFFFF80
FFFFFFFFFFFFFFFFFFFF00
FFFFFFFFFFFFFFFFFFFE00
FFFFFFFFFFFFFFFFFFFE00
FFFFFFFFFFFFFFFFFFFC00
FFFFFFFFFFFFFFFFFFF800
FFFFFFFFFFFFFFFFFFF000
FFFFFFFFFFFFFFFFFFE000
FFFFFFFFFFFFFFFFFFC000
FFFFFFFFFFFFFFFFFF8000
FFFFFFFFFFFFFFFFFE0000
FFFFFFFFFFFFFFFFF80000
FFFFFFFFFFFFFFFFE00000
FFFFFFFFFFFFFFFF000000
FFFFFFFFFFFFFFF8000000
FFFFFFFFFFFFFE00000000
FFFFFFFFFFFC0000000000
FFFFFFF000000000000000
FFFFFFF000000000000000
FFFFFFF000000000000000
FFFFFFF000000000000000
FFFFFFF000000000000000
FFFFFFF000000000000000
FFFFFFF000000000000000
FFFFFFF000000000000000
FFFFFFF000000000000000
FFFFFFF000000000000000
FFFFFFF000000000000000
FFFFFFF000000000000000
FFFFFFF000000000000000
FFFFFFF000000000000000
FFFFFFF000000000000000
FFFFFFF000000000000000
FFFFFFF000000000000000
FFFFFFF000000000000000
FFFFFFF000000000000000
FFFFFFF000000000000000
FFFFFFF000000000000000
FFFFFFF000000000000000
FFFFFFF000000000000000
FFFFFFF000000000000000
FFFFFFF000000000000000
FFFFFFF000000000000000
FFFFFFF000000000000000
FFFFFFF000000000000000
FFFFFFF000000000000000
FFFFFFF000000000000000
FFFFFFF000000000000000
7FFFFFE000000000000000
7FFFFFE000000000000000
3FFFFFC000000000000000
3FFFFF8000000000000000
0FFFFE0000000000000000
03FFE00000000000000000
ENDCHAR
STARTCHAR 0051
ENCODING 81
SWIDTH 705 0
DWIDTH 127 0
BBX 105 151 10 -31
BITMAP
00000000000FFFFC000000000000
0000000003FFFFFFF00000000000
000000003FFFFFFFFF0000000000
00000001FFFFFFFFFFE000000000
0000000FFFFFFFFFFFF800000000
0000003FFFFFFFFFFFFE00000000
000000FFFFFFFFFFFFFF80000000
000003FFFFFFFFFFFFFFE0000000
000007FFFFFFFFFFFFFFF0000000
00001FFFFFFFFFFFFFFFFC000000
00003FFFFFFFFFFFFFFFFE000000
00007FFFFFFFFFFFFFFFFF000000
0000FFFFFFFFFFFFFFFFFF800000
0001FFFFFFFFFFFFFFFFFFC00000
0003FFFFFFFFFFFFFFFFFFE00000
0007FFFFFFFFFFFFFFFFFFF00000
000FFFFFFFFFFFFFFFFFFFF80000
000FFFFFFFFFFFFFFFFFFFFC0000
001FFFFFFFFFFFFFFFFFFFFC0000
003FFFFFFFFFFFFFFFFFFFFE0000
003FFFFFFFFFFFFFFFFFFFFF0000
007FFFFFFFFFFFFFFFFFFFFF0000
00FFFFFFFFFFFFFFFFFFFFFF8000
00FFFFFFFFFFFFFFFFFFFFFF8000
01FFFFFFFFFFFFFFFFFFFFFFC000
01FFFFFFFFF00007FFFFFFFFC000
03FFFFFFFF800000FFFFFFFFE000
03FFFFFFFE0000003FFFFFFFE000
03FFFFFFF80000001FFFFFFFF000
07FFFFFFF000000007FFFFFFF000
07FFFFFFE000000003FFFFFFF000
0FFFFFFFC000000001FFFFFFF800
0FFFFFFF8000000001FFFFFFF800
0FFFFFFF8000000000FFFFFFF800
1FFFFFFF00000000007FFFFFFC00
1FFFFFFF00000000007FFFFFFC00
1FFFFFFF00000000007FFFFFFC00
1FFFFFFE00000000003FFFFFFC00
3FFFFFFE00000000003FFFFFFE00
3FFFFFFE00000000003FFFFFFE00
3FFFFFFC00000000003FFFFFFE00
3FFFFFFC00000000001FFFFFFE00
3FFFFFFC00000000001FFFFFFF00
7FFFFFFC00000000001FFFFFFF00
7FFFFFFC00000000001FFFFFFF00
7FFFFFFC00000000001FFFFFFF00
7FFFFFFC00000000001FFFFFFF00
7FFFFFFC00000000001FFFFFFF00
7FFFFFF800000000000FFFFFFF00
7FFFFFF800000000000FFFFFFF00
7FFFFFF800000000000FFFFFFF80
FFFFFFF800000000000FFFFFFF80
FFFFFFF800000000000FFFFFFF80
FFFFFFF800000000000FFFFFFF80
FFFFFFF800000000000FFFFFFF80
FFFFFFF800000000000FFFFFFF80
FFFFFFF800000000000FFFFFFF80
FFFFFFF800000000000FFFFFFF80
FFFFFFF800000000000FFFFFFF80
FFFFFFF800000000000FFFFFFF80
FFFFFFF800000000000FFFFFFF80
FFFFFFF800000000000FFFFFFF80
FFFFFFF800000000000FFFFFFF80
FFFFFFF800000000000FFFFFFF80
FFFFFFF800000000000FFFFFFF80
FFFFFFF800000000000FFFFFFF80
FFFFFFF800000000000FFFFFFF80
FFFFFFF800000000000FFFFFFF80
FFFFFFF800000000000FFFFFFF80
FFFFFFF800000000000FFFFFFF80
FFFFFFF800000000000FFFFFFF80
FFFFFFF800000000000FFFFFFF80
FFFFFFF800000000000FFFFFFF80
FFFFFFF800000000000FFFFFFF80
FFFFFFF800000000000FFFFFFF80
7FFFFFF800000000000FFFFFFF80
7FFFFFF800000000000FFFFFFF00
7FFFFFF800000000000FFFFFFF00
7FFFFFFC00000000000FFFFFFF00
7FFFFFFC00000000001FFFFFFF00
7FFFFFFC00000000001FFFFFFF00
7FFFFFFC00000000001FFFFFFF00
7FFFFFFC00000000001FFFFFFF00
3FFFFFFC00000000001FFFFFFF00
3FFFFFFC00000000001FFFFFFE00
3FFFFFFE00000000001FFFFFFE00
3FFFFFFE00000000003FFFFFFE00
3FFFFFFE00000000003FFFFFFE00
1FFFFFFE00000000003FFFFFFC00
1FFFFFFF00000000007FFFFFFC00
1FFFFFFF00000000007FFFFFFC00
1FFFFFFF80000000007FFFFFFC00
0FFFFFFF8000000000FFFFFFF800
0FFFFFFFC000000001FFFFFFF800
07FFFFFFC000000001FFFFFFF000
07FFFFFFE000000003FFFFFFF000
07FFFFFFF000000007FFFFFFF000
03FFFFFFFC0000001FFFFFFFE000
03FFFFFFFE0000003FFFFFFFE000
01FFFFFFFFC00001FFFFFFFFC000
01FFFFFFFFF8000FFFFFFFFFC000
00FFFFFFFFFFFFFFFFFFFFFF8000
00FFFFFFFFFFFFFFFFFFFFFF8000
007FFFFFFFFFFFFFFFFFFFFF0000
003FFFFFFFFFFFFFFFFFFFFE0000
003FFFFFFFFFFFFFFFFFFFFE0000
001FFFFFFFFFFFFFFFFFFFFC0000
000FFFFFFFFFFFFFFFFFFFF80000
000FFFFFFFFFFFFFFFFFFFF00000
0007FFFFFFFFFFFFFFFFFFF00000
0003FFFFFFFFFFFFFFFFFFE00000
0001FFFFFFFFFFFFFFFFFFC00000
0000FFFFFFFFFFFFFFFFFF800000
00007FFFFFFFFFFFFFFFFF000000
00003FFFFFFFFFFFFFFFFC000000
00000FFFFFFFFFFFFFFFF8000000
000007FFFFFFFFFFFFFFF0000000
000003FFFFFFFFFFFFFFC0000000
000000FFFFFFFFFFFFFF80000000
0000003FFFFFFFFFFFFE00000000
0000000FFFFFFFFFFFF800000000
00000003FFFFFFFFFFC000000000
000000007FFFFFFFFE0000000000
0000000007FFFFFFE00000000000
0000000003FFFFFFF80000000000
0000000003FFFFFFFFE000000000
0000000003FFFFFFFFFFFFE00000
0000000001FFFFFFFFFFFFF80000
0000000001FFFFFFFFFFFFFC0000
0000000001FFFFFFFFFFFFFC0000
0000000000FFFFFFFFFFFFFE0000
0000000000FFFFFFFFFFFFFE0000
00000000007FFFFFFFFFFFFE0000
00000000007FFFFFFFFFFFFE0000
00000000003FFFFFFFFFFFFE0000
00000000003FFFFFFFFFFFFE0000
00000000001FFFFFFFFFFFFE0000
00000000001FFFFFFFFFFFFE0000
00000000000FFFFFFFFFFFFE0000
000000000007FFFFFFFFFFFE0000
000000000003FFFFFFFFFFFE0000
000000000001FFFFFFFFFFFE0000
000000000000FFFFFFFFFFFE0000
0000000000007FFFFFFFFFFE0000
0000000000001FFFFFFFFFFE0000
0000000000000FFFFFFFFFFC0000
00000000000003FFFFFFFFFC0000
00000000000000FFFFFFFFF80000
000000000000001FFFFFFFF00000
0000000000000001FFFFFFC00000
000000000000000007FFFC000000
ENDCHAR
STARTCHAR 0052
ENCODING 82
SWIDTH 633 0
DWIDTH 114 0
BBX 91 120 13 0
BITMAP
03FFFFFFFFFFFF8000000000
0FFFFFFFFFFFFFFC00000000
3FFFFFFFFFFFFFFF80000000
3FFFFFFFFFFFFFFFE0000000
7FFFFFFFFFFFFFFFF8000000
7FFFFFFFFFFFFFFFFE000000
FFFFFFFFFFFFFFFFFF000000
FFFFFFFFFFFFFFFFFF800000
FFFFFFFFFFFFFFFFFFC00000
FFFFFFFFFFFFFFFFFFE00000
FFFFFFFFFFFFFFFFFFF00000
FFFFFFFFFFFFFFFFFFF80000
FFFFFFFFFFFFFFFFFFFC0000
FFFFFFFFFFFFFFFFFFFE0000
FFFFFFFFFFFFFFFFFFFE0000
FFFFFFFFFFFFFFFFFFFF0000
FFFFFFFFFFFFFFFFFFFF0000
FFFFFFFFFFFFFFFFFFFF8000
FFFFFFFFFFFFFFFFFFFF8000
FFFFFFFFFFFFFFFFFFFFC000
FFFFFFFFFFFFFFFFFFFFC000
FFFFFFFFFFFFFFFFFFFFC000
FFFFFFFFFFFFFFFFFFFFE000
FFFFFFFFFFFFFFFFFFFFE000
FFFFFFF000001FFFFFFFE000
FFFFFFF0000003FFFFFFE000
FFFFFFF0000001FFFFFFF000
FFFFFFF0000001FFFFFFF000
FFFFFFF0000000FFFFFFF000
FFFFFFF0000000FFFFFFF000
FFFFFFF0000000FFFFFFF000
FFFFFFF0000000FFFFFFF000
FFFFFFF00000007FFFFFF800
FFFFFFF00000007FFFFFF800
FFFFFFF00000007FFFFFF800
FFFFFFF00000007FFFFFF800
FFFFFFF00000007FFFFFF800
FFFFFFF00000007FFFFFF800
FFFFFFF00000007FFFFFF800
FFFFFFF00000007FFFFFF800
FFFFFFF00000007FFFFFF800
FFFFFFF00000007FFFFFF800
FFFFFFF00000007FFFFFF800
FFFFFFF00000007FFFFFF800
FFFFFFF00000007FFFFFF800
FFFFFFF00000007FFFFFF800
FFFFFFF00000007FFFFFF800
FFFFFFF00000007FFFFFF800
FFFFFFF00000007FFFFFF800
FFFFFFF0000000FFFFFFF800
FFFFFFF0000000FFFFFFF800
FFFFFFF0000001FFFFFFF000
FFFFFFF0000003FFFFFFF000
FFFFFFF000003FFFFFFFF000
FFFFFFFFFFFFFFFFFFFFF000
FFFFFFFFFFFFFFFFFFFFF000
FFFFFFFFFFFFFFFFFFFFE000
FFFFFFFFFFFFFFFFFFFFE000
FFFFFFFFFFFFFFFFFFFFE000
FFFFFFFFFFFFFFFFFFFFC000
FFFFFFFFFFFFFFFFFFFFC000
FFFFFFFFFFFFFFFFFFFFC000
FFFFFFFFFFFFFFFFFFFF8000
FFFFFFFFFFFFFFFFFFFF8000
FFFFFFFFFFFFFFFFFFFF0000
FFFFFFFFFFFFFFFFFFFE0000
FFFFFFFFFFFFFFFFFFFE0000
FFFFFFFFFFFFFFFFFFFC0000
FFFFFFFFFFFFFFFFFFF80000
FFFFFFFFFFFFFFFFFFF00000
FFFFFFFFFFFFFFFFFFE00000
FFFFFFFFFFFFFFFFFFC00000
FFFFFFFFFFFFFFFFFF000000
FFFFFFFFFFFFFFFFFE000000
FFFFFFFFFFFFFFFFF8000000
FFFFFFFFFFFFFFFFC0000000
FFFFFFFFFFFFFFFE00000000
FFFFFFFFFFFFFFFF00000000
FFFFFFF1FFFFFFFF80000000
FFFFFFF0FFFFFFFFC0000000
FFFFFFF07FFFFFFFC0000000
FFFFFFF07FFFFFFFE0000000
FFFFFFF03FFFFFFFF0000000
FFFFFFF01FFFFFFFF8000000
FFFFFFF00FFFFFFFFC000000
FFFFFFF007FFFFFFFE000000
FFFFFFF007FFFFFFFF000000
FFFFFFF003FFFFFFFF000000
FFFFFFF001FFFFFFFF800000
FFFFFFF000FFFFFFFFC00000
FFFFFFF0007FFFFFFFE00000
FFFFFFF0007FFFFFFFF00000
FFFFFFF0003FFFFFFFF80000
FFFFFFF0001FFFFFFFF80000
FFFFFFF0000FFFFFFFFC0000
FFFFFFF00007FFFFFFFE0000
FFFFFFF00007FFFFFFFF0000
FFFFFFF00003FFFFFFFF8000
FFFFFFF00001FFFFFFFFC000
FFFFFFF00000FFFFFFFFE000
FFFFFFF000007FFFFFFFE000
FFFFFFF000007FFFFFFFF000
FFFFFFF000003FFFFFFFF800
FFFFFFF000001FFFFFFFFC00
FFFFFFF000000FFFFFFFFE00
FFFFFFF0000007FFFFFFFF00
FFFFFFF0000007FFFFFFFF80
FFFFFFF0000003FFFFFFFF80
FFFFFFF0000001FFFFFFFFC0
FFFFFFF0000000FFFFFFFFC0
FFFFFFF00000007FFFFFFFE0
FFFFFFF00000007FFFFFFFE0
FFFFFFF00000003FFFFFFFE0
FFFFFFF00000001FFFFFFFE0
7FFFFFE00000000FFFFFFFE0
7FFFFFE000000007FFFFFFE0
3FFFFFC000000003FFFFFFC0
3FFFFF8000000001FFFFFFC0
0FFFFE0000000000FFFFFF80
03FFE000000000001FFFFC00
ENDCHAR
STARTCHAR 0053
ENCODING 83
SWIDTH 561 0
DWIDTH 101 0
BBX 78 120 11 0
BITMAP
0000000FFFFFFFFFFF00
000007FFFFFFFFFFFFC0
00007FFFFFFFFFFFFFF0
0003FFFFFFFFFFFFFFF8
000FFFFFFFFFFFFFFFF8
003FFFFFFFFFFFFFFFFC
007FFFFFFFFFFFFFFFFC
00FFFFFFFFFFFFFFFFFC
01FFFFFFFFFFFFFFFFFC
03FFFFFFFFFFFFFFFFFC
07FFFFFFFFFFFFFFFFFC
07FFFFFFFFFFFFFFFFFC
0FFFFFFFFFFFFFFFFFFC
1FFFFFFFFFFFFFFFFFFC
1FFFFFFFFFFFFFFFFFFC
1FFFFFFFFFFFFFFFFFFC
3FFFFFFFFFFFFFFFFFFC
3FFFFFFFFFFFFFFFFFFC
3FFFFFFFFFFFFFFFFFFC
7FFFFFFFFFFFFFFFFFFC
7FFFFFFFFFFFFFFFFFF8
7FFFFFFFFFFFFFFFFFF8
7FFFFFFFFFFFFFFFFFF0
7FFFFFFFFFFFFFFFFFE0
FFFFFFFFFFFFFFFFFF80
FFFFFFFE000000000000
FFFFFFF8000000000000
FFFFFFF0000000000000
FFFFFFF0000000000000
FFFFFFE0000000000000
FFFFFFE0000000000000
FFFFFFE0000000000000
FFFFFFE0000000000000
FFFFFFE0000000000000
FFFFFFE0000000000000
FFFFFFE0000000000000
FFFFFFE0000000000000
FFFFFFE0000000000000
FFFFFFE0000000000000
FFFFFFE0000000000000
FFFFFFF0000000000000
FFFFFFF0000000000000
7FFFFFFC000000000000
7FFFFFFF000000000000
7FFFFFFFC00000000000
7FFFFFFFF80000000000
7FFFFFFFFE0000000000
7FFFFFFFFFC000000000
3FFFFFFFFFF800000000
3FFFFFFFFFFE00000000
3FFFFFFFFFFFC0000000
1FFFFFFFFFFFF0000000
1FFFFFFFFFFFFE000000
0FFFFFFFFFFFFF800000
07FFFFFFFFFFFFE00000
07FFFFFFFFFFFFF80000
03FFFFFFFFFFFFFE0000
01FFFFFFFFFFFFFF8000
007FFFFFFFFFFFFFE000
003FFFFFFFFFFFFFF000
000FFFFFFFFFFFFFFC00
0007FFFFFFFFFFFFFE00
0001FFFFFFFFFFFFFF00
00007FFFFFFFFFFFFF80
00000FFFFFFFFFFFFFC0
000003FFFFFFFFFFFFE0
000000FFFFFFFFFFFFE0
0000001FFFFFFFFFFFF0
00000007FFFFFFFFFFF0
00000000FFFFFFFFFFF8
000000003FFFFFFFFFF8
0000000007FFFFFFFFF8
0000000001FFFFFFFFF8
00000000003FFFFFFFF8
00000000000FFFFFFFFC
000000000001FFFFFFFC
0000000000007FFFFFFC
0000000000003FFFFFFC
0000000000003FFFFFFC
0000000000001FFFFFFC
0000000000001FFFFFFC
0000000000001FFFFFFC
0000000000001FFFFFFC
0000000000001FFFFFFC
0000000000001FFFFFFC
0000000000001FFFFFFC
0000000000001FFFFFFC
0000000000001FFFFFFC
0000000000001FFFFFFC
0000000000001FFFFFFC
0000000000001FFFFFFC
0000000000001FFFFFFC
0000000000001FFFFFFC
0000000000003FFFFFFC
0000000000007FFFFFFC
000000000001FFFFFFFC
0FFFFFFFFFFFFFFFFFF8
3FFFFFFFFFFFFFFFFFF8
7FFFFFFFFFFFFFFFFFF8
7FFFFFFFFFFFFFFFFFF8
7FFFFFFFFFFFFFFFFFF8
FFFFFFFFFFFFFFFFFFF8
FFFFFFFFFFFFFFFFFFF0
FFFFFFFFFFFFFFFFFFF0
FFFFFFFFFFFFFFFFFFF0
FFFFFFFFFFFFFFFFFFF0
FFFFFFFFFFFFFFFFFFE0
FFFFFFFFFFFFFFFFFFE0
FFFFFFFFFFFFFFFFFFC0
FFFFFFFFFFFFFFFFFF80
FFFFFFFFFFFFFFFFFF00
FFFFFFFFFFFFFFFFFF00
FFFFFFFFFFFFFFFFFC00
FFFFFFFFFFFFFFFFF800
7FFFFFFFFFFFFFFFF000
7FFFFFFFFFFFFFFFC000
3FFFFFFFFFFFFFFF0000
1FFFFFFFFFFFFFF80000
03FFFFFFFFFFFF800000
0001FFFFFFFFC0000000
ENDCHAR
STARTCHAR 0054
ENCODING 84
SWIDTH 594 0
DWIDTH 107 0
BBX 96 120 5 0
BITMAP
03FFFFFFFFFFFFFFFFFFFFC0
0FFFFFFFFFFFFFFFFFFFFFF0
1FFFFFFFFFFFFFFFFFFFFFFC
3FFFFFFFFFFFFFFFFFFFFFFC
7FFFFFFFFFFFFFFFFFFFFFFE
7FFFFFFFFFFFFFFFFFFFFFFE
7FFFFFFFFFFFFFFFFFFFFFFE
FFFFFFFFFFFFFFFFFFFFFFFE
FFFFFFFFFFFFFFFFFFFFFFFF
FFFFFFFFFFFFFFFFFFFFFFFF
FFFFFFFFFFFFFFFFFFFFFFFF
FFFFFFFFFFFFFFFFFFFFFFFF
FFFFFFFFFFFFFFFFFFFFFFFF
FFFFFFFFFFFFFFFFFFFFFFFF
FFFFFFFFFFFFFFFFFFFFFFFF
FFFFFFFFFFFFFFFFFFFFFFFF
7FFFFFFFFFFFFFFFFFFFFFFF
7FFFFFFFFFFFFFFFFFFFFFFE
7FFFFFFFFFFFFFFFFFFFFFFE
7FFFFFFFFFFFFFFFFFFFFFFE
3FFFFFFFFFFFFFFFFFFFFFFC
3FFFFFFFFFFFFFFFFFFFFFF8
0FFFFFFFFFFFFFFFFFFFFFF0
03FFFFFFFFFFFFFFFFFFFFC0
000000003FFFFFFC00000000
000000003FFFFFFC00000000
000000003FFFFFFC00000000
000000003FFFFFFC00000000
000000003FFFFFFC00000000
000000003FFFFFFC00000000
000000003FFFFFFC00000000
000000003FFFFFFC00000000
000000003FFFFFFC00000000
000000003FFFFFFC00000000
000000003FFFFFFC00000000
000000003FFFFFFC00000000
000000003FFFFFFC00000000
000000003FFFFFFC00000000
000000003FFFFFFC00000000
000000003FFFFFFC00000000
000000003FFFFFFC00000000
000000003FFFFFFC00000000
000000003FFFFFFC00000000
000000003FFFFFFC00000000
000000003FFFFFFC00000000
000000003FFFFFFC00000000
000000003FFFFFFC00000000
000000003FFFFFFC00000000
000000003FFFFFFC00000000
000000003FFFFFFC00000000
000000003FFFFFFC00000000
000000003FFFFFFC00000000
000000003FFFFFFC00000000
000000003FFFFFFC00000000
000000003FFFFFFC00000000
000000003FFFFFFC00000000
000000003FFFFFFC00000000
000000003FFFFFFC00000000
000000003FFFFFFC00000000
000000003FFFFFFC00000000
000000003FFFFFFC00000000
000000003FFFFFFC00000000
000000003FFFFFFC00000000
000000003FFFFFFC00000000
000000003FFFFFFC00000000
000000003FFFFFFC00000000
000000003FFFFFFC00000000
000000003FFFFFFC00000000
000000003FFFFFFC00000000
000000003FFFFFFC00000000
000000003FFFFFFC00000000
000000003FFFFFFC00000000
000000003FFFFFFC00000000
000000003FFFFFFC00000000
000000003FFFFFFC00000000
000000003FFFFFFC00000000
000000003FFFFFFC00000000
000000003FFFFFFC00000000
000000003FFFFFFC00000000
000000003FFFFFFC00000000
000000003FFFFFFC00000000
000000003FFFFFFC00000000
000000003FFFFFFC00000000
000000003FFFFFFC00000000
000000003FFFFFFC00000000
000000003FFFFFFC00000000
000000003FFFFFFC00000000
000000003FFFFFFC00000000
000000003FFFFFFC00000000
000000003FFFFFFC00000000
000000003FFFFFFC00000000
000000003FFFFFFC00000000
000000003FFFFFFC00000000
000000003FFFFFFC00000000
000000003FFFFFFC00000000
000000003FFFFFFC00000000
000000003FFFFFFC00000000
000000003FFFFFFC00000000
000000003FFFFFFC00000000
000000003FFFFFFC00000000
000000003FFFFFFC00000000
000000003FFFFFFC00000000
000000003FFFFFFC00000000
000000003FFFFFFC00000000
000000003FFFFFFC00000000
000000003FFFFFFC00000000
000000003FFFFFFC00000000
000000003FFFFFFC00000000
000000003FFFFFFC00000000
000000003FFFFFFC00000000
000000003FFFFFFC00000000
000000003FFFFFFC00000000
000000003FFFFFFC00000000
000000003FFFFFFC00000000
000000001FFFFFF800000000
000000001FFFFFF800000000
000000001FFFFFF000000000
000000000FFFFFE000000000
0000000003FFFF8000000000
0000000000FFFC0000000000
ENDCHAR
STARTCHAR 0055
ENCODING 85
SWIDTH 694 0
DWIDTH 125 0
BBX 101 120 11 2
BITMAP
03FFFC000000000000001FFF00
0FFFFF80000000000001FFFFC0
3FFFFFC0000000000007FFFFE0
7FFFFFE000000000000FFFFFF0
7FFFFFE000000000001FFFFFF0
FFFFFFF000000000003FFFFFF8
FFFFFFF000000000003FFFFFF8
FFFFFFF000000000007FFFFFF8
FFFFFFF000000000007FFFFFF8
FFFFFFF000000000007FFFFFF8
FFFFFFF000000000007FFFFFF8
FFFFFFF000000000007FFFFFF8
FFFFFFF000000000007FFFFFF8
FFFFFFF000000000007FFFFFF8
FFFFFFF000000000007FFFFFF8
FFFFFFF000000000007FFFFFF8
FFFFFFF000000000007FFFFFF8
FFFFFFF000000000007FFFFFF8
FFFFFFF000000000007FFFFFF8
FFFFFFF000000000007FFFFFF8
FFFFFFF000000000007FFFFFF8
FFFFFFF000000000007FFFFFF8
FFFFFFF000000000007FFFFFF8
FFFFFFF000000000007FFFFFF8
FFFFFFF000000000007FFFFFF8
FFFFFFF000000000007FFFFFF8
FFFFFFF000000000007FFFFFF8
FFFFFFF000000000007FFFFFF8
FFFFFFF000000000007FFFFFF8
FFFFFFF000000000007FFFFFF8
FFFFFFF000000000007FFFFFF8
FFFFFFF000000000007FFFFFF8
FFFFFFF000000000007FFFFFF8
FFFFFFF000000000007FFFFFF8
FFFFFFF000000000007FFFFFF8
FFFFFFF000000000007FFFFFF8
FFFFFFF000000000007FFFFFF8
FFFFFFF000000000007FFFFFF8
FFFFFFF000000000007FFFFFF8
FFFFFFF000000000007FFFFFF8
FFFFFFF000000000007FFFFFF8
FFFFFFF000000000007FFFFFF8
FFFFFFF000000000007FFFFFF8
FFFFFFF000000000007FFFFFF8
FFFFFFF000000000007FFFFFF8
FFFFFFF000000000007FFFFFF8
FFFFFFF000000000007FFFFFF8
FFFFFFF000000000007FFFFFF8
FFFFFFF000000000007FFFFFF8
FFFFFFF000000000007FFFFFF8
FFFFFFF000000000007FFFFFF8
FFFFFFF000000000007FFFFFF8
FFFFFFF000000000007FFFFFF8
FFFFFFF000000000007FFFFFF8
FFFFFFF000000000007FFFFFF8
FFFFFFF000000000007FFFFFF8
FFFFFFF000000000007FFFFFF8
FFFFFFF000000000007FFFFFF8
FFFFFFF000000000007FFFFFF8
FFFFFFF000000000007FFFFFF8
FFFFFFF000000000007FFFFFF8
FFFFFFF000000000007FFFFFF8
FFFFFFF000000000007FFFFFF8
FFFFFFF000000000007FFFFFF8
FFFFFFF000000000007FFFFFF8
FFFFFFF000000000007FFFFFF8
FFFFFFF000000000007FFFFFF8
FFFFFFF000000000007FFFFFF8
FFFFFFF000000000007FFFFFF8
FFFFFFF000000000007FFFFFF8
FFFFFFF000000000007FFFFFF8
FFFFFFF000000000007FFFFFF8
7FFFFFF000000000007FFFFFF0
7FFFFFF000000000007FFFFFF0
7FFFFFF80000000000FFFFFFF0
7FFFFFF80000000000FFFFFFF0
7FFFFFF80000000000FFFFFFF0
7FFFFFF80000000000FFFFFFF0
7FFFFFF80000000000FFFFFFF0
7FFFFFF80000000000FFFFFFF0
7FFFFFF80000000000FFFFFFF0
7FFFFFFC0000000001FFFFFFF0
3FFFFFFC0000000001FFFFFFE0
3FFFFFFC0000000001FFFFFFE0
3FFFFFFC0000000001FFFFFFE0
3FFFFFFE0000000003FFFFFFE0
3FFFFFFE0000000003FFFFFFE0
3FFFFFFE0000000003FFFFFFE0
1FFFFFFF0000000007FFFFFFC0
1FFFFFFF0000000007FFFFFFC0
1FFFFFFF800000000FFFFFFFC0
1FFFFFFFC00000001FFFFFFFC0
0FFFFFFFE00000003FFFFFFF80
0FFFFFFFF8000000FFFFFFFF80
0FFFFFFFFE000003FFFFFFFF80
07FFFFFFFFF800FFFFFFFFFF00
07FFFFFFFFFFFFFFFFFFFFFF00
03FFFFFFFFFFFFFFFFFFFFFF00
03FFFFFFFFFFFFFFFFFFFFFE00
03FFFFFFFFFFFFFFFFFFFFFE00
01FFFFFFFFFFFFFFFFFFFFFC00
00FFFFFFFFFFFFFFFFFFFFFC00
00FFFFFFFFFFFFFFFFFFFFF800
007FFFFFFFFFFFFFFFFFFFF800
007FFFFFFFFFFFFFFFFFFFF000
003FFFFFFFFFFFFFFFFFFFE000
001FFFFFFFFFFFFFFFFFFFE000
000FFFFFFFFFFFFFFFFFFFC000
0007FFFFFFFFFFFFFFFFFF8000
0003FFFFFFFFFFFFFFFFFF0000
0001FFFFFFFFFFFFFFFFFE0000
0000FFFFFFFFFFFFFFFFFC0000
00003FFFFFFFFFFFFFFFF00000
00000FFFFFFFFFFFFFFFE00000
000003FFFFFFFFFFFFFF800000
000000FFFFFFFFFFFFFE000000
0000003FFFFFFFFFFFF0000000
00000007FFFFFFFFFF80000000
000000003FFFFFFFF800000000
00000000007FFFFC0000000000
ENDCHAR
STARTCHAR 0056
ENCODING 86
SWIDTH 683 0
DWIDTH 123 0
BBX 109 120 6 0
BITMAP
07FFFE00000000000000001FFF80
1FFFFF8000000000000000FFFFE0
7FFFFFC000000000000003FFFFF0
7FFFFFE000000000000007FFFFF8
FFFFFFF00000000000000FFFFFF8
FFFFFFF00000000000001FFFFFF8
FFFFFFF80000000000003FFFFFF8
FFFFFFF80000000000003FFFFFF8
FFFFFFF80000000000007FFFFFF8
FFFFFFFC0000000000007FFFFFF0
FFFFFFFC000000000000FFFFFFF0
7FFFFFFE000000000000FFFFFFF0
7FFFFFFE000000000000FFFFFFE0
7FFFFFFE000000000001FFFFFFE0
3FFFFFFF000000000001FFFFFFE0
3FFFFFFF000000000001FFFFFFC0
1FFFFFFF000000000003FFFFFFC0
1FFFFFFF800000000003FFFFFFC0
1FFFFFFF800000000003FFFFFF80
0FFFFFFF800000000007FFFFFF80
0FFFFFFFC00000000007FFFFFF00
0FFFFFFFC0000000000FFFFFFF00
07FFFFFFC0000000000FFFFFFF00
07FFFFFFE0000000000FFFFFFE00
03FFFFFFE0000000001FFFFFFE00
03FFFFFFF0000000001FFFFFFE00
03FFFFFFF0000000001FFFFFFC00
01FFFFFFF0000000003FFFFFFC00
01FFFFFFF8000000003FFFFFF800
00FFFFFFF8000000003FFFFFF800
00FFFFFFF8000000007FFFFFF800
00FFFFFFFC000000007FFFFFF000
007FFFFFFC00000000FFFFFFF000
007FFFFFFC00000000FFFFFFF000
007FFFFFFE00000000FFFFFFE000
003FFFFFFE00000001FFFFFFE000
003FFFFFFE00000001FFFFFFC000
001FFFFFFF00000001FFFFFFC000
001FFFFFFF00000003FFFFFFC000
001FFFFFFF80000003FFFFFF8000
000FFFFFFF80000003FFFFFF8000
000FFFFFFF80000007FFFFFF8000
000FFFFFFFC0000007FFFFFF0000
0007FFFFFFC0000007FFFFFF0000
0007FFFFFFC000000FFFFFFF0000
0003FFFFFFE000000FFFFFFE0000
0003FFFFFFE000001FFFFFFE0000
0003FFFFFFE000001FFFFFFC0000
0001FFFFFFF000001FFFFFFC0000
0001FFFFFFF000003FFFFFFC0000
0001FFFFFFF800003FFFFFF80000
0000FFFFFFF800003FFFFFF80000
0000FFFFFFF800007FFFFFF80000
00007FFFFFFC00007FFFFFF00000
00007FFFFFFC00007FFFFFF00000
00007FFFFFFC0000FFFFFFE00000
00003FFFFFFE0000FFFFFFE00000
00003FFFFFFE0001FFFFFFE00000
00001FFFFFFE0001FFFFFFC00000
00001FFFFFFF0001FFFFFFC00000
00001FFFFFFF0003FFFFFFC00000
00000FFFFFFF0003FFFFFF800000
00000FFFFFFF8003FFFFFF800000
00000FFFFFFF8007FFFFFF000000
000007FFFFFFC007FFFFFF000000
000007FFFFFFC007FFFFFF000000
000003FFFFFFC00FFFFFFE000000
000003FFFFFFE00FFFFFFE000000
000003FFFFFFE00FFFFFFE000000
000001FFFFFFE01FFFFFFC000000
000001FFFFFFF01FFFFFFC000000
000001FFFFFFF03FFFFFF8000000
000000FFFFFFF03FFFFFF8000000
000000FFFFFFF83FFFFFF8000000
0000007FFFFFF87FFFFFF0000000
0000007FFFFFF87FFFFFF0000000
0000007FFFFFFC7FFFFFF0000000
0000003FFFFFFCFFFFFFE0000000
0000003FFFFFFEFFFFFFE0000000
0000003FFFFFFEFFFFFFC0000000
0000001FFFFFFFFFFFFFC0000000
0000001FFFFFFFFFFFFFC0000000
0000000FFFFFFFFFFFFF80000000
0000000FFFFFFFFFFFFF80000000
0000000FFFFFFFFFFFFF80000000
00000007FFFFFFFFFFFF00000000
00000007FFFFFFFFFFFF00000000
00000003FFFFFFFFFFFE00000000
00000003FFFFFFFFFFFE00000000
00000003FFFFFFFFFFFE00000000
00000001FFFFFFFFFFFC00000000
00000001FFFFFFFFFFFC00000000
00000001FFFFFFFFFFFC00000000
00000000FFFFFFFFFFF800000000
00000000FFFFFFFFFFF800000000
000000007FFFFFFFFFF000000000
000000007FFFFFFFFFF000000000
000000007FFFFFFFFFF000000000
000000003FFFFFFFFFE000000000
000000003FFFFFFFFFE000000000
000000003FFFFFFFFFE000000000
000000001FFFFFFFFFC000000000
000000001FFFFFFFFFC000000000
000000000FFFFFFFFF8000000000
000000000FFFFFFFFF8000000000
000000000FFFFFFFFF8000000000
0000000007FFFFFFFF0000000000
0000000007FFFFFFFF0000000000
0000000007FFFFFFFF0000000000
0000000003FFFFFFFE0000000000
0000000003FFFFFFFE0000000000
0000000001FFFFFFFC0000000000
0000000001FFFFFFFC0000000000
0000000000FFFFFFF80000000000
0000000000FFFFFFF80000000000
00000000007FFFFFF00000000000
00000000007FFFFFE00000000000
00000000003FFFFFC00000000000
00000000000FFFFF000000000000
000000000003FFF0000000000000
ENDCHAR
STARTCHAR 0057
ENCODING 87
SWIDTH 872 0
DWIDTH 157 0
BBX 142 120 6 0
BITMAP
03FFFE0000000000000000000000003FFF00
1FFFFF800000000000000000000001FFFFE0
3FFFFFC00000000000000000000007FFFFF0
7FFFFFE0000000000000000000000FFFFFF8
FFFFFFF0000000000000000000001FFFFFF8
FFFFFFF0000000000000000000001FFFFFFC
FFFFFFF0000000000000000000003FFFFFFC
FFFFFFF8000000000000000000003FFFFFFC
FFFFFFF8000000000000000000007FFFFFFC
FFFFFFF8000000000000000000007FFFFFFC
FFFFFFF8000000000000000000007FFFFFFC
FFFFFFF8000000000000000000007FFFFFF8
FFFFFFFC000000000000000000007FFFFFF8
7FFFFFFC00000000000000000000FFFFFFF8
7FFFFFFC00000000000000000000FFFFFFF8
7FFFFFFC00000000000000000000FFFFFFF8
7FFFFFFC00000000000000000000FFFFFFF0
3FFFFFFE00000000000000000000FFFFFFF0
3FFFFFFE00000000000000000001FFFFFFF0
3FFFFFFE00000000000000000001FFFFFFF0
3FFFFFFE00000000000000000001FFFFFFE0
3FFFFFFE00000000000000000001FFFFFFE0
1FFFFFFF000000003FF000000001FFFFFFE0
1FFFFFFF00000003FFFF00000003FFFFFFE0
1FFFFFFF00000007FFFF80000003FFFFFFC0
1FFFFFFF0000001FFFFFC0000003FFFFFFC0
0FFFFFFF0000001FFFFFE0000003FFFFFFC0
0FFFFFFF8000003FFFFFF0000003FFFFFFC0
0FFFFFFF8000003FFFFFF0000007FFFFFFC0
0FFFFFFF8000007FFFFFF8000007FFFFFF80
07FFFFFF8000007FFFFFF8000007FFFFFF80
07FFFFFF800000FFFFFFF8000007FFFFFF80
07FFFFFFC00000FFFFFFFC000007FFFFFF80
07FFFFFFC00000FFFFFFFC00000FFFFFFF00
07FFFFFFC00000FFFFFFFC00000FFFFFFF00
03FFFFFFC00001FFFFFFFE00000FFFFFFF00
03FFFFFFC00001FFFFFFFE00000FFFFFFF00
03FFFFFFE00001FFFFFFFE00000FFFFFFE00
03FFFFFFE00003FFFFFFFF00001FFFFFFE00
01FFFFFFE00003FFFFFFFF00001FFFFFFE00
01FFFFFFE00003FFFFFFFF00001FFFFFFE00
01FFFFFFE00003FFFFFFFF00001FFFFFFE00
01FFFFFFF00007FFFFFFFF80003FFFFFFC00
00FFFFFFF00007FFFFFFFF80003FFFFFFC00
00FFFFFFF00007FFFFFFFF80003FFFFFFC00
00FFFFFFF00007FFFFFFFF80003FFFFFFC00
00FFFFFFF0000FFFFFFFFFC0003FFFFFF800
00FFFFFFF8000FFFFFFFFFC0007FFFFFF800
007FFFFFF8000FFFFFFFFFC0007FFFFFF800
007FFFFFF8000FFFFFFFFFE0007FFFFFF800
007FFFFFF8001FFFFFFFFFE0007FFFFFF000
007FFFFFF8001FFFFFFFFFE0007FFFFFF000
003FFFFFFC001FFFFFFFFFE000FFFFFFF000
003FFFFFFC001FFFFFFFFFF000FFFFFFF000
003FFFFFFC003FFFFFFFFFF000FFFFFFF000
003FFFFFFC003FFFFFFFFFF000FFFFFFE000
001FFFFFFC003FFFFFFFFFF000FFFFFFE000
001FFFFFFE007FFFFFFFFFF801FFFFFFE000
001FFFFFFE007FFFFFFFFFF801FFFFFFE000
001FFFFFFE007FFFFFFFFFF801FFFFFFC000
000FFFFFFE007FFFFFFFFFFC01FFFFFFC000
000FFFFFFE00FFFFFFFFFFFC01FFFFFFC000
000FFFFFFF00FFFFFFFFFFFC03FFFFFFC000
000FFFFFFF00FFFFFFFFFFFC03FFFFFFC000
000FFFFFFF00FFFFFFFFFFFE03FFFFFF8000
0007FFFFFF01FFFFFDFFFFFE03FFFFFF8000
0007FFFFFF01FFFFFCFFFFFE03FFFFFF8000
0007FFFFFF81FFFFFCFFFFFF07FFFFFF8000
0007FFFFFF81FFFFFCFFFFFF07FFFFFF0000
0003FFFFFF83FFFFF87FFFFF07FFFFFF0000
0003FFFFFF83FFFFF87FFFFF07FFFFFF0000
0003FFFFFF83FFFFF87FFFFF87FFFFFF0000
0003FFFFFF87FFFFF03FFFFF8FFFFFFE0000
0001FFFFFFC7FFFFF03FFFFF8FFFFFFE0000
0001FFFFFFC7FFFFF03FFFFFCFFFFFFE0000
0001FFFFFFC7FFFFE03FFFFFCFFFFFFE0000
0001FFFFFFCFFFFFE01FFFFFCFFFFFFE0000
0001FFFFFFCFFFFFE01FFFFFDFFFFFFC0000
0000FFFFFFEFFFFFE01FFFFFFFFFFFFC0000
0000FFFFFFFFFFFFC00FFFFFFFFFFFFC0000
0000FFFFFFFFFFFFC00FFFFFFFFFFFFC0000
0000FFFFFFFFFFFFC00FFFFFFFFFFFF80000
00007FFFFFFFFFFF8007FFFFFFFFFFF80000
00007FFFFFFFFFFF8007FFFFFFFFFFF80000
00007FFFFFFFFFFF8007FFFFFFFFFFF80000
00007FFFFFFFFFFF8007FFFFFFFFFFF00000
00003FFFFFFFFFFF0003FFFFFFFFFFF00000
00003FFFFFFFFFFF0003FFFFFFFFFFF00000
00003FFFFFFFFFFF0003FFFFFFFFFFF00000
00003FFFFFFFFFFE0001FFFFFFFFFFF00000
00003FFFFFFFFFFE0001FFFFFFFFFFE00000
00001FFFFFFFFFFE0001FFFFFFFFFFE00000
00001FFFFFFFFFFC0000FFFFFFFFFFE00000
00001FFFFFFFFFFC0000FFFFFFFFFFE00000
00001FFFFFFFFFFC0000FFFFFFFFFFC00000
00000FFFFFFFFFFC0000FFFFFFFFFFC00000
00000FFFFFFFFFF800007FFFFFFFFFC00000
00000FFFFFFFFFF800007FFFFFFFFFC00000
00000FFFFFFFFFF800007FFFFFFFFF800000
000007FFFFFFFFF000003FFFFFFFFF800000
000007FFFFFFFFF000003FFFFFFFFF800000
000007FFFFFFFFF000003FFFFFFFFF800000
000007FFFFFFFFE000001FFFFFFFFF800000
000007FFFFFFFFE000001FFFFFFFFF000000
000003FFFFFFFFE000001FFFFFFFFF000000
000003FFFFFFFFC000000FFFFFFFFF000000
000003FFFFFFFFC000000FFFFFFFFF000000
000003FFFFFFFFC000000FFFFFFFFE000000
000001FFFFFFFF80000007FFFFFFFE000000
000001FFFFFFFF80000007FFFFFFFE000000
000001FFFFFFFF80000007FFFFFFFE000000
000001FFFFFFFF00000003FFFFFFFC000000
000000FFFFFFFF00000003FFFFFFFC000000
000000FFFFFFFF00000003FFFFFFFC000000
000000FFFFFFFE00000001FFFFFFFC000000
0000007FFFFFFE00000001FFFFFFF8000000
0000007FFFFFFC00000000FFFFFFF8000000
0000003FFFFFF8000000007FFFFFF0000000
0000001FFFFFF0000000003FFFFFC0000000
00000007FFFF80000000000FFFFF00000000
ENDCHAR
STARTCHAR 0058
ENCODING 88
SWIDTH 677 0
DWIDTH 122 0
BBX 101 120 9 2
BITMAP
01FFFF000000000000000FFF00
0FFFFFE0000000000000FFFFE0
1FFFFFF0000000000003FFFFF0
3FFFFFF8000000000007FFFFF0
7FFFFFFC00000000000FFFFFF8
7FFFFFFE00000000001FFFFFF8
7FFFFFFF00000000003FFFFFF8
7FFFFFFF00000000007FFFFFF8
7FFFFFFF80000000007FFFFFF8
7FFFFFFFC000000000FFFFFFF8
7FFFFFFFC000000001FFFFFFF8
3FFFFFFFE000000003FFFFFFF0
3FFFFFFFF000000003FFFFFFF0
1FFFFFFFF000000007FFFFFFE0
0FFFFFFFF80000000FFFFFFFE0
0FFFFFFFFC0000000FFFFFFFC0
07FFFFFFFC0000001FFFFFFF80
03FFFFFFFE0000003FFFFFFF00
03FFFFFFFF0000007FFFFFFF00
01FFFFFFFF0000007FFFFFFE00
00FFFFFFFF800000FFFFFFFC00
00FFFFFFFFC00001FFFFFFFC00
007FFFFFFFC00003FFFFFFF800
003FFFFFFFE00003FFFFFFF000
003FFFFFFFF00007FFFFFFE000
001FFFFFFFF0000FFFFFFFE000
000FFFFFFFF8001FFFFFFFC000
000FFFFFFFFC001FFFFFFF8000
0007FFFFFFFC003FFFFFFF8000
0003FFFFFFFE007FFFFFFF0000
0003FFFFFFFF007FFFFFFE0000
0001FFFFFFFF00FFFFFFFE0000
0000FFFFFFFF81FFFFFFFC0000
0000FFFFFFFFC3FFFFFFF80000
00007FFFFFFFC3FFFFFFF00000
00003FFFFFFFE7FFFFFFF00000
00003FFFFFFFFFFFFFFFE00000
00001FFFFFFFFFFFFFFFC00000
00000FFFFFFFFFFFFFFFC00000
00000FFFFFFFFFFFFFFF800000
000007FFFFFFFFFFFFFF000000
000003FFFFFFFFFFFFFE000000
000001FFFFFFFFFFFFFE000000
000001FFFFFFFFFFFFFC000000
000000FFFFFFFFFFFFF8000000
0000007FFFFFFFFFFFF8000000
0000007FFFFFFFFFFFF0000000
0000003FFFFFFFFFFFE0000000
0000001FFFFFFFFFFFE0000000
0000001FFFFFFFFFFFC0000000
0000000FFFFFFFFFFF80000000
00000007FFFFFFFFFF00000000
00000007FFFFFFFFFF00000000
00000003FFFFFFFFFE00000000
00000001FFFFFFFFFC00000000
00000001FFFFFFFFFC00000000
00000000FFFFFFFFF800000000
000000007FFFFFFFF000000000
000000007FFFFFFFE000000000
000000003FFFFFFFE000000000
000000001FFFFFFFF000000000
000000003FFFFFFFF800000000
000000003FFFFFFFF800000000
000000007FFFFFFFFC00000000
00000000FFFFFFFFFE00000000
00000000FFFFFFFFFE00000000
00000001FFFFFFFFFF00000000
00000003FFFFFFFFFF80000000
00000003FFFFFFFFFF80000000
00000007FFFFFFFFFFC0000000
0000000FFFFFFFFFFFE0000000
0000001FFFFFFFFFFFE0000000
0000001FFFFFFFFFFFF0000000
0000003FFFFFFFFFFFF8000000
0000007FFFFFFFFFFFF8000000
0000007FFFFFFFFFFFFC000000
000000FFFFFFFFFFFFFE000000
000001FFFFFFFFFFFFFE000000
000003FFFFFFFFFFFFFF000000
000003FFFFFFFFFFFFFF800000
000007FFFFFFFFFFFFFFC00000
00000FFFFFFFFFFFFFFFC00000
00000FFFFFFFFFFFFFFFE00000
00001FFFFFFFFFFFFFFFF00000
00003FFFFFFF9FFFFFFFF00000
00007FFFFFFF0FFFFFFFF80000
00007FFFFFFF0FFFFFFFFC0000
0000FFFFFFFE07FFFFFFFC0000
0001FFFFFFFC03FFFFFFFE0000
0001FFFFFFF803FFFFFFFF0000
0003FFFFFFF801FFFFFFFF0000
0007FFFFFFF000FFFFFFFF8000
0007FFFFFFE000FFFFFFFFC000
000FFFFFFFC0007FFFFFFFC000
001FFFFFFFC0003FFFFFFFE000
003FFFFFFF80003FFFFFFFF000
003FFFFFFF00001FFFFFFFF000
007FFFFFFE00000FFFFFFFF800
00FFFFFFFE00000FFFFFFFFC00
00FFFFFFFC000007FFFFFFFC00
01FFFFFFF8000003FFFFFFFE00
03FFFFFFF0000003FFFFFFFF00
07FFFFFFE0000001FFFFFFFF00
07FFFFFFE0000000FFFFFFFF80
0FFFFFFFC0000000FFFFFFFFC0
1FFFFFFF800000007FFFFFFFC0
1FFFFFFF000000003FFFFFFFE0
3FFFFFFF000000003FFFFFFFF0
7FFFFFFE000000001FFFFFFFF0
7FFFFFFC000000000FFFFFFFF8
7FFFFFF8000000000FFFFFFFF8
FFFFFFF80000000007FFFFFFF8
FFFFFFF00000000003FFFFFFF8
FFFFFFE00000000003FFFFFFF8
FFFFFFC00000000001FFFFFFF8
7FFFFF800000000000FFFFFFF8
7FFFFF0000000000007FFFFFF0
3FFFFE0000000000003FFFFFF0
1FFFF80000000000001FFFFFE0
07FFC000000000000003FFFF80
ENDCHAR
STARTCHAR 0059
ENCODING 89
SWIDTH 638 0
DWIDTH 115 0
BBX 101 120 6 2
BITMAP
03FFFE000000000000000FFF00
1FFFFF800000000000007FFFC0
3FFFFFC0000000000001FFFFF0
7FFFFFE0000000000007FFFFF0
7FFFFFF000000000000FFFFFF8
FFFFFFF800000000001FFFFFF8
FFFFFFF800000000001FFFFFF8
FFFFFFFC00000000003FFFFFF8
FFFFFFFC00000000007FFFFFF8
FFFFFFFE00000000007FFFFFF8
FFFFFFFE0000000000FFFFFFF8
7FFFFFFF0000000000FFFFFFF8
7FFFFFFF8000000001FFFFFFF0
3FFFFFFF8000000003FFFFFFF0
3FFFFFFFC000000003FFFFFFE0
1FFFFFFFC000000007FFFFFFC0
1FFFFFFFE000000007FFFFFFC0
0FFFFFFFE00000000FFFFFFF80
07FFFFFFF00000001FFFFFFF80
07FFFFFFF80000001FFFFFFF00
03FFFFFFF80000003FFFFFFF00
03FFFFFFFC0000003FFFFFFE00
01FFFFFFFC0000007FFFFFFC00
00FFFFFFFE000000FFFFFFFC00
00FFFFFFFE000000FFFFFFF800
007FFFFFFF000001FFFFFFF800
007FFFFFFF800001FFFFFFF000
003FFFFFFF800003FFFFFFF000
003FFFFFFFC00007FFFFFFE000
001FFFFFFFC00007FFFFFFC000
000FFFFFFFE0000FFFFFFFC000
000FFFFFFFE0000FFFFFFF8000
0007FFFFFFF0001FFFFFFF8000
0007FFFFFFF8003FFFFFFF0000
0003FFFFFFF8003FFFFFFF0000
0003FFFFFFFC007FFFFFFE0000
0001FFFFFFFC007FFFFFFC0000
0000FFFFFFFE00FFFFFFFC0000
0000FFFFFFFE01FFFFFFF80000
00007FFFFFFF01FFFFFFF80000
00007FFFFFFF03FFFFFFF00000
00003FFFFFFF83FFFFFFE00000
00003FFFFFFFC7FFFFFFE00000
00001FFFFFFFCFFFFFFFC00000
00000FFFFFFFEFFFFFFFC00000
00000FFFFFFFFFFFFFFF800000
000007FFFFFFFFFFFFFF800000
000007FFFFFFFFFFFFFF000000
000003FFFFFFFFFFFFFE000000
000003FFFFFFFFFFFFFE000000
000001FFFFFFFFFFFFFC000000
000000FFFFFFFFFFFFFC000000
000000FFFFFFFFFFFFF8000000
0000007FFFFFFFFFFFF8000000
0000007FFFFFFFFFFFF0000000
0000003FFFFFFFFFFFE0000000
0000003FFFFFFFFFFFE0000000
0000001FFFFFFFFFFFC0000000
0000000FFFFFFFFFFFC0000000
0000000FFFFFFFFFFF80000000
00000007FFFFFFFFFF00000000
00000007FFFFFFFFFF00000000
00000003FFFFFFFFFE00000000
00000003FFFFFFFFFE00000000
00000001FFFFFFFFFC00000000
00000000FFFFFFFFFC00000000
00000000FFFFFFFFF800000000
000000007FFFFFFFF000000000
000000007FFFFFFFF000000000
000000003FFFFFFFE000000000
000000003FFFFFFFE000000000
000000001FFFFFFFC000000000
000000000FFFFFFFC000000000
000000000FFFFFFF8000000000
0000000007FFFFFF8000000000
0000000007FFFFFF8000000000
0000000007FFFFFF8000000000
0000000007FFFFFF8000000000
0000000007FFFFFF8000000000
0000000007FFFFFF8000000000
0000000007FFFFFF8000000000
0000000007FFFFFF8000000000
0000000007FFFFFF8000000000
0000000007FFFFFF8000000000
0000000007FFFFFF8000000000
0000000007FFFFFF8000000000
0000000007FFFFFF8000000000
0000000007FFFFFF8000000000
0000000007FFFFFF8000000000
0000000007FFFFFF8000000000
0000000007FFFFFF8000000000
0000000007FFFFFF8000000000
0000000007FFFFFF8000000000
0000000007FFFFFF8000000000
0000000007FFFFFF8000000000
0000000007FFFFFF8000000000
0000000007FFFFFF8000000000
0000000007FFFFFF8000000000
0000000007FFFFFF8000000000
0000000007FFFFFF8000000000
0000000007FFFFFF8000000000
0000000007FFFFFF8000000000
0000000007FFFFFF8000000000
0000000007FFFFFF8000000000
0000000007FFFFFF8000000000
0000000007FFFFFF8000000000
0000000007FFFFFF8000000000
0000000007FFFFFF8000000000
0000000007FFFFFF8000000000
0000000007FFFFFF8000000000
0000000007FFFFFF8000000000
0000000007FFFFFF8000000000
0000000007FFFFFF8000000000
0000000007FFFFFF8000000000
0000000003FFFFFF0000000000
0000000003FFFFFF0000000000
0000000001FFFFFE0000000000
0000000001FFFFFC0000000000
00000000007FFFF00000000000
00000000001FFF800000000000
ENDCHAR
STARTCHAR 005A
ENCODING 90
SWIDTH 577 0
DWIDTH 104 0
BBX 91 120 6 0
BITMAP
007FFFFFFFFFFFFFFFFFFC00
01FFFFFFFFFFFFFFFFFFFF00
03FFFFFFFFFFFFFFFFFFFF80
07FFFFFFFFFFFFFFFFFFFFC0
0FFFFFFFFFFFFFFFFFFFFFC0
0FFFFFFFFFFFFFFFFFFFFFE0
0FFFFFFFFFFFFFFFFFFFFFE0
0FFFFFFFFFFFFFFFFFFFFFE0
0FFFFFFFFFFFFFFFFFFFFFE0
0FFFFFFFFFFFFFFFFFFFFFC0
0FFFFFFFFFFFFFFFFFFFFFC0
0FFFFFFFFFFFFFFFFFFFFFC0
0FFFFFFFFFFFFFFFFFFFFF80
0FFFFFFFFFFFFFFFFFFFFF80
0FFFFFFFFFFFFFFFFFFFFF00
0FFFFFFFFFFFFFFFFFFFFE00
0FFFFFFFFFFFFFFFFFFFFE00
0FFFFFFFFFFFFFFFFFFFFC00
0FFFFFFFFFFFFFFFFFFFFC00
07FFFFFFFFFFFFFFFFFFF800
07FFFFFFFFFFFFFFFFFFF000
03FFFFFFFFFFFFFFFFFFF000
01FFFFFFFFFFFFFFFFFFE000
007FFFFFFFFFFFFFFFFFC000
0000000000001FFFFFFFC000
0000000000001FFFFFFF8000
0000000000003FFFFFFF8000
0000000000003FFFFFFF0000
0000000000007FFFFFFE0000
000000000000FFFFFFFE0000
000000000000FFFFFFFC0000
000000000001FFFFFFF80000
000000000003FFFFFFF80000
000000000003FFFFFFF00000
000000000007FFFFFFF00000
000000000007FFFFFFE00000
00000000000FFFFFFFC00000
00000000001FFFFFFFC00000
00000000001FFFFFFF800000
00000000003FFFFFFF800000
00000000007FFFFFFF000000
00000000007FFFFFFE000000
0000000000FFFFFFFE000000
0000000000FFFFFFFC000000
0000000001FFFFFFF8000000
0000000003FFFFFFF8000000
0000000003FFFFFFF0000000
0000000007FFFFFFF0000000
000000000FFFFFFFE0000000
000000000FFFFFFFC0000000
000000001FFFFFFFC0000000
000000001FFFFFFF80000000
000000003FFFFFFF00000000
000000007FFFFFFF00000000
000000007FFFFFFE00000000
00000000FFFFFFFE00000000
00000001FFFFFFFC00000000
00000001FFFFFFF800000000
00000003FFFFFFF800000000
00000003FFFFFFF000000000
00000007FFFFFFE000000000
0000000FFFFFFFE000000000
0000000FFFFFFFC000000000
0000001FFFFFFFC000000000
0000003FFFFFFF8000000000
0000003FFFFFFF0000000000
0000007FFFFFFF0000000000
0000007FFFFFFE0000000000
000000FFFFFFFC0000000000
000001FFFFFFFC0000000000
000001FFFFFFF80000000000
000003FFFFFFF80000000000
000007FFFFFFF00000000000
000007FFFFFFE00000000000
00000FFFFFFFE00000000000
00000FFFFFFFC00000000000
00001FFFFFFFC00000000000
00003FFFFFFF800000000000
00003FFFFFFF000000000000
00007FFFFFFF000000000000
0000FFFFFFFE000000000000
0000FFFFFFFC000000000000
0001FFFFFFFC000000000000
0001FFFFFFF8000000000000
0003FFFFFFF8000000000000
0007FFFFFFF0000000000000
0007FFFFFFE0000000000000
000FFFFFFFE0000000000000
001FFFFFFFC0000000000000
001FFFFFFF80000000000000
003FFFFFFF80000000000000
003FFFFFFF00000000000000
007FFFFFFF00000000000000
00FFFFFFFE00000000000000
00FFFFFFFC00000000000000
01FFFFFFFC00000000000000
01FFFFFFF800000000000000
03FFFFFFFFFFFFFFFFFF8000
07FFFFFFFFFFFFFFFFFFFC00
07FFFFFFFFFFFFFFFFFFFE00
0FFFFFFFFFFFFFFFFFFFFF00
1FFFFFFFFFFFFFFFFFFFFF80
1FFFFFFFFFFFFFFFFFFFFF80
3FFFFFFFFFFFFFFFFFFFFF80
3FFFFFFFFFFFFFFFFFFFFF80
7FFFFFFFFFFFFFFFFFFFFF80
7FFFFFFFFFFFFFFFFFFFFF80
FFFFFFFFFFFFFFFFFFFFFF80
FFFFFFFFFFFFFFFFFFFFFF80
FFFFFFFFFFFFFFFFFFFFFF80
FFFFFFFFFFFFFFFFFFFFFF80
FFFFFFFFFFFFFFFFFFFFFF80
FFFFFFFFFFFFFFFFFFFFFF80
FFFFFFFFFFFFFFFFFFFFFF80
FFFFFFFFFFFFFFFFFFFFFF80
7FFFFFFFFFFFFFFFFFFFFF80
7FFFFFFFFFFFFFFFFFFFFF00
3FFFFFFFFFFFFFFFFFFFFE00
1FFFFFFFFFFFFFFFFFFFFC00
03FFFFFFFFFFFFFFFFFFF000
ENDCHAR
STARTCHAR 005B
ENCODING 91
SWIDTH 333 0
DWIDTH 60 0
BBX 56 169 12 -25
BITMAP
03FFFFFFFFFFE0
1FFFFFFFFFFFF8
3FFFFFFFFFFFFC
7FFFFFFFFFFFFC
7FFFFFFFFFFFFE
7FFFFFFFFFFFFE
FFFFFFFFFFFFFF
FFFFFFFFFFFFFF
FFFFFFFFFFFFFF
FFFFFFFFFFFFFF
FFFFFFFFFFFFFF
FFFFFFFFFFFFFF
FFFFFFFFFFFFFF
FFFFFFFFFFFFFF
FFFFFFFFFFFFFF
FFFFFFFFFFFFFF
FFFFFFFFFFFFFF
FFFFFFFFFFFFFF
FFFFFFFFFFFFFF
FFFFFFFFFFFFFE
FFFFFFFFFFFFFE
FFFFFFFFFFFFFC
FFFFFFFFFFFFF8
FFFFFFFFFFFFC0
FFFFFF00000000
FFFFFF00000000
FFFFFF00000000
FFFFFF00000000
FFFFFF00000000
FFFFFF00000000
FFFFFF00000000
FFFFFF00000000
FFFFFF00000000
FFFFFF00000000
FFFFFF00000000
FFFFFF00000000
FFFFFF00000000
FFFFFF00000000
FFFFFF00000000
FFFFFF00000000
FFFFFF00000000
FFFFFF00000000
FFFFFF00000000
FFFFFF00000000
FFFFFF00000000
FFFFFF00000000
FFFFFF00000000
FFFFFF00000000
FFFFFF00000000
FFFFFF00000000
FFFFFF00000000
FFFFFF00000000
FFFFFF00000000
FFFFFF00000000
FFFFFF00000000
FFFFFF00000000
FFFFFF00000000
FFFFFF00000000
FFFFFF00000000
FFFFFF00000000
FFFFFF00000000
FFFFFF00000000
FFFFFF00000000
FFFFFF00000000
FFFFFF00000000
FFFFFF00000000
FFFFFF00000000
FFFFFF00000000
FFFFFF00000000
FFFFFF00000000
FFFFFF00000000
FFFFFF00000000
FFFFFF00000000
FFFFFF00000000
FFFFFF00000000
FFFFFF00000000
FFFFFF00000000
FFFFFF00000000
FFFFFF00000000
FFFFFF00000000
FFFFFF00000000
FFFFFF00000000
FFFFFF00000000
FFFFFF00000000
FFFFFF00000000
FFFFFF00000000
FFFFFF00000000
FFFFFF00000000
FFFFFF00000000
FFFFFF00000000
FFFFFF00000000
FFFFFF00000000
FFFFFF00000000
FFFFFF00000000
FFFFFF00000000
FFFFFF00000000
FFFFFF00000000
FFFFFF00000000
FFFFFF00000000
FFFFFF00000000
FFFFFF00000000
FFFFFF00000000
FFFFFF00000000
FFFFFF00000000
FFFFFF00000000
FFFFFF00000000
FFFFFF00000000
FFFFFF00000000
FFFFFF00000000
FFFFFF00000000
FFFFFF00000000
FFFFFF00000000
FFFFFF00000000
FFFFFF00000000
FFFFFF00000000
FFFFFF00000000
FFFFFF00000000
FFFFFF00000000
FFFFFF00000000
FFFFFF00000000
FFFFFF00000000
FFFFFF00000000
FFFFFF00000000
FFFFFF00000000
FFFFFF00000000
FFFFFF00000000
FFFFFF00000000
FFFFFF00000000
FFFFFF00000000
FFFFFF00000000
FFFFFF00000000
FFFFFF00000000
FFFFFF00000000
FFFFFF00000000
FFFFFF00000000
FFFFFF00000000
FFFFFF00000000
FFFFFF00000000
FFFFFF00000000
FFFFFF00000000
FFFFFF00000000
FFFFFF00000000
FFFFFF00000000
FFFFFF00000000
FFFFFF00000000
FFFFFF00000000
FFFFFFFFFFFFE0
FFFFFFFFFFFFF8
FFFFFFFFFFFFFC
FFFFFFFFFFFFFE
FFFFFFFFFFFFFE
FFFFFFFFFFFFFF
FFFFFFFFFFFFFF
FFFFFFFFFFFFFF
FFFFFFFFFFFFFF
FFFFFFFFFFFFFF
FFFFFFFFFFFFFF
FFFFFFFFFFFFFF
FFFFFFFFFFFFFF
FFFFFFFFFFFFFF
FFFFFFFFFFFFFF
FFFFFFFFFFFFFF
FFFFFFFFFFFFFF
7FFFFFFFFFFFFE
7FFFFFFFFFFFFE
7FFFFFFFFFFFFC
3FFFFFFFFFFFFC
1FFFFFFFFFFFF0
03FFFFFFFFFFC0
ENDCHAR
STARTCHAR 005C
ENCODING 92
SWIDTH 394 0
DWIDTH 71 0
BBX 71 134 -8 -6
BITMAP
000FC0000000000000
003FF0000000000000
00FFF8000000000000
03FFF8000000000000
0FFFFC000000000000
1FFFFC000000000000
3FFFFE000000000000
7FFFFE000000000000
7FFFFF000000000000
7FFFFF000000000000
FFFFFF800000000000
FFFFFF800000000000
FFFFFF800000000000
7FFFFFC00000000000
7FFFFFC00000000000
7FFFFFE00000000000
7FFFFFE00000000000
3FFFFFE00000000000
3FFFFFF00000000000
1FFFFFF00000000000
1FFFFFF80000000000
0FFFFFF80000000000
0FFFFFFC0000000000
0FFFFFFC0000000000
07FFFFFC0000000000
07FFFFFE0000000000
03FFFFFE0000000000
03FFFFFF0000000000
01FFFFFF0000000000
01FFFFFF8000000000
01FFFFFF8000000000
00FFFFFF8000000000
00FFFFFFC000000000
007FFFFFC000000000
007FFFFFE000000000
007FFFFFE000000000
003FFFFFE000000000
003FFFFFF000000000
001FFFFFF000000000
001FFFFFF800000000
000FFFFFF800000000
000FFFFFFC00000000
000FFFFFFC00000000
0007FFFFFC00000000
0007FFFFFE00000000
0003FFFFFE00000000
0003FFFFFF00000000
0001FFFFFF00000000
0001FFFFFF80000000
0001FFFFFF80000000
0000FFFFFF80000000
0000FFFFFFC0000000
00007FFFFFC0000000
00007FFFFFE0000000
00003FFFFFE0000000
00003FFFFFE0000000
00003FFFFFF0000000
00001FFFFFF0000000
00001FFFFFF8000000
00000FFFFFF8000000
00000FFFFFFC000000
00000FFFFFFC000000
000007FFFFFC000000
000007FFFFFE000000
000003FFFFFE000000
000003FFFFFF000000
000001FFFFFF000000
000001FFFFFF800000
000001FFFFFF800000
000000FFFFFF800000
000000FFFFFFC00000
0000007FFFFFC00000
0000007FFFFFE00000
0000003FFFFFE00000
0000003FFFFFE00000
0000003FFFFFF00000
0000001FFFFFF00000
0000001FFFFFF80000
0000000FFFFFF80000
0000000FFFFFFC0000
00000007FFFFFC0000
00000007FFFFFC0000
00000007FFFFFE0000
00000003FFFFFE0000
00000003FFFFFF0000
00000001FFFFFF0000
00000001FFFFFF0000
00000001FFFFFF8000
00000000FFFFFF8000
00000000FFFFFFC000
000000007FFFFFC000
000000007FFFFFE000
000000003FFFFFE000
000000003FFFFFE000
000000003FFFFFF000
000000001FFFFFF000
000000001FFFFFF800
000000000FFFFFF800
000000000FFFFFFC00
0000000007FFFFFC00
0000000007FFFFFC00
0000000007FFFFFE00
0000000003FFFFFE00
0000000003FFFFFF00
0000000001FFFFFF00
0000000001FFFFFF00
0000000001FFFFFF80
0000000000FFFFFF80
0000000000FFFFFFC0
00000000007FFFFFC0
00000000007FFFFFE0
00000000003FFFFFE0
00000000003FFFFFE0
00000000003FFFFFF0
00000000001FFFFFF0
00000000001FFFFFF8
00000000000FFFFFF8
00000000000FFFFFFC
000000000007FFFFFC
000000000007FFFFFC
000000000007FFFFFE
000000000003FFFFFE
000000000003FFFFFE
000000000001FFFFFE
000000000001FFFFFE
000000000000FFFFFC
000000000000FFFFFC
000000000000FFFFF8
0000000000007FFFF0
0000000000007FFFE0
0000000000003FFF80
0000000000001FFE00
0000000000000FF800
00000000000003E000
ENDCHAR
STARTCHAR 005D
ENCODING 93
SWIDTH 333 0
DWIDTH 60 0
BBX 56 169 -9 -25
BITMAP
03FFFFFFFFFFC0
0FFFFFFFFFFFF8
3FFFFFFFFFFFFC
7FFFFFFFFFFFFE
7FFFFFFFFFFFFE
FFFFFFFFFFFFFF
FFFFFFFFFFFFFF
FFFFFFFFFFFFFF
FFFFFFFFFFFFFF
FFFFFFFFFFFFFF
FFFFFFFFFFFFFF
FFFFFFFFFFFFFF
FFFFFFFFFFFFFF
FFFFFFFFFFFFFF
FFFFFFFFFFFFFF
FFFFFFFFFFFFFF
FFFFFFFFFFFFFF
FFFFFFFFFFFFFF
7FFFFFFFFFFFFF
7FFFFFFFFFFFFF
3FFFFFFFFFFFFF
1FFFFFFFFFFFFF
07FFFFFFFFFFFF
00000000FFFFFF
00000000FFFFFF
00000000FFFFFF
00000000FFFFFF
00000000FFFFFF
00000000FFFFFF
00000000FFFFFF
00000000FFFFFF
00000000FFFFFF
00000000FFFFFF
00000000FFFFFF
00000000FFFFFF
00000000FFFFFF
00000000FFFFFF
00000000FFFFFF
00000000FFFFFF
00000000FFFFFF
00000000FFFFFF
00000000FFFFFF
00000000FFFFFF
00000000FFFFFF
00000000FFFFFF
00000000FFFFFF
00000000FFFFFF
00000000FFFFFF
00000000FFFFFF
00000000FFFFFF
00000000FFFFFF
00000000FFFFFF
00000000FFFFFF
00000000FFFFFF
00000000FFFFFF
00000000FFFFFF
00000000FFFFFF
00000000FFFFFF
00000000FFFFFF
00000000FFFFFF
00000000FFFFFF
00000000FFFFFF
00000000FFFFFF
00000000FFFFFF
00000000FFFFFF
00000000FFFFFF
00000000FFFFFF
00000000FFFFFF
00000000FFFFFF
00000000FFFFFF
00000000FFFFFF
00000000FFFFFF
00000000FFFFFF
00000000FFFFFF
00000000FFFFFF
00000000FFFFFF
00000000FFFFFF
00000000FFFFFF
00000000FFFFFF
00000000FFFFFF
00000000FFFFFF
00000000FFFFFF
00000000FFFFFF
00000000FFFFFF
00000000FFFFFF
00000000FFFFFF
00000000FFFFFF
00000000FFFFFF
00000000FFFFFF
00000000FFFFFF
00000000FFFFFF
00000000FFFFFF
00000000FFFFFF
00000000FFFFFF
00000000FFFFFF
00000000FFFFFF
00000000FFFFFF
00000000FFFFFF
00000000FFFFFF
00000000FFFFFF
00000000FFFFFF
00000000FFFFFF
00000000FFFFFF
00000000FFFFFF
00000000FFFFFF
00000000FFFFFF
00000000FFFFFF
00000000FFFFFF
00000000FFFFFF
00000000FFFFFF
00000000FFFFFF
00000000FFFFFF
00000000FFFFFF
00000000FFFFFF
00000000FFFFFF
00000000FFFFFF
00000000FFFFFF
00000000FFFFFF
00000000FFFFFF
00000000FFFFFF
00000000FFFFFF
00000000FFFFFF
00000000FFFFFF
00000000FFFFFF
00000000FFFFFF
00000000FFFFFF
00000000FFFFFF
00000000FFFFFF
00000000FFFFFF
00000000FFFFFF
00000000FFFFFF
00000000FFFFFF
00000000FFFFFF
00000000FFFFFF
00000000FFFFFF
00000000FFFFFF
00000000FFFFFF
00000000FFFFFF
00000000FFFFFF
00000000FFFFFF
00000000FFFFFF
00000000FFFFFF
00000000FFFFFF
00000000FFFFFF
00000000FFFFFF
00000000FFFFFF
00000000FFFFFF
03FFFFFFFFFFFF
1FFFFFFFFFFFFF
3FFFFFFFFFFFFF
7FFFFFFFFFFFFF
7FFFFFFFFFFFFF
FFFFFFFFFFFFFF
FFFFFFFFFFFFFF
FFFFFFFFFFFFFF
FFFFFFFFFFFFFF
FFFFFFFFFFFFFF
FFFFFFFFFFFFFF
FFFFFFFFFFFFFF
FFFFFFFFFFFFFF
FFFFFFFFFFFFFF
FFFFFFFFFFFFFF
FFFFFFFFFFFFFF
FFFFFFFFFFFFFE
7FFFFFFFFFFFFE
7FFFFFFFFFFFFE
3FFFFFFFFFFFFC
1FFFFFFFFFFFF8
07FFFFFFFFFFC0
ENDCHAR
STARTCHAR 005E
ENCODING 94
SWIDTH 572 0
DWIDTH 103 0
BBX 85 56 8 64
BITMAP
000000003FFFF000000000
000000007FFFF000000000
00000000FFFFF800000000
00000000FFFFFC00000000
00000001FFFFFC00000000
00000001FFFFFE00000000
00000003FFFFFE00000000
00000007FFFFFF00000000
00000007FFFFFF80000000
0000000FFFFFFF80000000
0000000FFFFFFFC0000000
0000001FFFFFFFC0000000
0000003FFFFFFFE0000000
0000003FFFFFFFF0000000
0000007FFFFFFFF0000000
0000007FFFFFFFF8000000
000000FFFFFFFFF8000000
000001FFFFFFFFFC000000
000001FFFFFFFFFE000000
000003FFFFFFFFFE000000
000003FFFFFFFFFF000000
000007FFFFFFFFFF000000
00000FFFFFFFFFFF800000
00000FFFFFFFFFFFC00000
00001FFFFFFFFFFFC00000
00001FFFFFFFFFFFE00000
00003FFFFFFFFFFFE00000
00007FFFFFFFFFFFF00000
00007FFFFFFFFFFFF80000
0000FFFFFFFFFFFFF80000
0000FFFFFFFFFFFFFC0000
0001FFFFFFFFFFFFFC0000
0003FFFFFFDFFFFFFE0000
0003FFFFFFDFFFFFFF0000
0007FFFFFF8FFFFFFF0000
0007FFFFFF87FFFFFF8000
000FFFFFFF07FFFFFF8000
001FFFFFFE03FFFFFFC000
001FFFFFFE03FFFFFFE000
003FFFFFFC01FFFFFFE000
007FFFFFFC00FFFFFFF000
007FFFFFF800FFFFFFF000
00FFFFFFF8007FFFFFF800
00FFFFFFF0007FFFFFFC00
01FFFFFFE0003FFFFFFC00
03FFFFFFE0003FFFFFFE00
03FFFFFFC0001FFFFFFE00
07FFFFFFC0000FFFFFFF00
07FFFFFF80000FFFFFFF80
0FFFFFFF000007FFFFFF80
1FFFFFFF000007FFFFFFC0
1FFFFFFE000003FFFFFFC0
3FFFFFFE000001FFFFFFE0
3FFFFFFC000001FFFFFFF0
7FFFFFF8000000FFFFFFF0
FFFFFFF8000000FFFFFFF8
ENDCHAR
STARTCHAR 005F
ENCODING 95
SWIDTH 394 0
DWIDTH 71 0
BBX 69 20 0 -43
BITMAP
07FFFFFFFFFFFFFF80
1FFFFFFFFFFFFFFFF0
7FFFFFFFFFFFFFFFF8
FFFFFFFFFFFFFFFFF8
FFFFFFFFFFFFFFFFF8
FFFFFFFFFFFFFFFFF8
FFFFFFFFFFFFFFFFF8
FFFFFFFFFFFFFFFFF8
FFFFFFFFFFFFFFFFF8
FFFFFFFFFFFFFFFFF8
FFFFFFFFFFFFFFFFF8
FFFFFFFFFFFFFFFFF8
FFFFFFFFFFFFFFFFF8
FFFFFFFFFFFFFFFFF8
FFFFFFFFFFFFFFFFF8
FFFFFFFFFFFFFFFFF8
7FFFFFFFFFFFFFFFF8
7FFFFFFFFFFFFFFFF0
3FFFFFFFFFFFFFFFE0
07FFFFFFFFFFFFFF80
ENDCHAR
STARTCHAR 0060
ENCODING 96
SWIDTH 255 0
DWIDTH 46 0
BBX 45 31 0 102
BITMAP
07FFFE000000
1FFFFFC00000
7FFFFFE00000
FFFFFFF00000
FFFFFFF80000
FFFFFFFC0000
FFFFFFFE0000
7FFFFFFF0000
7FFFFFFF0000
3FFFFFFF8000
1FFFFFFFC000
0FFFFFFFE000
07FFFFFFF000
03FFFFFFF800
01FFFFFFF800
00FFFFFFFC00
007FFFFFFE00
003FFFFFFF00
001FFFFFFF80
000FFFFFFF80
000FFFFFFFC0
0007FFFFFFE0
0003FFFFFFE0
0001FFFFFFF0
0000FFFFFFF8
00007FFFFFF8
00003FFFFFF8
00001FFFFFF8
000007FFFFF0
000003FFFFE0
0000007FFF80
ENDCHAR
STARTCHAR 0061
ENCODING 97
SWIDTH 544 0
DWIDTH 98 0
BBX 78 86 7 -1
BITMAP
000000007FFFF8000000
000000FFFFFFFFE00000
00003FFFFFFFFFFC0000
0007FFFFFFFFFFFF8000
001FFFFFFFFFFFFFE000
003FFFFFFFFFFFFFF000
007FFFFFFFFFFFFFFC00
007FFFFFFFFFFFFFFE00
00FFFFFFFFFFFFFFFF00
00FFFFFFFFFFFFFFFF80
00FFFFFFFFFFFFFFFF80
00FFFFFFFFFFFFFFFFC0
00FFFFFFFFFFFFFFFFE0
00FFFFFFFFFFFFFFFFE0
00FFFFFFFFFFFFFFFFF0
00FFFFFFFFFFFFFFFFF0
00FFFFFFFFFFFFFFFFF0
00FFFFFFFFFFFFFFFFF8
007FFFFFFFFFFFFFFFF8
000FFFFFFFFFFFFFFFF8
000000000000FFFFFFF8
0000000000003FFFFFF8
0000000000001FFFFFFC
0000000000001FFFFFFC
0000000000000FFFFFFC
0000000000000FFFFFFC
0000000000000FFFFFFC
0000000000000FFFFFFC
0000000000000FFFFFFC
0000000000000FFFFFFC
0000000000000FFFFFFC
00000007FFFFFFFFFFFC
000003FFFFFFFFFFFFFC
00003FFFFFFFFFFFFFFC
0001FFFFFFFFFFFFFFFC
0007FFFFFFFFFFFFFFFC
001FFFFFFFFFFFFFFFFC
003FFFFFFFFFFFFFFFFC
007FFFFFFFFFFFFFFFFC
01FFFFFFFFFFFFFFFFFC
03FFFFFFFFFFFFFFFFFC
03FFFFFFFFFFFFFFFFFC
07FFFFFFFFFFFFFFFFFC
0FFFFFFFFFFFFFFFFFFC
1FFFFFFFFFFFFFFFFFFC
1FFFFFFFFFFFFFFFFFFC
3FFFFFFFFFFFFFFFFFFC
3FFFFFFFFFFFFFFFFFFC
3FFFFFFFFFFFFFFFFFFC
7FFFFFFFE0000FFFFFFC
7FFFFFFE00000FFFFFFC
7FFFFFF800000FFFFFFC
7FFFFFF000000FFFFFFC
7FFFFFE000000FFFFFFC
FFFFFFC000000FFFFFFC
FFFFFF8000000FFFFFFC
FFFFFF8000000FFFFFFC
FFFFFF8000000FFFFFFC
FFFFFF8000000FFFFFFC
FFFFFF8000000FFFFFFC
FFFFFF8000000FFFFFFC
FFFFFF8000003FFFFFFC
FFFFFFC000007FFFFFFC
FFFFFFC00001FFFFFFFC
FFFFFFC0000FFFFFFFFC
FFFFFFE0003FFFFFFFFC
7FFFFFF007FFFFFFFFFC
7FFFFFFFFFFFFFFFFFFC
7FFFFFFFFFFFFFFFFFFC
7FFFFFFFFFFFFFFFFFFC
3FFFFFFFFFFFFFFFFFFC
3FFFFFFFFFFFFFFFFFFC
3FFFFFFFFFFFFFFFFFFC
1FFFFFFFFFFFFFFFFFFC
1FFFFFFFFFFFFFFFFFFC
0FFFFFFFFFFFFFFFFFFC
07FFFFFFFFFFFFFFFFFC
07FFFFFFFFFFFFFFFFFC
03FFFFFFFFFFFFFFFFFC
01FFFFFFFFFFFFFFFFFC
00FFFFFFFFFFFFFFFFFC
003FFFFFFFFFFFFFFFFC
001FFFFFFFFFFFFFFFF8
0007FFFFFFFFFFFFFFF0
0000FFFFFFFFFFFFFFE0
00000FFFFFFFFFFFFF80
ENDCHAR
STARTCHAR 0062
ENCODING 98
SWIDTH 577 0
DWIDTH 104 0
BBX 80 121 12 2
BITMAP
01FFF000000000000000
0FFFFE00000000000000
3FFFFF00000000000000
3FFFFF80000000000000
7FFFFFC0000000000000
7FFFFFC0000000000000
FFFFFFE0000000000000
FFFFFFE0000000000000
FFFFFFE0000000000000
FFFFFFE0000000000000
FFFFFFE0000000000000
FFFFFFE0000000000000
FFFFFFE0000000000000
FFFFFFE0000000000000
FFFFFFE0000000000000
FFFFFFE0000000000000
FFFFFFE0000000000000
FFFFFFE0000000000000
FFFFFFE0000000000000
FFFFFFE0000000000000
FFFFFFE0000000000000
FFFFFFE0000000000000
FFFFFFE0000000000000
FFFFFFE0000000000000
FFFFFFE0000000000000
FFFFFFE0000000000000
FFFFFFE0000000000000
FFFFFFE0000000000000
FFFFFFE0000000000000
FFFFFFE0000000000000
FFFFFFE0000000000000
FFFFFFE0000000000000
FFFFFFE0000000000000
FFFFFFE0000000000000
FFFFFFE0000000000000
FFFFFFFFFFFFFC000000
FFFFFFFFFFFFFFE00000
FFFFFFFFFFFFFFFC0000
FFFFFFFFFFFFFFFF8000
FFFFFFFFFFFFFFFFC000
FFFFFFFFFFFFFFFFF000
FFFFFFFFFFFFFFFFF800
FFFFFFFFFFFFFFFFFC00
FFFFFFFFFFFFFFFFFE00
FFFFFFFFFFFFFFFFFF00
FFFFFFFFFFFFFFFFFF80
FFFFFFFFFFFFFFFFFFC0
FFFFFFFFFFFFFFFFFFC0
FFFFFFFFFFFFFFFFFFE0
FFFFFFFFFFFFFFFFFFE0
FFFFFFFFFFFFFFFFFFF0
FFFFFFFFFFFFFFFFFFF0
FFFFFFFFFFFFFFFFFFF8
FFFFFFFFFFFFFFFFFFF8
FFFFFFFFFFFFFFFFFFF8
FFFFFFFFFFFFFFFFFFFC
FFFFFFFFFFFFFFFFFFFC
FFFFFFFFFC00FFFFFFFC
FFFFFFFC00003FFFFFFE
FFFFFFE000001FFFFFFE
FFFFFFE000001FFFFFFE
FFFFFFE000000FFFFFFE
FFFFFFE000000FFFFFFE
FFFFFFE000000FFFFFFE
FFFFFFE000000FFFFFFE
FFFFFFE000000FFFFFFF
FFFFFFE0000007FFFFFF
FFFFFFE0000007FFFFFF
FFFFFFE0000007FFFFFF
FFFFFFE0000007FFFFFF
FFFFFFE0000007FFFFFF
FFFFFFE0000007FFFFFF
FFFFFFE0000007FFFFFF
FFFFFFE0000007FFFFFF
FFFFFFE0000007FFFFFF
FFFFFFE0000007FFFFFF
FFFFFFE0000007FFFFFF
FFFFFFE0000007FFFFFF
FFFFFFE0000007FFFFFF
FFFFFFE0000007FFFFFF
FFFFFFE0000007FFFFFF
FFFFFFE0000007FFFFFF
FFFFFFE0000007FFFFFF
FFFFFFE0000007FFFFFF
FFFFFFE0000007FFFFFF
FFFFFFE0000007FFFFFF
FFFFFFE0000007FFFFFF
FFFFFFE0000007FFFFFE
FFFFFFE0000007FFFFFE
FFFFFFE0000007FFFFFE
FFFFFFE000000FFFFFFE
FFFFFFE000000FFFFFFE
FFFFFFE000000FFFFFFE
FFFFFFE000000FFFFFFE
FFFFFFE000000FFFFFFC
FFFFFFE000001FFFFFFC
FFFFFFE000001FFFFFFC
FFFFFFE000003FFFFFFC
FFFFFFE000007FFFFFF8
FFFFFFE00001FFFFFFF8
FFFFFFFFF01FFFFFFFF8
FFFFFFFFFFFFFFFFFFF0
FFFFFFFFFFFFFFFFFFF0
FFFFFFFFFFFFFFFFFFE0
FFFFFFFFFFFFFFFFFFE0
FFFFFFFFFFFFFFFFFFC0
FFFFFFFFFFFFFFFFFFC0
FFFFFFFFFFFFFFFFFF80
FFFFFFFFFFFFFFFFFF00
FFFFFFFFFFFFFFFFFE00
FFFFFFFFFFFFFFFFFE00
FFFFFFFFFFFFFFFFFC00
FFFFFFFFFFFFFFFFF000
7FFFFFFFFFFFFFFFE000
7FFFFFFFFFFFFFFFC000
3FFFFFFFFFFFFFFF0000
1FFFFFFFFFFFFFFC0000
0FFFFFFFFFFFFFF00000
03FFFFFFFFFFFF800000
001FFFFFFFFFFC000000
00001FFFFFFF00000000
ENDCHAR
STARTCHAR 0063
ENCODING 99
SWIDTH 494 0
DWIDTH 89 0
BBX 68 86 10 0
BITMAP
00000001FFFFFFFE00
000000FFFFFFFFFFC0
00000FFFFFFFFFFFE0
00007FFFFFFFFFFFF0
0001FFFFFFFFFFFFF0
0007FFFFFFFFFFFFF0
000FFFFFFFFFFFFFF0
003FFFFFFFFFFFFFF0
007FFFFFFFFFFFFFF0
00FFFFFFFFFFFFFFF0
01FFFFFFFFFFFFFFF0
01FFFFFFFFFFFFFFF0
03FFFFFFFFFFFFFFF0
07FFFFFFFFFFFFFFF0
07FFFFFFFFFFFFFFF0
0FFFFFFFFFFFFFFFF0
0FFFFFFFFFFFFFFFE0
1FFFFFFFFFFFFFFFE0
1FFFFFFFFFFFFFFFE0
1FFFFFFFFFFFFFFFC0
3FFFFFFFFFFFFFFF80
3FFFFFFFFFFFFFFE00
3FFFFFFF8000000000
3FFFFFF80000000000
7FFFFFF00000000000
7FFFFFE00000000000
7FFFFFE00000000000
7FFFFFE00000000000
7FFFFFE00000000000
7FFFFFE00000000000
7FFFFFE00000000000
FFFFFFE00000000000
FFFFFFE00000000000
FFFFFFE00000000000
FFFFFFE00000000000
FFFFFFE00000000000
FFFFFFE00000000000
FFFFFFE00000000000
FFFFFFE00000000000
FFFFFFE00000000000
FFFFFFE00000000000
FFFFFFE00000000000
FFFFFFE00000000000
FFFFFFE00000000000
FFFFFFE00000000000
FFFFFFE00000000000
FFFFFFE00000000000
FFFFFFE00000000000
FFFFFFE00000000000
FFFFFFE00000000000
FFFFFFE00000000000
FFFFFFE00000000000
FFFFFFE00000000000
FFFFFFE00000000000
FFFFFFE00000000000
7FFFFFE00000000000
7FFFFFE00000000000
7FFFFFF00000000000
7FFFFFF00000000000
7FFFFFF00000000000
7FFFFFF00000000000
7FFFFFF80000000000
3FFFFFF80000000000
3FFFFFFF0000000000
3FFFFFFFFFFFFFFE00
3FFFFFFFFFFFFFFF80
1FFFFFFFFFFFFFFFC0
1FFFFFFFFFFFFFFFC0
1FFFFFFFFFFFFFFFE0
0FFFFFFFFFFFFFFFE0
0FFFFFFFFFFFFFFFE0
07FFFFFFFFFFFFFFE0
07FFFFFFFFFFFFFFF0
03FFFFFFFFFFFFFFF0
03FFFFFFFFFFFFFFF0
01FFFFFFFFFFFFFFF0
00FFFFFFFFFFFFFFF0
007FFFFFFFFFFFFFF0
003FFFFFFFFFFFFFF0
001FFFFFFFFFFFFFF0
0007FFFFFFFFFFFFF0
0003FFFFFFFFFFFFF0
00007FFFFFFFFFFFF0
00000FFFFFFFFFFFE0
000001FFFFFFFFFFC0
00000003FFFFFFFE00
ENDCHAR
STARTCHAR 0064
ENCODING 100
SWIDTH 577 0
DWIDTH 104 0
BBX 81 121 10 1
BITMAP
0000000000000007FFC000
000000000000003FFFF800
000000000000007FFFFC00
00000000000000FFFFFE00
00000000000001FFFFFF00
00000000000001FFFFFF00
00000000000003FFFFFF80
00000000000003FFFFFF80
00000000000003FFFFFF80
00000000000003FFFFFF80
00000000000003FFFFFF80
00000000000003FFFFFF80
00000000000003FFFFFF80
00000000000003FFFFFF80
00000000000003FFFFFF80
00000000000003FFFFFF80
00000000000003FFFFFF80
00000000000003FFFFFF80
00000000000003FFFFFF80
00000000000003FFFFFF80
00000000000003FFFFFF80
00000000000003FFFFFF80
00000000000003FFFFFF80
00000000000003FFFFFF80
00000000000003FFFFFF80
00000000000003FFFFFF80
00000000000003FFFFFF80
00000000000003FFFFFF80
00000000000003FFFFFF80
00000000000003FFFFFF80
00000000000003FFFFFF80
00000000000003FFFFFF80
00000000000003FFFFFF80
00000000000003FFFFFF80
00000000000003FFFFFF80
00000000FFFFFFFFFFFF80
0000003FFFFFFFFFFFFF80
000001FFFFFFFFFFFFFF80
00000FFFFFFFFFFFFFFF80
00003FFFFFFFFFFFFFFF80
0000FFFFFFFFFFFFFFFF80
0001FFFFFFFFFFFFFFFF80
0003FFFFFFFFFFFFFFFF80
000FFFFFFFFFFFFFFFFF80
001FFFFFFFFFFFFFFFFF80
003FFFFFFFFFFFFFFFFF80
007FFFFFFFFFFFFFFFFF80
00FFFFFFFFFFFFFFFFFF80
00FFFFFFFFFFFFFFFFFF80
01FFFFFFFFFFFFFFFFFF80
03FFFFFFFFFFFFFFFFFF80
03FFFFFFFFFFFFFFFFFF80
07FFFFFFFFFFFFFFFFFF80
07FFFFFFFFFFFFFFFFFF80
0FFFFFFFFFFFFFFFFFFF80
0FFFFFFFC003FFFFFFFF80
0FFFFFFF00000FFFFFFF80
1FFFFFFE000003FFFFFF80
1FFFFFFC000003FFFFFF80
1FFFFFFC000003FFFFFF80
3FFFFFF8000003FFFFFF80
3FFFFFF8000003FFFFFF80
3FFFFFF8000003FFFFFF80
3FFFFFF0000003FFFFFF80
7FFFFFF0000003FFFFFF80
7FFFFFF0000003FFFFFF80
7FFFFFF0000003FFFFFF80
7FFFFFF0000003FFFFFF80
7FFFFFF0000003FFFFFF80
7FFFFFE0000003FFFFFF80
FFFFFFE0000003FFFFFF80
FFFFFFE0000003FFFFFF80
FFFFFFE0000003FFFFFF80
FFFFFFE0000003FFFFFF80
FFFFFFE0000003FFFFFF80
FFFFFFE0000003FFFFFF80
FFFFFFE0000003FFFFFF80
FFFFFFE0000003FFFFFF80
FFFFFFE0000003FFFFFF80
FFFFFFE0000003FFFFFF80
FFFFFFE0000003FFFFFF80
FFFFFFE0000003FFFFFF80
FFFFFFE0000003FFFFFF80
FFFFFFE0000003FFFFFF80
FFFFFFE0000003FFFFFF80
FFFFFFE0000003FFFFFF80
FFFFFFE0000003FFFFFF80
FFFFFFF0000003FFFFFF80
7FFFFFF0000003FFFFFF80
7FFFFFF0000003FFFFFF80
7FFFFFF0000003FFFFFF80
7FFFFFF8000003FFFFFF80
7FFFFFF8000003FFFFFF80
7FFFFFF800000FFFFFFF80
3FFFFFFC00001FFFFFFF80
3FFFFFFE00007FFFFFFF80
3FFFFFFF0001FFFFFFFF80
3FFFFFFF8007FFFFFFFF80
1FFFFFFFE07FFFFFFFFF80
1FFFFFFFFFFFFFFFFFFF80
1FFFFFFFFFFFFFFFFFFF80
0FFFFFFFFFFFFFFFFFFF80
0FFFFFFFFFFFFFFFFFFF80
07FFFFFFFFFFFFFFFFFF80
07FFFFFFFFFFFFFFFFFF80
03FFFFFFFFFFFFFFFFFF80
03FFFFFFFFFFFFFFFFFF80
01FFFFFFFFFFFFFFFFFF80
00FFFFFFFFFFFFFFFFFF80
00FFFFFFFFFFFFFFFFFF80
007FFFFFFFFFFFFFFFFF80
003FFFFFFFFFFFFFFFFF80
001FFFFFFFFFFFFFFFFF80
000FFFFFFFFFFFFFFFFF80
0007FFFFFFFFFFFFFFFF80
0003FFFFFFFFFFFFFFFF00
0000FFFFFFFFFFFFFFFF00
00003FFFFFFFFFFFFFFF00
00000FFFFFFFFFFFFFFE00
000001FFFFFFFFFFFFF800
0000001FFFFFFFFFFFE000
ENDCHAR
STARTCHAR 0065
ENCODING 101
SWIDTH 544 0
DWIDTH 98 0
BBX 76 86 10 0
BITMAP
00000003FFFF00000000
000000FFFFFFFC000000
00000FFFFFFFFF800000
00003FFFFFFFFFF00000
0000FFFFFFFFFFFC0000
0003FFFFFFFFFFFE0000
000FFFFFFFFFFFFF8000
001FFFFFFFFFFFFFC000
003FFFFFFFFFFFFFE000
007FFFFFFFFFFFFFF000
00FFFFFFFFFFFFFFF800
01FFFFFFFFFFFFFFFC00
03FFFFFFFFFFFFFFFC00
03FFFFFFFFFFFFFFFE00
07FFFFFFFFFFFFFFFF00
07FFFFFFFFFFFFFFFF00
0FFFFFFFFFFFFFFFFF80
0FFFFFFFFFFFFFFFFF80
1FFFFFFFFFFFFFFFFF80
1FFFFFFFFFFFFFFFFFC0
1FFFFFFFE01FFFFFFFC0
3FFFFFFE0000FFFFFFC0
3FFFFFFC00007FFFFFC0
3FFFFFF000003FFFFFE0
3FFFFFF000003FFFFFE0
7FFFFFE000001FFFFFE0
7FFFFFE000001FFFFFE0
7FFFFFE000001FFFFFE0
7FFFFFC000001FFFFFE0
7FFFFFC000001FFFFFF0
7FFFFFC000001FFFFFF0
7FFFFFC000001FFFFFF0
FFFFFFC000001FFFFFF0
FFFFFFFFFFFFFFFFFFF0
FFFFFFFFFFFFFFFFFFF0
FFFFFFFFFFFFFFFFFFF0
FFFFFFFFFFFFFFFFFFF0
FFFFFFFFFFFFFFFFFFF0
FFFFFFFFFFFFFFFFFFF0
FFFFFFFFFFFFFFFFFFF0
FFFFFFFFFFFFFFFFFFF0
FFFFFFFFFFFFFFFFFFF0
FFFFFFFFFFFFFFFFFFF0
FFFFFFFFFFFFFFFFFFF0
FFFFFFFFFFFFFFFFFFF0
FFFFFFFFFFFFFFFFFFF0
FFFFFFFFFFFFFFFFFFF0
FFFFFFFFFFFFFFFFFFE0
FFFFFFFFFFFFFFFFFFE0
FFFFFFFFFFFFFFFFFFC0
FFFFFFFFFFFFFFFFFF00
FFFFFFC0000000000000
FFFFFFC0000000000000
FFFFFFC0000000000000
7FFFFFC0000000000000
7FFFFFC0000000000000
7FFFFFC0000000000000
7FFFFFC0000000000000
7FFFFFE0000000000000
7FFFFFE0000000000000
7FFFFFE0000000000000
3FFFFFF0000000000000
3FFFFFF8000000000000
3FFFFFFC000000000000
3FFFFFFF000000000000
1FFFFFFFF80000000000
1FFFFFFFFFFFFFFFFF80
1FFFFFFFFFFFFFFFFFC0
0FFFFFFFFFFFFFFFFFE0
0FFFFFFFFFFFFFFFFFE0
07FFFFFFFFFFFFFFFFF0
07FFFFFFFFFFFFFFFFF0
03FFFFFFFFFFFFFFFFF0
01FFFFFFFFFFFFFFFFF0
01FFFFFFFFFFFFFFFFF0
00FFFFFFFFFFFFFFFFF0
007FFFFFFFFFFFFFFFF0
003FFFFFFFFFFFFFFFF0
001FFFFFFFFFFFFFFFF0
000FFFFFFFFFFFFFFFF0
0003FFFFFFFFFFFFFFE0
0000FFFFFFFFFFFFFFE0
00003FFFFFFFFFFFFFC0
000007FFFFFFFFFFFF00
0000007FFFFFFFFFF000
00000001FFFFFFF00000
ENDCHAR
STARTCHAR 0066
ENCODING 102
SWIDTH 405 0
DWIDTH 73 0
BBX 65 124 4 0
BITMAP
000000003FFFFF0000
0000000FFFFFFFF000
0000007FFFFFFFFC00
000001FFFFFFFFFF00
000007FFFFFFFFFF00
00000FFFFFFFFFFF80
00003FFFFFFFFFFF80
00007FFFFFFFFFFF80
0000FFFFFFFFFFFF80
0001FFFFFFFFFFFF80
0001FFFFFFFFFFFF80
0003FFFFFFFFFFFF80
0007FFFFFFFFFFFF80
0007FFFFFFFFFFFF80
000FFFFFFFFFFFFF80
000FFFFFFFFFFFFF80
001FFFFFFFFFFFFF80
001FFFFFFFFFFFFF00
001FFFFFFFFFFFFF00
001FFFFFFFFFFFFE00
001FFFFFFFFFFFFE00
003FFFFFFFFFFFF800
003FFFFFFE00000000
003FFFFFFC00000000
003FFFFFF800000000
003FFFFFF800000000
003FFFFFF800000000
003FFFFFF800000000
003FFFFFF800000000
003FFFFFF800000000
003FFFFFF800000000
003FFFFFF800000000
003FFFFFF800000000
003FFFFFF800000000
003FFFFFF800000000
003FFFFFF800000000
003FFFFFF800000000
003FFFFFF800000000
01FFFFFFFFFFFE0000
0FFFFFFFFFFFFF8000
1FFFFFFFFFFFFFC000
3FFFFFFFFFFFFFE000
3FFFFFFFFFFFFFF000
7FFFFFFFFFFFFFF000
7FFFFFFFFFFFFFF000
7FFFFFFFFFFFFFF000
FFFFFFFFFFFFFFF000
FFFFFFFFFFFFFFF000
FFFFFFFFFFFFFFF000
FFFFFFFFFFFFFFF000
7FFFFFFFFFFFFFF000
7FFFFFFFFFFFFFF000
7FFFFFFFFFFFFFF000
7FFFFFFFFFFFFFF000
7FFFFFFFFFFFFFF000
7FFFFFFFFFFFFFF000
3FFFFFFFFFFFFFE000
3FFFFFFFFFFFFFE000
1FFFFFFFFFFFFFC000
0FFFFFFFFFFFFF0000
007FFFFFFFFFF00000
003FFFFFF800000000
003FFFFFF800000000
003FFFFFF800000000
003FFFFFF800000000
003FFFFFF800000000
003FFFFFF800000000
003FFFFFF800000000
003FFFFFF800000000
003FFFFFF800000000
003FFFFFF800000000
003FFFFFF800000000
003FFFFFF800000000
003FFFFFF800000000
003FFFFFF800000000
003FFFFFF800000000
003FFFFFF800000000
003FFFFFF800000000
003FFFFFF800000000
003FFFFFF800000000
003FFFFFF800000000
003FFFFFF800000000
003FFFFFF800000000
003FFFFFF800000000
003FFFFFF800000000
003FFFFFF800000000
003FFFFFF800000000
003FFFFFF800000000
003FFFFFF800000000
003FFFFFF800000000
003FFFFFF800000000
003FFFFFF800000000
003FFFFFF800000000
003FFFFFF800000000
003FFFFFF800000000
003FFFFFF800000000
003FFFFFF800000000
003FFFFFF800000000
003FFFFFF800000000
003FFFFFF800000000
003FFFFFF800000000
003FFFFFF800000000
003FFFFFF800000000
003FFFFFF800000000
003FFFFFF800000000
003FFFFFF800000000
003FFFFFF800000000
003FFFFFF800000000
003FFFFFF800000000
003FFFFFF800000000
003FFFFFF800000000
003FFFFFF800000000
003FFFFFF800000000
003FFFFFF800000000
003FFFFFF800000000
003FFFFFF800000000
003FFFFFF800000000
003FFFFFF800000000
001FFFFFF000000000
001FFFFFF000000000
001FFFFFE000000000
000FFFFFC000000000
0007FFFF8000000000
0000FFFC0000000000
ENDCHAR
STARTCHAR 0067
ENCODING 103
SWIDTH 572 0
DWIDTH 103 0
BBX 80 124 10 -38
BITMAP
000000003FFFFFFFF000
0000001FFFFFFFFFFFE0
000000FFFFFFFFFFFFF8
000007FFFFFFFFFFFFFC
00001FFFFFFFFFFFFFFE
00007FFFFFFFFFFFFFFE
0001FFFFFFFFFFFFFFFF
0003FFFFFFFFFFFFFFFF
0007FFFFFFFFFFFFFFFF
000FFFFFFFFFFFFFFFFF
001FFFFFFFFFFFFFFFFF
003FFFFFFFFFFFFFFFFF
007FFFFFFFFFFFFFFFFF
00FFFFFFFFFFFFFFFFFF
00FFFFFFFFFFFFFFFFFF
01FFFFFFFFFFFFFFFFFF
03FFFFFFFFFFFFFFFFFF
03FFFFFFFFFFFFFFFFFF
07FFFFFFFFFFFFFFFFFF
07FFFFFFFFFFFFFFFFFF
0FFFFFFFFFFFFFFFFFFF
0FFFFFFFFF8007FFFFFF
0FFFFFFF800007FFFFFF
1FFFFFFE000007FFFFFF
1FFFFFFC000007FFFFFF
1FFFFFF8000007FFFFFF
3FFFFFF8000007FFFFFF
3FFFFFF8000007FFFFFF
3FFFFFF0000007FFFFFF
3FFFFFF0000007FFFFFF
7FFFFFF0000007FFFFFF
7FFFFFF0000007FFFFFF
7FFFFFF0000007FFFFFF
7FFFFFE0000007FFFFFF
7FFFFFE0000007FFFFFF
7FFFFFE0000007FFFFFF
FFFFFFE0000007FFFFFF
FFFFFFE0000007FFFFFF
FFFFFFE0000007FFFFFF
FFFFFFE0000007FFFFFF
FFFFFFE0000007FFFFFF
FFFFFFE0000007FFFFFF
FFFFFFE0000007FFFFFF
FFFFFFE0000007FFFFFF
FFFFFFE0000007FFFFFF
FFFFFFE0000007FFFFFF
FFFFFFE0000007FFFFFF
FFFFFFE0000007FFFFFF
FFFFFFE0000007FFFFFF
FFFFFFE0000007FFFFFF
FFFFFFE0000007FFFFFF
FFFFFFE0000007FFFFFF
FFFFFFE0000007FFFFFF
FFFFFFE0000007FFFFFF
FFFFFFE0000007FFFFFF
FFFFFFE0000007FFFFFF
7FFFFFF0000007FFFFFF
7FFFFFF0000007FFFFFF
7FFFFFF0000007FFFFFF
7FFFFFF0000007FFFFFF
7FFFFFF0000007FFFFFF
7FFFFFF8000007FFFFFF
3FFFFFF8000007FFFFFF
3FFFFFFC00000FFFFFFF
3FFFFFFE0000FFFFFFFF
3FFFFFFFE1FFFFFFFFFF
1FFFFFFFFFFFFFFFFFFF
1FFFFFFFFFFFFFFFFFFF
1FFFFFFFFFFFFFFFFFFF
0FFFFFFFFFFFFFFFFFFF
0FFFFFFFFFFFFFFFFFFF
07FFFFFFFFFFFFFFFFFF
07FFFFFFFFFFFFFFFFFF
03FFFFFFFFFFFFFFFFFF
01FFFFFFFFFFFFFFFFFF
01FFFFFFFFFFFFFFFFFF
00FFFFFFFFFFFFFFFFFF
007FFFFFFFFFFFFFFFFF
003FFFFFFFFFFFFFFFFF
001FFFFFFFFFFFFFFFFF
0007FFFFFFFFFFFFFFFF
0003FFFFFFFFFFFFFFFF
0000FFFFFFFFFFFFFFFF
00003FFFFFFFFFFFFFFF
000007FFFFFFFFFFFFFF
0000001FFFFFFFFFFFFF
00000000000007FFFFFF
00000000000007FFFFFF
00000000000007FFFFFF
00000000000007FFFFFF
00000000000007FFFFFF
00000000000007FFFFFF
00000000000007FFFFFF
00000000000007FFFFFF
00000000000007FFFFFF
00000000000007FFFFFF
0000000000000FFFFFFF
0000000000000FFFFFFF
0000000000001FFFFFFF
0000000000001FFFFFFF
0000000000003FFFFFFF
000000000000FFFFFFFF
00FFFFFFFFFFFFFFFFFE
0FFFFFFFFFFFFFFFFFFE
3FFFFFFFFFFFFFFFFFFE
3FFFFFFFFFFFFFFFFFFE
7FFFFFFFFFFFFFFFFFFC
7FFFFFFFFFFFFFFFFFFC
FFFFFFFFFFFFFFFFFFF8
FFFFFFFFFFFFFFFFFFF8
FFFFFFFFFFFFFFFFFFF0
FFFFFFFFFFFFFFFFFFE0
FFFFFFFFFFFFFFFFFFC0
FFFFFFFFFFFFFFFFFF80
FFFFFFFFFFFFFFFFFF00
FFFFFFFFFFFFFFFFFE00
7FFFFFFFFFFFFFFFFC00
7FFFFFFFFFFFFFFFF000
7FFFFFFFFFFFFFFFE000
3FFFFFFFFFFFFFFF8000
0FFFFFFFFFFFFFFC0000
03FFFFFFFFFFFFE00000
003FFFFFFFFFFF000000
00001FFFFFFF80000000
ENDCHAR
STARTCHAR 0068
ENCODING 104
SWIDTH 572 0
DWIDTH 103 0
BBX 78 120 12 -1
BITMAP
03FFF800000000000000
1FFFFE00000000000000
3FFFFF00000000000000
7FFFFF80000000000000
7FFFFFC0000000000000
7FFFFFC0000000000000
FFFFFFE0000000000000
FFFFFFE0000000000000
FFFFFFE0000000000000
FFFFFFE0000000000000
FFFFFFE0000000000000
FFFFFFE0000000000000
FFFFFFE0000000000000
FFFFFFE0000000000000
FFFFFFE0000000000000
FFFFFFE0000000000000
FFFFFFE0000000000000
FFFFFFE0000000000000
FFFFFFE0000000000000
FFFFFFE0000000000000
FFFFFFE0000000000000
FFFFFFE0000000000000
FFFFFFE0000000000000
FFFFFFE0000000000000
FFFFFFE0000000000000
FFFFFFE0000000000000
FFFFFFE0000000000000
FFFFFFE0000000000000
FFFFFFE0000000000000
FFFFFFE0000000000000
FFFFFFE0000000000000
FFFFFFE0000000000000
FFFFFFE0000000000000
FFFFFFE0000000000000
FFFFFFFFFFFFFF000000
FFFFFFFFFFFFFFF00000
FFFFFFFFFFFFFFFE0000
FFFFFFFFFFFFFFFFC000
FFFFFFFFFFFFFFFFE000
FFFFFFFFFFFFFFFFF800
FFFFFFFFFFFFFFFFFC00
FFFFFFFFFFFFFFFFFE00
FFFFFFFFFFFFFFFFFF00
FFFFFFFFFFFFFFFFFF80
FFFFFFFFFFFFFFFFFFC0
FFFFFFFFFFFFFFFFFFC0
FFFFFFFFFFFFFFFFFFE0
FFFFFFFFFFFFFFFFFFE0
FFFFFFFFFFFFFFFFFFF0
FFFFFFFFFFFFFFFFFFF0
FFFFFFFFFFFFFFFFFFF8
FFFFFFFFFFFFFFFFFFF8
FFFFFFFFFFC07FFFFFF8
FFFFFFFFFC003FFFFFF8
FFFFFFFFE0003FFFFFFC
FFFFFFFF80001FFFFFFC
FFFFFFFE00001FFFFFFC
FFFFFFFC00001FFFFFFC
FFFFFFF000001FFFFFFC
FFFFFFE000001FFFFFFC
FFFFFFE000001FFFFFFC
FFFFFFE000001FFFFFFC
FFFFFFE000001FFFFFFC
FFFFFFE000001FFFFFFC
FFFFFFE000001FFFFFFC
FFFFFFE000001FFFFFFC
FFFFFFE000001FFFFFFC
FFFFFFE000001FFFFFFC
FFFFFFE000001FFFFFFC
FFFFFFE000001FFFFFFC
FFFFFFE000001FFFFFFC
FFFFFFE000001FFFFFFC
FFFFFFE000001FFFFFFC
FFFFFFE000001FFFFFFC
FFFFFFE000001FFFFFFC
FFFFFFE000001FFFFFFC
FFFFFFE000001FFFFFFC
FFFFFFE000001FFFFFFC
FFFFFFE000001FFFFFFC
FFFFFFE000001FFFFFFC
FFFFFFE000001FFFFFFC
FFFFFFE000001FFFFFFC
FFFFFFE000001FFFFFFC
FFFFFFE000001FFFFFFC
FFFFFFE000001FFFFFFC
FFFFFFE000001FFFFFFC
FFFFFFE000001FFFFFFC
FFFFFFE000001FFFFFFC
FFFFFFE000001FFFFFFC
FFFFFFE000001FFFFFFC
FFFFFFE000001FFFFFFC
FFFFFFE000001FFFFFFC
FFFFFFE000001FFFFFFC
FFFFFFE000001FFFFFFC
FFFFFFE000001FFFFFFC
FFFFFFE000001FFFFFFC
FFFFFFE000001FFFFFFC
FFFFFFE000001FFFFFFC
FFFFFFE000001FFFFFFC
FFFFFFE000001FFFFFFC
FFFFFFE000001FFFFFFC
FFFFFFE000001FFFFFFC
FFFFFFE000001FFFFFFC
FFFFFFE000001FFFFFFC
FFFFFFE000001FFFFFFC
FFFFFFE000001FFFFFFC
FFFFFFE000001FFFFFFC
FFFFFFE000001FFFFFFC
FFFFFFE000001FFFFFFC
FFFFFFE000001FFFFFFC
FFFFFFE000001FFFFFFC
FFFFFFE000001FFFFFFC
FFFFFFE000001FFFFFFC
FFFFFFE000001FFFFFFC
7FFFFFC000000FFFFFFC
7FFFFFC000000FFFFFF8
7FFFFF8000000FFFFFF8
3FFFFF00000007FFFFF0
1FFFFE00000001FFFFE0
03FFF0000000007FFF00
ENDCHAR
STARTCHAR 0069
ENCODING 105
SWIDTH 288 0
DWIDTH 52 0
BBX 27 120 12 0
BITMAP
03FFF800
1FFFFE00
3FFFFF00
7FFFFF80
7FFFFFC0
7FFFFFC0
FFFFFFE0
FFFFFFE0
FFFFFFE0
FFFFFFE0
FFFFFFE0
FFFFFFE0
FFFFFFE0
FFFFFFE0
FFFFFFE0
FFFFFFE0
FFFFFFE0
FFFFFFE0
FFFFFFE0
FFFFFFE0
7FFFFFC0
7FFFFFC0
3FFFFF80
1FFFFF00
0FFFFE00
003FE000
00000000
00000000
00000000
00000000
00000000
00000000
00000000
00000000
03FFF800
0FFFFE00
3FFFFF00
3FFFFF80
7FFFFFC0
7FFFFFC0
FFFFFFE0
FFFFFFE0
FFFFFFE0
FFFFFFE0
FFFFFFE0
FFFFFFE0
FFFFFFE0
FFFFFFE0
FFFFFFE0
FFFFFFE0
FFFFFFE0
FFFFFFE0
FFFFFFE0
FFFFFFE0
FFFFFFE0
FFFFFFE0
FFFFFFE0
FFFFFFE0
FFFFFFE0
FFFFFFE0
FFFFFFE0
FFFFFFE0
FFFFFFE0
FFFFFFE0
FFFFFFE0
FFFFFFE0
FFFFFFE0
FFFFFFE0
FFFFFFE0
FFFFFFE0
FFFFFFE0
FFFFFFE0
FFFFFFE0
FFFFFFE0
FFFFFFE0
FFFFFFE0
FFFFFFE0
FFFFFFE0
FFFFFFE0
FFFFFFE0
FFFFFFE0
FFFFFFE0
FFFFFFE0
FFFFFFE0
FFFFFFE0
FFFFFFE0
FFFFFFE0
FFFFFFE0
FFFFFFE0
FFFFFFE0
FFFFFFE0
FFFFFFE0
FFFFFFE0
FFFFFFE0
FFFFFFE0
FFFFFFE0
FFFFFFE0
FFFFFFE0
FFFFFFE0
FFFFFFE0
FFFFFFE0
FFFFFFE0
FFFFFFE0
FFFFFFE0
FFFFFFE0
FFFFFFE0
FFFFFFE0
FFFFFFE0
FFFFFFE0
FFFFFFE0
FFFFFFE0
FFFFFFE0
FFFFFFE0
FFFFFFE0
7FFFFFC0
7FFFFFC0
7FFFFF80
3FFFFF80
1FFFFE00
03FFF800
ENDCHAR
STARTCHAR 006A
ENCODING 106
SWIDTH 300 0
DWIDTH 54 0
BBX 45 158 -4 -38
BITMAP
000000FFFE00
000003FFFF80
00000FFFFFC0
00000FFFFFE0
00001FFFFFF0
00001FFFFFF0
00003FFFFFF8
00003FFFFFF8
00003FFFFFF8
00003FFFFFF8
00003FFFFFF8
00003FFFFFF8
00003FFFFFF8
00003FFFFFF8
00003FFFFFF8
00003FFFFFF8
00003FFFFFF8
00003FFFFFF8
00003FFFFFF8
00003FFFFFF8
00001FFFFFF0
00001FFFFFF0
00001FFFFFE0
00000FFFFFE0
000003FFFF80
0000001FFC00
000000000000
000000000000
000000000000
000000000000
000000000000
000000000000
000000000000
000000000000
000000FFFE00
000003FFFF80
00000FFFFFC0
00000FFFFFE0
00001FFFFFF0
00001FFFFFF0
00003FFFFFF8
00003FFFFFF8
00003FFFFFF8
00003FFFFFF8
00003FFFFFF8
00003FFFFFF8
00003FFFFFF8
00003FFFFFF8
00003FFFFFF8
00003FFFFFF8
00003FFFFFF8
00003FFFFFF8
00003FFFFFF8
00003FFFFFF8
00003FFFFFF8
00003FFFFFF8
00003FFFFFF8
00003FFFFFF8
00003FFFFFF8
00003FFFFFF8
00003FFFFFF8
00003FFFFFF8
00003FFFFFF8
00003FFFFFF8
00003FFFFFF8
00003FFFFFF8
00003FFFFFF8
00003FFFFFF8
00003FFFFFF8
00003FFFFFF8
00003FFFFFF8
00003FFFFFF8
00003FFFFFF8
00003FFFFFF8
00003FFFFFF8
00003FFFFFF8
00003FFFFFF8
00003FFFFFF8
00003FFFFFF8
00003FFFFFF8
00003FFFFFF8
00003FFFFFF8
00003FFFFFF8
00003FFFFFF8
00003FFFFFF8
00003FFFFFF8
00003FFFFFF8
00003FFFFFF8
00003FFFFFF8
00003FFFFFF8
00003FFFFFF8
00003FFFFFF8
00003FFFFFF8
00003FFFFFF8
00003FFFFFF8
00003FFFFFF8
00003FFFFFF8
00003FFFFFF8
00003FFFFFF8
00003FFFFFF8
00003FFFFFF8
00003FFFFFF8
00003FFFFFF8
00003FFFFFF8
00003FFFFFF8
00003FFFFFF8
00003FFFFFF8
00003FFFFFF8
00003FFFFFF8
00003FFFFFF8
00003FFFFFF8
00003FFFFFF8
00003FFFFFF8
00003FFFFFF8
00003FFFFFF8
00003FFFFFF8
00003FFFFFF8
00003FFFFFF8
00003FFFFFF8
00003FFFFFF8
00003FFFFFF8
00003FFFFFF8
00003FFFFFF8
00003FFFFFF8
00003FFFFFF8
00003FFFFFF8
00003FFFFFF8
00003FFFFFF8
00003FFFFFF8
00003FFFFFF8
00003FFFFFF8
00003FFFFFF8
00003FFFFFF8
03F03FFFFFF8
0FFFFFFFFFF0
1FFFFFFFFFF0
3FFFFFFFFFF0
7FFFFFFFFFF0
7FFFFFFFFFF0
7FFFFFFFFFE0
7FFFFFFFFFE0
FFFFFFFFFFE0
FFFFFFFFFFC0
FFFFFFFFFFC0
FFFFFFFFFFC0
FFFFFFFFFF80
FFFFFFFFFF00
FFFFFFFFFE00
7FFFFFFFFE00
7FFFFFFFFC00
7FFFFFFFF800
7FFFFFFFE000
7FFFFFFFC000
7FFFFFFF0000
3FFFFFFC0000
1FFFFFF00000
0FFFFF800000
01FFF0000000
ENDCHAR
STARTCHAR 006B
ENCODING 107
SWIDTH 538 0
DWIDTH 97 0
BBX 82 124 12 2
BITMAP
003E000000000000000000
07FFFC0000000000000000
1FFFFF0000000000000000
3FFFFF8000000000000000
7FFFFFC000000000000000
7FFFFFC000000000000000
FFFFFFC000000000000000
FFFFFFE000000000000000
FFFFFFE000000000000000
FFFFFFE000000000000000
FFFFFFE000000000000000
FFFFFFE000000000000000
FFFFFFE000000000000000
FFFFFFE000000000000000
FFFFFFE000000000000000
FFFFFFE000000000000000
FFFFFFE000000000000000
FFFFFFE000000000000000
FFFFFFE000000000000000
FFFFFFE000000000000000
FFFFFFE000000000000000
FFFFFFE000000000000000
FFFFFFE000000000000000
FFFFFFE000000000000000
FFFFFFE000000000000000
FFFFFFE000000000000000
FFFFFFE000000000000000
FFFFFFE000000000000000
FFFFFFE000000000000000
FFFFFFE000000000000000
FFFFFFE000000000000000
FFFFFFE000000000000000
FFFFFFE000000000000000
FFFFFFE000000000000000
FFFFFFE000000000000000
FFFFFFE000000000000000
FFFFFFE000000000000000
FFFFFFE000000000000000
FFFFFFE0000007FFFF0000
FFFFFFE000001FFFFFC000
FFFFFFE000007FFFFFE000
FFFFFFE00000FFFFFFF000
FFFFFFE00001FFFFFFF000
FFFFFFE00003FFFFFFF000
FFFFFFE00007FFFFFFF000
FFFFFFE00007FFFFFFF000
FFFFFFE0000FFFFFFFF000
FFFFFFE0001FFFFFFFF000
FFFFFFE0003FFFFFFFE000
FFFFFFE0007FFFFFFFC000
FFFFFFE000FFFFFFFF8000
FFFFFFE001FFFFFFFF0000
FFFFFFE003FFFFFFFE0000
FFFFFFE007FFFFFFFC0000
FFFFFFE007FFFFFFF80000
FFFFFFE00FFFFFFFF00000
FFFFFFE01FFFFFFFE00000
FFFFFFE03FFFFFFFC00000
FFFFFFE07FFFFFFF800000
FFFFFFE0FFFFFFFF000000
FFFFFFE1FFFFFFFC000000
FFFFFFE3FFFFFFF8000000
FFFFFFE7FFFFFFF0000000
FFFFFFE7FFFFFFE0000000
FFFFFFEFFFFFFFC0000000
FFFFFFFFFFFFFF80000000
FFFFFFFFFFFFFF00000000
FFFFFFFFFFFFFE00000000
FFFFFFFFFFFFFC00000000
FFFFFFFFFFFFF800000000
FFFFFFFFFFFFE000000000
FFFFFFFFFFFFC000000000
FFFFFFFFFFFF8000000000
FFFFFFFFFFFF0000000000
FFFFFFFFFFFE0000000000
FFFFFFFFFFFC0000000000
FFFFFFFFFFFC0000000000
FFFFFFFFFFFE0000000000
FFFFFFFFFFFF0000000000
FFFFFFFFFFFF8000000000
FFFFFFFFFFFFC000000000
FFFFFFFFFFFFE000000000
FFFFFFFFFFFFF000000000
FFFFFFFFFFFFF800000000
FFFFFFFFFFFFFC00000000
FFFFFFFFFFFFFE00000000
FFFFFFFFFFFFFF00000000
FFFFFFFFFFFFFF80000000
FFFFFFFFFFFFFFC0000000
FFFFFFEFFFFFFFC0000000
FFFFFFE7FFFFFFE0000000
FFFFFFE3FFFFFFF0000000
FFFFFFE1FFFFFFF8000000
FFFFFFE1FFFFFFFC000000
FFFFFFE0FFFFFFFE000000
FFFFFFE07FFFFFFF000000
FFFFFFE03FFFFFFF800000
FFFFFFE01FFFFFFFC00000
FFFFFFE01FFFFFFFE00000
FFFFFFE00FFFFFFFF00000
FFFFFFE007FFFFFFF80000
FFFFFFE003FFFFFFFC0000
FFFFFFE001FFFFFFFE0000
FFFFFFE000FFFFFFFE0000
FFFFFFE000FFFFFFFF0000
FFFFFFE0007FFFFFFF8000
FFFFFFE0003FFFFFFFC000
FFFFFFE0001FFFFFFFE000
FFFFFFE0000FFFFFFFF000
FFFFFFE0000FFFFFFFF800
FFFFFFE00007FFFFFFFC00
FFFFFFE00003FFFFFFFE00
FFFFFFE00001FFFFFFFF00
FFFFFFE00000FFFFFFFF80
FFFFFFE000007FFFFFFF80
FFFFFFE000007FFFFFFFC0
FFFFFFE000003FFFFFFFC0
FFFFFFE000001FFFFFFFC0
7FFFFFC000000FFFFFFFC0
7FFFFFC0000007FFFFFF80
7FFFFF80000003FFFFFF80
3FFFFF00000001FFFFFF00
0FFFFE00000000FFFFFE00
03FFF0000000003FFFF000
ENDCHAR
STARTCHAR 006C
ENCODING 108
SWIDTH 288 0
DWIDTH 52 0
BBX 27 120 12 0
BITMAP
03FFF800
1FFFFE00
3FFFFF00
7FFFFF80
7FFFFFC0
7FFFFFC0
FFFFFFE0
FFFFFFE0
FFFFFFE0
FFFFFFE0
FFFFFFE0
FFFFFFE0
FFFFFFE0
FFFFFFE0
FFFFFFE0
FFFFFFE0
FFFFFFE0
FFFFFFE0
FFFFFFE0
FFFFFFE0
FFFFFFE0
FFFFFFE0
FFFFFFE0
FFFFFFE0
FFFFFFE0
FFFFFFE0
FFFFFFE0
FFFFFFE0
FFFFFFE0
FFFFFFE0
FFFFFFE0
FFFFFFE0
FFFFFFE0
FFFFFFE0
FFFFFFE0
FFFFFFE0
FFFFFFE0
FFFFFFE0
FFFFFFE0
FFFFFFE0
FFFFFFE0
FFFFFFE0
FFFFFFE0
FFFFFFE0
FFFFFFE0
FFFFFFE0
FFFFFFE0
FFFFFFE0
FFFFFFE0
FFFFFFE0
FFFFFFE0
FFFFFFE0
FFFFFFE0
FFFFFFE0
FFFFFFE0
FFFFFFE0
FFFFFFE0
FFFFFFE0
FFFFFFE0
FFFFFFE0
FFFFFFE0
FFFFFFE0
FFFFFFE0
FFFFFFE0
FFFFFFE0
FFFFFFE0
FFFFFFE0
FFFFFFE0
FFFFFFE0
FFFFFFE0
FFFFFFE0
FFFFFFE0
FFFFFFE0
FFFFFFE0
FFFFFFE0
FFFFFFE0
FFFFFFE0
FFFFFFE0
FFFFFFE0
FFFFFFE0
FFFFFFE0
FFFFFFE0
FFFFFFE0
FFFFFFE0
FFFFFFE0
FFFFFFE0
FFFFFFE0
FFFFFFE0
FFFFFFE0
FFFFFFE0
FFFFFFE0
FFFFFFE0
FFFFFFE0
FFFFFFE0
FFFFFFE0
FFFFFFE0
FFFFFFE0
FFFFFFE0
FFFFFFE0
FFFFFFE0
FFFFFFE0
FFFFFFE0
FFFFFFE0
FFFFFFE0
FFFFFFE0
FFFFFFE0
FFFFFFE0
FFFFFFE0
FFFFFFE0
FFFFFFE0
FFFFFFE0
FFFFFFE0
FFFFFFE0
FFFFFFE0
7FFFFFC0
7FFFFFC0
7FFFFF80
3FFFFF80
1FFFFF00
03FFF800
ENDCHAR
STARTCHAR 006D
ENCODING 109
SWIDTH 783 0
DWIDTH 141 0
BBX 116 86 12 -2
BITMAP
003FFFFFFFFFFC00000001FFE00000
01FFFFFFFFFFFF8000003FFFFC0000
07FFFFFFFFFFFFF00001FFFFFF8000
1FFFFFFFFFFFFFF8000FFFFFFFC000
3FFFFFFFFFFFFFFE003FFFFFFFF000
3FFFFFFFFFFFFFFF01FFFFFFFFF800
7FFFFFFFFFFFFFFF83FFFFFFFFFC00
7FFFFFFFFFFFFFFFCFFFFFFFFFFE00
FFFFFFFFFFFFFFFFFFFFFFFFFFFF00
FFFFFFFFFFFFFFFFFFFFFFFFFFFF00
FFFFFFFFFFFFFFFFFFFFFFFFFFFF80
FFFFFFFFFFFFFFFFFFFFFFFFFFFF80
FFFFFFFFFFFFFFFFFFFFFFFFFFFFC0
FFFFFFFFFFFFFFFFFFFFFFFFFFFFC0
FFFFFFFFFFFFFFFFFFFFFFFFFFFFC0
FFFFFFFFFFFFFFFFFFFFFFFFFFFFE0
FFFFFFFFFFFFFFFFFFFFFFFFFFFFE0
FFFFFFFFFFFFFFFFFFFFFFFFFFFFE0
FFFFFFFFFFFFFFFFFFFFFFFFFFFFE0
FFFFFFFFFFFFFFFFFFFFFFFFFFFFF0
FFFFFFFFFFFFFFFFFFFFFFFFFFFFF0
FFFFFFFFFFFFFFFFFFFFFFFFFFFFF0
FFFFFFFFFE3FFFFFFFFFF1FFFFFFF0
FFFFFFFFF81FFFFFFFFF80FFFFFFF0
FFFFFFFFE01FFFFFFFFE00FFFFFFF0
FFFFFFFF801FFFFFFFFC00FFFFFFF0
FFFFFFFF000FFFFFFFF0007FFFFFF0
FFFFFFFE000FFFFFFFE0007FFFFFF0
FFFFFFF8000FFFFFFF80007FFFFFF0
FFFFFFF0000FFFFFFF00007FFFFFF0
FFFFFFE0000FFFFFFE00007FFFFFF0
FFFFFFE0000FFFFFFE00007FFFFFF0
FFFFFFE0000FFFFFFE00007FFFFFF0
FFFFFFE0000FFFFFFE00007FFFFFF0
FFFFFFE0000FFFFFFE00007FFFFFF0
FFFFFFE0000FFFFFFE00007FFFFFF0
FFFFFFE0000FFFFFFE00007FFFFFF0
FFFFFFE0000FFFFFFE00007FFFFFF0
FFFFFFE0000FFFFFFE00007FFFFFF0
FFFFFFE0000FFFFFFE00007FFFFFF0
FFFFFFE0000FFFFFFE00007FFFFFF0
FFFFFFE0000FFFFFFE00007FFFFFF0
FFFFFFE0000FFFFFFE00007FFFFFF0
FFFFFFE0000FFFFFFE00007FFFFFF0
FFFFFFE0000FFFFFFE00007FFFFFF0
FFFFFFE0000FFFFFFE00007FFFFFF0
FFFFFFE0000FFFFFFE00007FFFFFF0
FFFFFFE0000FFFFFFE00007FFFFFF0
FFFFFFE0000FFFFFFE00007FFFFFF0
FFFFFFE0000FFFFFFE00007FFFFFF0
FFFFFFE0000FFFFFFE00007FFFFFF0
FFFFFFE0000FFFFFFE00007FFFFFF0
FFFFFFE0000FFFFFFE00007FFFFFF0
FFFFFFE0000FFFFFFE00007FFFFFF0
FFFFFFE0000FFFFFFE00007FFFFFF0
FFFFFFE0000FFFFFFE00007FFFFFF0
FFFFFFE0000FFFFFFE00007FFFFFF0
FFFFFFE0000FFFFFFE00007FFFFFF0
FFFFFFE0000FFFFFFE00007FFFFFF0
FFFFFFE0000FFFFFFE00007FFFFFF0
FFFFFFE0000FFFFFFE00007FFFFFF0
FFFFFFE0000FFFFFFE00007FFFFFF0
FFFFFFE0000FFFFFFE00007FFFFFF0
FFFFFFE0000FFFFFFE00007FFFFFF0
FFFFFFE0000FFFFFFE00007FFFFFF0
FFFFFFE0000FFFFFFE00007FFFFFF0
FFFFFFE0000FFFFFFE00007FFFFFF0
FFFFFFE0000FFFFFFE00007FFFFFF0
FFFFFFE0000FFFFFFE00007FFFFFF0
FFFFFFE0000FFFFFFE00007FFFFFF0
FFFFFFE0000FFFFFFE00007FFFFFF0
FFFFFFE0000FFFFFFE00007FFFFFF0
FFFFFFE0000FFFFFFE00007FFFFFF0
FFFFFFE0000FFFFFFE00007FFFFFF0
FFFFFFE0000FFFFFFE00007FFFFFF0
FFFFFFE0000FFFFFFE00007FFFFFF0
FFFFFFE0000FFFFFFE00007FFFFFF0
FFFFFFE0000FFFFFFE00007FFFFFF0
FFFFFFE0000FFFFFFE00007FFFFFF0
FFFFFFE0000FFFFFFE00007FFFFFF0
FFFFFFC0000FFFFFFC00007FFFFFF0
7FFFFFC00007FFFFFC00003FFFFFE0
7FFFFF800007FFFFF800003FFFFFE0
3FFFFF800003FFFFF000001FFFFFC0
1FFFFE000001FFFFE000000FFFFF80
03FFF00000003FFF00000001FFFC00
ENDCHAR
STARTCHAR 006E
ENCODING 110
SWIDTH 572 0
DWIDTH 103 0
BBX 78 86 12 -2
BITMAP
03FFFFFFFFFFFF000000
0FFFFFFFFFFFFFF80000
3FFFFFFFFFFFFFFE0000
3FFFFFFFFFFFFFFFC000
7FFFFFFFFFFFFFFFF000
7FFFFFFFFFFFFFFFF800
FFFFFFFFFFFFFFFFFC00
FFFFFFFFFFFFFFFFFE00
FFFFFFFFFFFFFFFFFF00
FFFFFFFFFFFFFFFFFF80
FFFFFFFFFFFFFFFFFFC0
FFFFFFFFFFFFFFFFFFE0
FFFFFFFFFFFFFFFFFFE0
FFFFFFFFFFFFFFFFFFF0
FFFFFFFFFFFFFFFFFFF0
FFFFFFFFFFFFFFFFFFF8
FFFFFFFFFFFFFFFFFFF8
FFFFFFFFFFFFFFFFFFF8
FFFFFFFFFFFFFFFFFFF8
FFFFFFFFFFFFFFFFFFFC
FFFFFFFFFFFFFFFFFFFC
FFFFFFFFFFFFFFFFFFFC
FFFFFFFFFF80FFFFFFFC
FFFFFFFFFC007FFFFFFC
FFFFFFFFF0003FFFFFFC
FFFFFFFFC0003FFFFFFC
FFFFFFFF00003FFFFFFC
FFFFFFFE00001FFFFFFC
FFFFFFF800001FFFFFFC
FFFFFFF000001FFFFFFC
FFFFFFE000001FFFFFFC
FFFFFFE000001FFFFFFC
FFFFFFE000001FFFFFFC
FFFFFFE000001FFFFFFC
FFFFFFE000001FFFFFFC
FFFFFFE000001FFFFFFC
FFFFFFE000001FFFFFFC
FFFFFFE000001FFFFFFC
FFFFFFE000001FFFFFFC
FFFFFFE000001FFFFFFC
FFFFFFE000001FFFFFFC
FFFFFFE000001FFFFFFC
FFFFFFE000001FFFFFFC
FFFFFFE000001FFFFFFC
FFFFFFE000001FFFFFFC
FFFFFFE000001FFFFFFC
FFFFFFE000001FFFFFFC
FFFFFFE000001FFFFFFC
FFFFFFE000001FFFFFFC
FFFFFFE000001FFFFFFC
FFFFFFE000001FFFFFFC
FFFFFFE000001FFFFFFC
FFFFFFE000001FFFFFFC
FFFFFFE000001FFFFFFC
FFFFFFE000001FFFFFFC
FFFFFFE000001FFFFFFC
FFFFFFE000001FFFFFFC
FFFFFFE000001FFFFFFC
FFFFFFE000001FFFFFFC
FFFFFFE000001FFFFFFC
FFFFFFE000001FFFFFFC
FFFFFFE000001FFFFFFC
FFFFFFE000001FFFFFFC
FFFFFFE000001FFFFFFC
FFFFFFE000001FFFFFFC
FFFFFFE000001FFFFFFC
FFFFFFE000001FFFFFFC
FFFFFFE000001FFFFFFC
FFFFFFE000001FFFFFFC
FFFFFFE000001FFFFFFC
FFFFFFE000001FFFFFFC
FFFFFFE000001FFFFFFC
FFFFFFE000001FFFFFFC
FFFFFFE000001FFFFFFC
FFFFFFE000001FFFFFFC
FFFFFFE000001FFFFFFC
FFFFFFE000001FFFFFFC
FFFFFFE000001FFFFFFC
FFFFFFE000001FFFFFFC
FFFFFFE000001FFFFFFC
7FFFFFC000001FFFFFFC
7FFFFFC000000FFFFFF8
7FFFFF8000000FFFFFF8
3FFFFF80000007FFFFF0
1FFFFE00000003FFFFE0
03FFF0000000007FFF00
ENDCHAR
STARTCHAR 006F
ENCODING 111
SWIDTH 594 0
DWIDTH 107 0
BBX 85 86 10 0
BITMAP
000000003FFFE000000000
0000000FFFFFFF80000000
0000007FFFFFFFF8000000
000003FFFFFFFFFF000000
00000FFFFFFFFFFFC00000
00003FFFFFFFFFFFF00000
0000FFFFFFFFFFFFF80000
0001FFFFFFFFFFFFFE0000
0007FFFFFFFFFFFFFF0000
000FFFFFFFFFFFFFFF8000
001FFFFFFFFFFFFFFFC000
003FFFFFFFFFFFFFFFE000
007FFFFFFFFFFFFFFFF000
00FFFFFFFFFFFFFFFFF800
00FFFFFFFFFFFFFFFFFC00
01FFFFFFFFFFFFFFFFFC00
03FFFFFFFFFFFFFFFFFE00
03FFFFFFFFFFFFFFFFFF00
07FFFFFFFFFFFFFFFFFF00
07FFFFFFFFFFFFFFFFFF80
0FFFFFFFFFFFFFFFFFFF80
0FFFFFFFFFFFFFFFFFFF80
1FFFFFFFF800FFFFFFFFC0
1FFFFFFF80000FFFFFFFC0
1FFFFFFE000007FFFFFFE0
3FFFFFFC000003FFFFFFE0
3FFFFFFC000001FFFFFFE0
3FFFFFF8000000FFFFFFE0
3FFFFFF8000000FFFFFFF0
7FFFFFF00000007FFFFFF0
7FFFFFF00000007FFFFFF0
7FFFFFF00000007FFFFFF0
7FFFFFF00000007FFFFFF0
7FFFFFF00000003FFFFFF0
7FFFFFE00000003FFFFFF8
FFFFFFE00000003FFFFFF8
FFFFFFE00000003FFFFFF8
FFFFFFE00000003FFFFFF8
FFFFFFE00000003FFFFFF8
FFFFFFE00000003FFFFFF8
FFFFFFE00000003FFFFFF8
FFFFFFE00000003FFFFFF8
FFFFFFE00000003FFFFFF8
FFFFFFE00000003FFFFFF8
FFFFFFE00000003FFFFFF8
FFFFFFE00000003FFFFFF8
FFFFFFE00000003FFFFFF8
FFFFFFE00000003FFFFFF8
FFFFFFE00000003FFFFFF8
FFFFFFE00000003FFFFFF8
FFFFFFE00000003FFFFFF8
7FFFFFE00000003FFFFFF8
7FFFFFF00000003FFFFFF0
7FFFFFF00000007FFFFFF0
7FFFFFF00000007FFFFFF0
7FFFFFF00000007FFFFFF0
7FFFFFF00000007FFFFFF0
7FFFFFF8000000FFFFFFF0
3FFFFFF8000000FFFFFFE0
3FFFFFFC000001FFFFFFE0
3FFFFFFC000001FFFFFFE0
1FFFFFFF000003FFFFFFE0
1FFFFFFF80000FFFFFFFC0
1FFFFFFFF800FFFFFFFFC0
0FFFFFFFFFFFFFFFFFFF80
0FFFFFFFFFFFFFFFFFFF80
0FFFFFFFFFFFFFFFFFFF80
07FFFFFFFFFFFFFFFFFF00
03FFFFFFFFFFFFFFFFFF00
03FFFFFFFFFFFFFFFFFE00
01FFFFFFFFFFFFFFFFFC00
01FFFFFFFFFFFFFFFFFC00
00FFFFFFFFFFFFFFFFF800
007FFFFFFFFFFFFFFFF000
003FFFFFFFFFFFFFFFE000
001FFFFFFFFFFFFFFFC000
000FFFFFFFFFFFFFFF8000
0007FFFFFFFFFFFFFF0000
0003FFFFFFFFFFFFFE0000
0000FFFFFFFFFFFFF80000
00007FFFFFFFFFFFF00000
00001FFFFFFFFFFFC00000
000003FFFFFFFFFE000000
000000FFFFFFFFF8000000
0000000FFFFFFF80000000
000000003FFFE000000000
ENDCHAR
ENDFONT
